<?xml version="1.0" encoding="UTF-8"?><svg id="a" xmlns="http://www.w3.org/2000/svg" viewBox="0 0 549.35 474.53"><path d="M455.78,166.89c.78-.77,1.5-1.51,2.15-2.22-1.62-4.65-3.35-8.86-5.06-12.59,3.09,7.05,4.83,12.56,4.87,12.6-.44.59-1.11,1.34-1.96,2.2Z" fill="#e8718f"/><path d="M488.79,134.9c-2.32-3.83-4.63-7.14-6.81-9.95,2.47,3.25,4.73,6.57,6.81,9.95Z" fill="#e8718f"/><path d="M435.36,322.54c-1.22-11.36-12.87-106.12-19.27-123.12,2.41-1.8,23.16-17.33,35.83-28.87-11.88,10.67-36.06,29.04-36.06,29.04-.91-5.15-8.62-34.4-11.3-44.49-8.72,2.96-12.03-6.86-14.17-13.41C365.89,71.76,308.69,12.93,231.71,7.7c-37.81,16.89-136.41,90.63-145.55,166.29,17.57-64.05,83.64-81.25,129.54-32.92,3.5,5.03,5.58,6.75,8.24.09,4.51-8.15,9.41-16.34,16.22-22.79,34.3-33.25,89.56-24.83,112.66,17.01,25.59,42.35,23.84,96.68,4.56,141.16-20.25,45.47-57.05,80.91-94.84,112.13-5.15,4.37-10.39,10.96-17.77,7.94-22.59-10.12-43.23-24.26-63.61-38.21-57.08-40.32-93.69-79.26-98.58-152.33-.24,10.3.37,20.66,1.88,30.97,6.77,46.46,25.35,154.1,58.77,209.94,89.99,34.54,197.25,25.67,277.11-29.66,6.79-22.82,11.35-46.47,11.96-70.31.08-3.95.04-7.91-.17-11.86-.28-3.73-.56-7.83,2.95-10.22v-1.85c.1-.17.19-.35.29-.52Z" fill="#e8718f"/><path d="M465.73,233.15c1.66-17.12.63-32.38-1.77-45.55,1.73,12.02,2.96,27.8,1.77,45.55Z" fill="#e8718f"/><path d="M26.34,309.45c2.41,17.08,8.02,40.03,19.9,69.45-6.37-17.63-15.54-45.35-19.9-69.45Z" fill="#e8718f"/><path d="M488.79,134.9c34.14,55.51,17.23,126.32,10.08,149.89,31.03-30.25,47.65-75.12,42.08-118.25-4.01-38.72-24.79-98.56-68.48-52.66,6.5,6.84,11.23,12.73,16.33,21.02Z" fill="#8bc7d1"/><path d="M451.91,170.55c-12.67,11.54-33.42,27.08-35.83,28.87,6.41,16.99,18.05,111.76,19.27,123.12,31.39-56.16,39.22-104.56,22.58-157.86-1.95,2.07-3.61,3.7-6.03,5.88Z" fill="#eb97af"/><path d="M451.91,170.55c2.26-2.07,4.26-3.86,5.83-5.86-.04-.05-1.77-5.55-4.87-12.6-4.05-8.84-8.02-15.06-10.37-18.4-12.5,7.49-24.54,15.55-37.95,21.43,2.67,10.09,10.39,39.33,11.3,44.49,0,0,24.18-18.38,36.06-29.04Z" fill="#e65f7d"/><path d="M457.51,315.68c15.53-7.71,29.25-18.56,41.35-30.9,10.76-28.48,24.36-123.26-26.4-170.91-9.47,7.31-19.93,13.29-29.95,19.81,36.94,58.56,29.47,124.25-7.44,189.38v1.85c2.61-1.86,6.62-2.48,9.48-3.54,4.43-1.64,8.75-3.56,12.97-5.69Z" fill="#eded90"/><path d="M82.58,206.05C79.92,110.26,178.09,34.51,231.71,7.7,154.54,2.59,71.47,50.25,44.31,124.06c-13.49,37.72-12.14,79.09-3.59,117.77,1.6,6.98,4.45,14.51-1.39,20.11-5.32,4.67-10.02,10.06-14.04,15.87-3.91,32.98,13.81,83.39,25.48,111.9,26.82,24.71,58.41,44.23,92.47,57.25-33.42-55.85-52-163.48-58.77-209.94-1.5-10.31-2.12-20.67-1.88-30.97Z" fill="#e75f7d"/><path d="M26.34,309.45c-2.09-14.82-1.78-25.24-1.06-31.64-12.49,17.59-17.72,39.16-18.03,60.45,11.83,19.3,26.97,36.05,43.5,51.45-12.46-27.75-22.41-62.53-24.42-80.26Z" fill="#eb97ae"/><path d="M92.39,226.02c11.08,67.35,57.07,102.53,110.64,138.01,13.25,8.7,26.68,16.9,40.9,23.91,2.38,1.17,4.33,2.91,6.64,1.12,45-36.77,90.96-79.12,107.59-136.79,8.61-30.47,9.21-63.92-2.34-93.7-14.67-42.95-56.04-68.47-98.32-44.05-12.44,7.03-21.14,18.63-27.54,31.17-2.52,6.23-9.43,9.9-15.22,5.3-2.64-2-4.26-4.98-6.64-7.25-7.95-6.58-16.24-13.17-25.6-17.65-63.96-25.63-103.3,43.53-90.11,99.94ZM345.64,237.3c-.99,39.96-56.95,38.7-58.22-.03.27-39.74,57.82-40.97,58.22.03ZM311.69,165.82c11.8.69,18.8,7.14,20.22,18.6.62,5.04-1.34,8.54-5.63,10.01-6.37,2.23-12.13-2.24-13.62-8.24-2.61-7.24-7.78,1.12-8.67,4.88-2.27,5.85-5.52,7.92-10.67,6.89-14.84-3.97-5.02-34.36,18.37-32.15ZM193.13,205.2c17.42-7.59,35.67-10.27,54.53-7.99,10.97,1.33,14.87,5.29,16.41,16.29,1.13,8.04.25,15.96-2,23.72l.52-1.89c1.59,16.97-1.09,33.86-10.49,48.28-10.45,17.69-32.78,16.23-44.5.79-8.22-9.52-14.63-21.15-17-33.62.1.11.2.22.3.33-7.41-15.41-21.11-37.54,2.23-45.91ZM138.31,190.93c12.38.08,19.64,6.45,21.3,18.71.71,5.25-1.85,9.21-6.78,10.47-5.85,1.55-10.8-3.5-12.23-8.97-.81-3.85-4.57-3.57-6.11-.34-2.5,5.51-4.56,14.24-12.14,12.56-16.83-3.46-6-33.7,15.96-32.42ZM139.62,233.64c36.82.36,40.31,58.04.63,60.5-38.56-1.82-39.71-58.12-.63-60.5Z" fill="#eef0d7"/><path d="M287.42,237.27c1.28,38.74,57.23,39.98,58.22.03-.4-41.01-57.96-39.77-58.22-.03Z" fill="#e798ad"/><path d="M140.25,294.14c39.69-2.47,36.18-60.15-.63-60.5-39.1,2.39-37.92,58.69.63,60.5Z" fill="#e798ad"/><path d="M260.9,241.45c-15.17,44.97-44.47,48.41-70.3,9.33,2.37,12.47,8.79,24.1,17,33.62,11.72,15.44,34.06,16.91,44.51-.79,9.39-14.42,12.08-31.32,10.49-48.28-.37,1.33-1.31,4.75-1.69,6.12Z" fill="#ebd087"/><path d="M293.32,197.97c5.16,1.03,8.4-1.04,10.67-6.89.88-3.76,6.06-12.12,8.67-4.88,2.39,11.89,20.83,11.98,19.25-1.78-2.37-27.61-45.75-22.75-45.43,3.08-.1,5.92,2.28,9.56,6.84,10.47Z" fill="#3b3b39"/><path d="M122.35,223.36c7.58,1.68,9.64-7.04,12.14-12.56,1.55-3.22,5.3-3.5,6.11.34,2.94,12.74,20.17,12.19,19.01-1.5-2.64-29.25-48.16-21.64-45.17,5.26.43,4.72,3.28,7.77,7.91,8.46Z" fill="#3b3b39"/><path d="M82.52,202.62c.98,31.6,10.73,63.46,27.95,89.95,29.84,41.45,88.51,81.63,134.3,104.02,7.38,3.02,12.63-3.57,17.77-7.94,37.79-31.22,74.6-66.65,94.84-112.12,13.17-30.83,18.39-65.71,11.7-98.76-8.44-44.66-41.4-88.54-91.6-78.68-21.65,3.67-40.75,18.31-51.03,37.62-3.84,5.66-4.44,14.04-10.75,4.36-57.73-59.8-133.61-15.88-133.18,61.55ZM121.96,131.97c23.8-17.53,56.32-13.8,78.01,5.32,2.7,2.09,5.66,4.08,8.13,6.44,3.99,4.45,8.36,11.4,15.36,8.83,3.27-1.15,4.89-3.98,6.49-6.87,3.46-6.25,7-12.58,11.66-18.01,13.95-16.13,35.96-24.46,57.1-22.11,28.13,3.01,48.06,27.79,57.1,52.99,11.55,29.78,10.95,63.23,2.34,93.7-15.51,53.43-56.4,94.63-98.35,128.95-3.07,2.6-6.05,5.38-9.24,7.84-2.31,1.79-4.26.05-6.64-1.12-41.73-22.1-81.82-48.92-114.49-83.36-14.44-15.61-24.99-34.64-31.02-55.04-13.85-39.07-12.57-90.95,23.55-117.57Z" fill="#fff"/><path d="M182.48,233.09c.7,1.59,7.63,17.03,8.41,18.02,6.49,9.78,14.58,19.09,25.28,24.33,23.5,11.6,41.27-18.25,45.89-38.22,2.26-7.75,3.13-15.68,2-23.72-1.54-10.99-5.45-14.96-16.41-16.29-18.86-2.28-37.1.4-54.53,7.99-13.91,5.36-15.4,14.65-10.65,27.89Z" fill="#5e5b6e"/><path d="M542.45,136.44c-11.52-41.81-39.57-65.18-75.33-27.42-17.8,12.65-36.72,23.91-55.73,34.67-1.84,1-3.69,1.97-5.56,2.92-1.43.75-4.29,3.05-5.38.9-.08.04-.23-.45-.29-.56,0,.01,0,.02.02.03-14.24-38.36-33.97-75.84-65.25-103.03C293.34,7.44,233.89-8.13,179.84,4.13c-55.49,14.38-109.41,47.9-135.16,100.66-20.95,42.58-21.17,92.07-11.19,137.66.33,4.4,4.37,10.93.74,14.4-15.46,13.67-25.93,32.58-30.78,52.53-1.8,7.56-2.84,15.3-3.18,23.07-.11,2.66-.74,6.34.39,8.81,29.96,47.6,75.95,84.52,127.18,107.17,95.22,41.29,213.75,34.55,298.67-27.07,8.33-26.54,13.49-54.68,12.95-82.59-.5-11.95-2.64-5.96,10.67-11.89,73.51-29.92,116.88-113.78,92.32-190.45ZM434.08,325.74c-4.07,3.91-.95,15.32-1.79,21.25-.6,23.84-5.16,47.49-11.95,70.31-129.13,90.2-327.9,55.05-413.08-79.05.2-25.56,8.26-51.57,26.07-70.47,10.86-9.92,11.08-11.9,7.39-25.96-8.55-38.68-9.89-80.06,3.6-117.77C71.47,50.23,154.54,2.61,231.71,7.69c77.01,5.26,134.16,64.04,158.68,134.01,1.67,4.26,3.12,10.49,7.28,12.86,5.48,3.05,11.51-1.59,16.09-3.99,5.39-2.88,10.68-5.93,15.92-9.05,14.43-8.92,29.18-17.53,42.78-27.65,58.46-60.56,78.2,62.23,65.78,101.46-10.35,43.19-41.59,80.06-80.72,100.35-4.22,2.13-8.54,4.05-12.97,5.69-3.26,1.21-7.81,1.77-10.46,4.36Z" fill="#f8f9ee"/><path d="M400.45,147.5s-.08-.2-.28-.53c.09.17.18.35.28.53Z" fill="#fff"/></svg>