<?xml version="1.0" encoding="UTF-8"?><svg id="a" xmlns="http://www.w3.org/2000/svg" viewBox="0 0 92.32 93.27"><path d="M23.51,87.77c-.45,0-.91-.06-1.36-.17l-12.51-3.18c-1.66-.42-3.03-1.6-3.7-3.17-.67-1.58-.57-3.38.27-4.87,1.84-3.24,3.57-6.42,5.17-9.51-1.76-.77-3.07-2.45-3.27-4.5l-1.25-12.83c-.14-1.47.31-2.93,1.25-4.06.94-1.13,2.3-1.84,3.77-1.96l9.88-.81c1.06-3.48,1.9-6.86,2.51-10.14l-5.81.48c-.15.01-.31.02-.46.02-2.79,0-5.17-2.1-5.46-4.92l-1.35-12.82c-.16-1.47.29-2.94,1.23-4.08.94-1.14,2.31-1.85,3.78-1.97l45.26-3.73c.15-.01.31-.02.46-.02,2.8,0,5.19,2.13,5.47,4.97l1.25,12.83c.14,1.47-.31,2.93-1.25,4.06-.94,1.13-2.3,1.84-3.77,1.96l-2.33.19c1.09,3.16,2.37,6.37,3.84,9.62l6.5-.54c.15-.01.31-.02.46-.02,2.8,0,5.19,2.13,5.47,4.97l1.25,12.83c.14,1.47-.31,2.93-1.25,4.06-.05.06-.11.13-.16.19,2.51,3.67,5.26,7.39,8.22,11.13.97,1.22,1.38,2.8,1.11,4.34s-1.17,2.89-2.49,3.73l-10.9,6.88c-.91.57-1.93.85-2.93.85-1.69,0-3.36-.78-4.43-2.24-6.34-8.6-11.12-15.53-14.51-21.07l-12.96,1.07c-2.81,6.26-6.26,12.89-10.28,19.76-1,1.71-2.83,2.72-4.75,2.72Z" fill="#5aaaba"/><path d="M61.92,11l1.25,12.83-9.15.75c1.78,6.58,4.37,13.36,7.75,20.33l10.32-.85,1.25,12.83-4.67.39c3.62,5.84,7.83,11.8,12.65,17.87l-10.9,6.88c-7.36-9.98-12.68-17.83-15.96-23.57l-19.66,1.62c-2.95,6.97-6.72,14.37-11.3,22.2l-12.51-3.18c3.53-6.24,6.64-12.18,9.31-17.82l-6.72.55-1.25-12.83,13.53-1.12c2.58-7.53,4.18-14.65,4.8-21.37l-12.65,1.04-1.35-12.82,45.26-3.73M39.59,46.75l8.66-.71c-2.21-5.37-4.01-10.61-5.41-15.72-.65,5.61-1.73,11.09-3.25,16.44M61.93,0c-.3,0-.61.01-.92.04L15.76,3.77c-2.95.24-5.68,1.67-7.57,3.95-1.89,2.28-2.78,5.23-2.47,8.17l1.35,12.82c.45,4.23,3.24,7.66,6.97,9.11l-2.61.22c-2.94.24-5.65,1.65-7.54,3.91-1.89,2.26-2.79,5.19-2.5,8.12l1.25,12.83c.19,1.92.86,3.68,1.88,5.17-.99,1.84-2.03,3.71-3.1,5.6-1.69,2.98-1.89,6.58-.55,9.74,1.35,3.15,4.08,5.5,7.41,6.35l12.51,3.18c.9.23,1.81.34,2.71.34,3.84,0,7.49-2.02,9.49-5.45,3.49-5.97,6.57-11.77,9.18-17.32l6.42-.53c3.29,5.14,7.58,11.28,12.96,18.58,2.15,2.91,5.47,4.47,8.86,4.47,2.01,0,4.04-.55,5.86-1.7l10.9-6.88c2.64-1.67,4.45-4.38,4.97-7.46.52-3.08-.28-6.23-2.22-8.68-2.16-2.72-4.19-5.43-6.1-8.11.44-1.4.6-2.89.46-4.38l-1.25-12.83c-.55-5.67-5.33-9.93-10.94-9.93-.3,0-.61.01-.92.04l-2.42.2c1.07-.63,2.04-1.45,2.85-2.42,1.89-2.26,2.79-5.19,2.5-8.12l-1.25-12.83c-.55-5.67-5.33-9.93-10.94-9.93h0Z" fill="#f8f9ee"/><path d="M23.51,84.27c-.16,0-.33-.02-.49-.06l-12.51-3.18c-.6-.15-1.1-.58-1.35-1.15-.24-.57-.21-1.23.1-1.77,2.85-5.03,5.44-9.91,7.73-14.55l-3.23.27c-.06,0-.11,0-.17,0-1.02,0-1.89-.77-1.99-1.81l-1.25-12.83c-.05-.53.11-1.06.46-1.48.34-.41.84-.67,1.37-.71l12.22-1.01c1.99-6.02,3.34-11.82,4.03-17.29l-10.24.84c-.06,0-.11,0-.17,0-1.01,0-1.88-.77-1.99-1.79l-1.35-12.82c-.06-.54.11-1.07.45-1.49.34-.41.84-.67,1.38-.72l45.26-3.73c.06,0,.11,0,.17,0,1.02,0,1.89.77,1.99,1.81l1.25,12.83c.05.53-.11,1.06-.46,1.48-.34.41-.84.67-1.37.71l-6.72.55c1.59,5.33,3.73,10.84,6.37,16.43l8.94-.74c.06,0,.11,0,.17,0,1.02,0,1.89.77,1.99,1.81l1.25,12.83c.05.53-.11,1.06-.46,1.48-.34.41-.84.67-1.37.71l-1.38.11c3.16,4.88,6.77,9.88,10.75,14.9.35.45.5,1.02.4,1.58s-.42,1.05-.9,1.36l-10.9,6.88c-.33.21-.7.31-1.07.31-.62,0-1.22-.28-1.61-.81-6.91-9.37-12.1-16.99-15.44-22.66l-17.2,1.42c-2.9,6.69-6.57,13.86-10.94,21.31-.37.62-1.03.99-1.73.99ZM43.48,39.1c-.36,1.82-.77,3.63-1.22,5.42l3.13-.26c-.67-1.73-1.31-3.45-1.9-5.16Z" fill="#5aaaba"/><path d="M61.92,11l1.25,12.83-9.15.75c1.78,6.58,4.37,13.36,7.75,20.33l10.32-.85,1.25,12.83-4.67.39c3.62,5.84,7.83,11.8,12.65,17.87l-10.9,6.88c-7.36-9.98-12.68-17.83-15.96-23.57l-19.66,1.62c-2.95,6.97-6.72,14.37-11.3,22.2l-12.51-3.18c3.53-6.24,6.64-12.18,9.31-17.82l-6.72.55-1.25-12.83,13.53-1.12c2.58-7.53,4.18-14.65,4.8-21.37l-12.65,1.04-1.35-12.82,45.26-3.73M39.59,46.75l8.66-.71c-2.21-5.37-4.01-10.61-5.41-15.72-.65,5.61-1.73,11.09-3.25,16.44M61.92,7c-.11,0-.22,0-.33.01l-45.26,3.73c-1.07.09-2.06.61-2.75,1.44-.69.83-1.01,1.9-.9,2.97l1.35,12.82c.22,2.05,1.95,3.58,3.97,3.58.11,0,.22,0,.33-.01l7.74-.64c-.68,4.23-1.74,8.65-3.18,13.21l-10.89.9c-1.07.09-2.06.6-2.74,1.42s-1.01,1.89-.91,2.95l1.25,12.83c.2,2.06,1.94,3.61,3.98,3.61,0,0,.01,0,.02,0-1.86,3.65-3.9,7.42-6.09,11.29-.61,1.08-.69,2.39-.2,3.54.49,1.15,1.49,2,2.69,2.31l12.51,3.18c.33.08.66.12.99.12,1.4,0,2.72-.73,3.45-1.98,4.17-7.12,7.71-13.98,10.56-20.43l14.77-1.22c3.38,5.61,8.39,12.91,14.91,21.75.78,1.06,1.99,1.63,3.22,1.63.73,0,1.47-.2,2.13-.62l10.9-6.88c.96-.61,1.62-1.59,1.81-2.71s-.1-2.27-.81-3.16c-3.29-4.15-6.32-8.28-9.05-12.34.38-.23.72-.52,1.01-.87.69-.82,1.01-1.89.91-2.95l-1.25-12.83c-.2-2.06-1.94-3.61-3.98-3.61-.11,0-.22,0-.33.01l-7.56.62c-1.96-4.25-3.61-8.44-4.94-12.53l4.24-.35c1.07-.09,2.06-.6,2.74-1.42s1.01-1.89.91-2.95l-1.25-12.83c-.2-2.06-1.94-3.61-3.98-3.61h0Z"/></svg>