<?xml version="1.0" encoding="UTF-8"?><svg id="a" xmlns="http://www.w3.org/2000/svg" xmlns:xlink="http://www.w3.org/1999/xlink" viewBox="0 0 425.57 299.6"><defs><filter id="b" x="-1.21" y="-1.56" width="432" height="307" filterUnits="userSpaceOnUse"><feOffset dx="2" dy="2"/><feGaussianBlur result="c" stdDeviation="1"/><feFlood flood-color="#4a2600" flood-opacity=".25"/><feComposite in2="c" operator="in"/><feComposite in="SourceGraphic"/></filter></defs><g filter="url(#b)"><path d="M270.77,299.28c-13.95,1.65-32.07-2.9-38.17-16.83-42.32-.26-169.25-3.16-213.46-3.77-11.26.02-20.65-10.83-18.94-21.98.26-2.97,7.73-61.73,8.71-63.37,0,0,18.01-49.95,18.01-49.95-2.35.3,29.63-44.83,29.44-45.89-1.06-.22,37.86-38.48,38.69-39.66,4.3-3.69,48.81-32.21,54.02-34.37,2.75-.48,51.95-18.69,53.69-17.93,0,0,52.82-5.43,52.87-5.43,1.04-.1,2.09-.11,3.13-.04,0,0,49.91,3.34,49.91,3.34,5.59.71,56.91,17.01,62.04,19.43,0,0,36.25,20.98,36.25,20.98,8.93,2.07,16.36,9.55,17.78,18.76,12.63,5.54-122.89,178.99-124.61,185.99,10.89,20.66-6.92,48.44-29.36,50.73Z" fill="#fafbf3"/><path d="M37.54,179.46c1.74-6.3,240.21,85.3,243.09,83.96,1.32.48,2.02,1.94,1.55,3.27h0c-1.88,7.07-240.28-85.24-243.48-83.78-1.42-.49-1.84-2.18-1.16-3.45Z" fill="#e18a43" stroke="#380b08" stroke-miterlimit="10" stroke-width="2"/><path d="M25.37,257.77c2.67-2.44,257.8,9.99,257.47,2.62h0c.66-7.37-254.85-5.18-257.38-7.74-3-.1-3.14,5.1-.1,5.12Z" fill="#e18a43" stroke="#380b08" stroke-miterlimit="10" stroke-width="2"/><path d="M66.08,123.76c3.22-5.57,210.02,144.52,213.08,144.02,1.16.8,1.45,2.39.65,3.56h0c-3.74,6.38-209.96-144.55-213.5-143.94-1.25-.85-1.21-2.58-.22-3.63Z" fill="#e18a43" stroke="#380b08" stroke-miterlimit="10" stroke-width="2"/><path d="M108.07,77.36c4.67-4.61,165.37,193.99,168.54,194.26.91,1.07.78,2.69-.29,3.6h0c-5.14,5.16-165.49-193.95-168.97-194.3-.99-1.14-.5-2.8.72-3.57Z" fill="#e18a43" stroke="#380b08" stroke-miterlimit="10" stroke-width="2"/><path d="M160.64,43.4c5.6-3.25,109.6,230.19,112.52,231.26.6,1.27.06,2.8-1.22,3.4-6.35,3.53-109.66-230.16-112.98-231.52-.56-1.33.33-2.74,1.67-3.15Z" fill="#e18a43" stroke="#380b08" stroke-miterlimit="10" stroke-width="2"/><path d="M209.31,28.37c3.01,2.01,52.8,252.53,59.87,250.43,7.31-1.14-56.76-248.5-54.88-251.58-.63-2.93-5.71-1.81-4.99,1.14Z" fill="#e18a43" stroke="#380b08" stroke-miterlimit="10" stroke-width="2"/><path d="M270.88,24.07c2.37,2.64-14.26,255.52-6.9,255.21,7.31.79,9.43-252.55,12.02-255.03.15-2.97-5.05-3.22-5.11-.18Z" fill="#e18a43" stroke="#380b08" stroke-miterlimit="10" stroke-width="2"/><path d="M331.84,32.77c2.41,2.22-83.58,249.95-71.41,246.13,2.36.94,75.22-244.04,76.3-244.62.55-1.43-3.35-1.52-3.92-2.02-.41-.13-.84.1-.97.51Z" fill="#e18a43" stroke="#380b08" stroke-miterlimit="10" stroke-width="2"/><path d="M359.45,42.72l-52.86-16.6-48.95-3.26-52.31,5.37-48.6,16.75-45.83,29.27-35.53,35.93-27.17,41.46-17.71,49.23-7.13,55.02,142,2.69c.16-17.53,5.32-34.47,15-49.1,9.32-14.11,22.58-25.87,38.35-34,33.12-17.09,70.7-15.59,98.61,3.83l81.58-113.76-39.44-22.83Z" fill="#fff0c9"/><path d="M361.26,39.14l-53.93-16.98-49.76-3.31-52.87,5.43-.23.02-49.26,16.98-.22.08-46.6,29.77-35.99,36.39-27.79,42.33-17.94,49.88-7.84,60.08,150.57,2.85-.03-2.07c-.46-34.3,18.67-64.79,51.17-81.56,32.42-16.73,69.23-14.94,96.06,4.67l1.63,1.19,86.48-120.6-43.45-25.15ZM218.7,175.48c-15.76,8.14-29.02,19.89-38.35,34-9.67,14.64-14.84,31.57-15,49.1l-142-2.69,7.13-55.02,17.71-49.23,27.17-41.46,35.53-35.93,45.83-29.27,48.6-16.75,52.31-5.37,48.95,3.26,52.86,16.6,39.44,22.83-81.58,113.76c-27.91-19.41-65.5-20.92-98.61-3.83Z" fill="#380b08"/><path d="M233.31,89.87c-30.88-58.97-119.36-14.54-90.5,45.44,30.88,58.97,119.36,14.54,90.5-45.44Z" fill="#fe4a4d"/><rect x="264.68" y="107.64" width="131.55" height="2" transform="translate(100.26 369.43) rotate(-66.76)" fill="#380b08"/><rect x="227.61" y="95.6" width="132.71" height="2" transform="translate(145.84 368.28) rotate(-79.59)" fill="#380b08"/><rect x="258.46" y="27.76" width="2" height="130.72" transform="translate(-1.77 5.09) rotate(-1.12)" fill="#380b08"/><rect x="98.9" y="151.88" width="2" height="134.53" transform="translate(-136.97 262.67) rotate(-75.9)" fill="#380b08"/><rect x="111.52" y="115.39" width="2" height="135.14" transform="translate(-101.25 203.88) rotate(-64)" fill="#380b08"/><rect x="131.35" y="85.87" width="2" height="134.74" transform="translate(-69.75 165.57) rotate(-52.67)" fill="#380b08"/><rect x="157.07" y="61.69" width="2" height="132.99" transform="translate(-45.32 135.09) rotate(-40.98)" fill="#380b08"/><rect x="188.46" y="42.14" width="2" height="133.85" transform="translate(-28.9 98.71) rotate(-27.21)" fill="#380b08"/><rect x="222.62" y="31.98" width="2" height="130.1" transform="translate(-17.24 59.53) rotate(-14.61)" fill="#380b08"/><path d="M403.6,64.47c5.51,3.31-148.06,207.54-147.61,210.61-.82,1.14-2.42,1.41-3.57.59h0c-6.31-3.85,148.09-207.48,147.54-211.03.87-1.23,2.6-1.17,3.64-.16Z" fill="#e18a43" stroke="#380b08" stroke-miterlimit="10" stroke-width="2"/><path d="M266.35,258.63c-1.73-3.58-7.32-.78-5.48,2.75,1.73,3.58,7.32.78,5.48-2.75Z" fill="#fafbf3" stroke="#380b08" stroke-miterlimit="10" stroke-width=".25"/></g></svg>