<?xml version="1.0" encoding="UTF-8"?>
<svg xmlns="http://www.w3.org/2000/svg" viewBox="0 0 792 612">
  <defs>
    <style>
      .cls-1 {
        fill: #e8718f;
      }

      .cls-1, .cls-2, .cls-3, .cls-4, .cls-5, .cls-6, .cls-7, .cls-8, .cls-9, .cls-10, .cls-11, .cls-12, .cls-13, .cls-14, .cls-15, .cls-16 {
        stroke-width: 0px;
      }

      .cls-2 {
        fill: #e798ad;
      }

      .cls-3 {
        fill: #7bbed8;
      }

      .cls-4 {
        fill: #ebd087;
      }

      .cls-5 {
        fill: #eded90;
      }

      .cls-17 {
        isolation: isolate;
      }

      .cls-6 {
        fill: #3b3b39;
      }

      .cls-7 {
        fill: #000;
        mix-blend-mode: multiply;
        opacity: .1;
      }

      .cls-8 {
        fill: #5e5b6e;
      }

      .cls-9 {
        fill: #8bc7d1;
      }

      .cls-10 {
        fill: #eef0d7;
      }

      .cls-11 {
        fill: #eb97af;
      }

      .cls-12 {
        fill: #eb97ae;
      }

      .cls-13 {
        fill: #fff;
      }

      .cls-14 {
        fill: #e75f7d;
      }

      .cls-15 {
        fill: #cedc6d;
      }

      .cls-16 {
        fill: #e65f7d;
      }
    </style>
  </defs>
  <g class="cls-17">
    <g id="Layer_1" data-name="Layer 1">
      <g>
        <g>
          <ellipse class="cls-3" cx="396" cy="305.64" rx="303.41" ry="291.3"/>
          <path class="cls-15" d="M396.55,14.34c-154.81,0-282.54,111.33-301.08,255.14,34.84-40.37,79.03-25.9,79.03-25.9l66.88-11.76,30.13-83.78c17.64-39.69,55.85-26.46,55.85-26.46,23.52,1.47,125.75,26.46,125.75,26.46,44.91-19.11,15.35-56.59,15.35-56.59-33.28-23.37-2.43-65.83-.14-68.9-23.01-5.36-47.04-8.22-71.77-8.22Z"/>
          <path class="cls-15" d="M588.21,531.34c67.88-53.42,111.2-134.55,111.2-225.39,0-104.35-57.16-195.87-143.04-247.31-3.66,5.81-39.05,65.6,19.38,122.27,0,0,36.04,37.4,27.56,65.06l1.25,201.29c.03,4.95-.28,9.89-.93,14.8-2.37,17.85-8.72,61.37-15.42,69.29Z"/>
          <path class="cls-7" d="M325.94,21.48C192.15,51.85,92.59,167.24,92.59,304.97c0,84.97,37.9,161.44,98.35,214.69l-34.56-125.08C64.69,112.97,320.87,23.23,325.94,21.48Z"/>
          <path class="cls-7" d="M542.25,531.36l1.88,29.66c71.6-38.83,125.13-104.76,145.47-183.31-1.12,1.71-96.21,147.07-147.35,153.64Z"/>
          <g>
            <g>
              <g>
                <path class="cls-1" d="M179.05,382.46c-9.47,8.28-33.6,33.94-33.01,80.04,0,0,75.7,134.49,260.16,131.55,0,0,85.98.73,159.48-51.44,0,0,15.29-46.92,12.08-88.02-.15-1.97,1.06-3.78,2.95-4.33,8.76-2.54,33.72-11.37,57.73-34.79,0,0,48.14-38.95,49.61-107.3,0,0,0-52.18-22.05-79.74,0,0-19.41-28.42-50.49,2.94-2.04,2.06-4.25,3.94-6.67,5.55-11.05,7.38-43.17,28.48-62.95,37.83-2.51,1.18-5.48-.38-6.56-2.93-10.26-24.25-45.02-137.99-173.64-145.1-17.06-.94-34.14,1.19-50.52,6.07-55.13,16.42-175.41,72.33-133.62,241.78.71,2.89-.26,5.93-2.5,7.89Z"/>
                <path class="cls-9" d="M688.04,308.35s0-52.18-22.05-79.74c0,0-19.41-28.42-50.49,2.94-1.23,1.24-2.52,2.4-3.88,3.48h0s65.51,46.37,26.81,180.61c0,0,48.14-38.95,49.61-107.3Z"/>
                <path class="cls-11" d="M558.33,322.49c2.91-2.17,32.48-24.31,42.4-35.33.2-.22.56-.15.64.14,2.35,7.97,24.24,88.07-23.12,158.32-.2.3-.67.2-.71-.16-1.27-10.96-12.39-105.84-19.32-122.53-.07-.16-.02-.33.12-.44Z"/>
                <path class="cls-16" d="M545.89,274.75s11.11,41.66,12.21,47.91c0,0,36.75-27.93,41.89-34.91-.08-.09-6.71-21.32-17.38-33.88l-36.72,20.88Z"/>
                <path class="cls-5" d="M582.61,253.87s62.31,75.16-5.3,192.26v5.88s36.3-7.21,61.14-36.11c0,0,42.93-113.48-26.01-181.26l-29.83,19.23Z"/>
                <path class="cls-14" d="M378.93,128.2c-4.28-.5-8.66-.9-13.17-1.15-17.06-.94-34.14,1.19-50.52,6.07-55.13,16.42-175.41,72.33-133.62,241.78.71,2.89-.26,5.93-2.5,7.89-2.76,2.42-6.78,6.33-11.06,11.78h0c-10.87,31.47,27.19,125.29,27.19,125.29h0c22.63,19.93,53.53,40.95,93.61,55.58-35.56-54.01-55.17-167.35-62.16-215.36-6.65-45.67,3.96-92.34,30.33-130.21,41.23-59.2,107.55-94.51,121.89-101.67Z"/>
                <path class="cls-12" d="M169,392.97s-13.15,38.09,27.51,127.75l-17.34-16.38c-10.46-10.09-17.65-19.78-26.34-31.43l-6.78-10.14s-2.69-38.86,22.95-69.8Z"/>
              </g>
              <g>
                <path class="cls-10" d="M229.46,326.79c.12-15.2,2.75-29.9,9.42-43.59,9.5-19.54,23.63-34.08,44.98-40.02,13-3.62,25.7-2.62,38.67,1.8,11.84,4.04,20.74,11.97,30.25,19.26,2.45,1.88,4.15,4.72,6.32,6.99,3.22,3.36,7.41,2.98,9.62-1.03,5.21-9.44,10.36-18.93,18.55-26.18,10.6-9.38,22.66-15.7,36.85-17.5,8.49-1.08,16.88-1.37,25.26.79,14.41,3.71,26.06,11.5,35.57,23.08,10.75,13.08,17.38,28.05,21.74,44.25,2.88,10.71,4.77,21.65,4.76,32.67-.01,16.31-1.36,32.51-5.99,48.38-3.67,12.56-8.12,24.76-14.34,36.15-8.13,14.89-18.04,28.61-28.87,41.67-8.25,9.95-17.25,19.15-26.47,28.14-9,8.79-18.73,16.78-28.35,24.87-3.61,3.03-7.19,6.09-10.78,9.15-2.42,2.06-4.17,3.17-8.05,1.31-12.9-6.19-25.37-13.14-37.28-20.96-18.35-12.05-36.83-23.93-53.49-38.49-9.6-8.39-19.22-16.75-27.83-26.13-13.98-15.23-24.25-32.71-30.67-52.59-3.24-10.03-6.26-20.03-7.79-30.45-1.05-7.15-2.16-14.3-2.11-21.57Z"/>
                <path class="cls-2" d="M459.06,329.79c15.67-.3,28.87,12.92,28.83,30.58-.04,16.62-12.78,29.85-28.74,29.84-15.97-.01-29.51-13.74-29.48-29.87.04-17.25,12.86-30.57,29.39-30.54Z"/>
                <path class="cls-2" d="M310.92,387.49c1.19,15.09-13.07,29.77-28.43,29.72-16.05-.05-29.81-14.16-29.77-30.68.04-16.07,13.46-29.52,29.15-29.82,14.41-.28,29.8,12.36,29.06,30.78Z"/>
                <path class="cls-4" d="M403.14,364.51c-2.93,9.88-7.7,18.74-14.5,26.44-9.03,10.22-18.95,12.66-30.22,7.55-3.85-1.74-7.13-4.36-10.46-6.94-5.66-4.4-10.28-12.6-15.12-17.72-.19,1.49,1.19,4.9,1.62,6.29,3.16,10.24,8.41,19.35,15.38,27.33,5.44,6.23,11.87,11.38,20.52,12.03,10.53.79,18.39-4.04,23.99-12.82,7.96-12.48,11.29-26.25,10.88-41.01l-.4-7.27-1.69,6.12Z"/>
                <path class="cls-6" d="M428.73,310.57c.22-13.02,11.23-22.5,25.21-21.68,11.8.69,18.8,7.14,20.22,18.6.62,5.04-1.34,8.54-5.63,10.01-4.48,1.54-9.66-.29-11.89-4.27-.7-1.25-1.19-2.63-1.73-3.97-1.43-3.53-3.03-3.82-5.64-1.05-1.59,1.69-2.22,3.84-3.03,5.93-2.27,5.85-5.52,7.92-10.67,6.89-4.56-.91-6.94-4.55-6.84-10.47Z"/>
                <path class="cls-6" d="M280.55,314c12.38.08,19.64,6.45,21.3,18.71.71,5.25-1.85,9.21-6.78,10.47-4.22,1.08-9.09-1.46-10.89-5.67-.46-1.09-.85-2.22-1.34-3.29-.53-1.16-.73-2.72-2.39-2.8-1.75-.08-3.01.91-3.72,2.45-1.05,2.27-1.98,4.59-2.95,6.89-1.88,4.48-4.84,6.31-9.19,5.67-4.63-.69-7.48-3.73-7.91-8.46-1.21-13.3,9.5-24.06,23.87-23.96Z"/>
                <path class="cls-13" d="M232.2,325.69c.3-26.34,9.87-54.88,32-70.65,11.03-7.86,24.51-12.05,38.03-11.32,7.62.41,15.56,2.23,22.51,5.43,6.31,2.9,11.98,6.97,17.47,11.21,2.7,2.09,5.66,4.08,8.13,6.44s4,5.26,6.64,7.26,5.71,2.63,8.73,1.57c3.27-1.15,4.89-3.98,6.49-6.87,3.46-6.25,7-12.58,11.66-18.01,4.5-5.24,10-9.61,15.88-13.17,12.24-7.42,27.03-10.41,41.22-8.94,13.16,1.36,25.75,8.18,35.09,17.46,9.93,9.85,17.16,22.44,22,35.54,5.37,14.5,8.77,30.01,8.71,45.52-.06,16.33-1.69,32.5-6.37,48.18-4.44,14.87-10.37,28.9-18.44,42.14-16.36,26.89-38,50.65-61.57,71.26-6.04,5.28-12.22,10.38-18.34,15.55-3.07,2.6-6.05,5.38-9.24,7.84-2.31,1.79-4.26.05-6.64-1.12-14.22-7.01-27.65-15.2-40.9-23.91-26.34-17.31-52.13-36.06-73.59-59.46-9.47-10.32-17.36-22.02-23.35-34.73-3.09-6.57-5.5-13.38-7.68-20.31-2.43-7.72-4.64-15.53-6.02-23.52-1.33-7.71-2.43-15.56-2.43-23.4,0-4.83-7.44-4.84-7.43,0,0,16.89,3.94,33.83,9.01,49.82,4.5,14.22,10.56,27.78,18.94,40.13,8.91,13.12,19.98,24.3,31.73,34.81,12.42,11.11,25.25,21.52,38.95,30.99,13.59,9.4,27.38,18.73,41.74,26.89,7.07,4.02,14.34,8.24,21.87,11.32,7.38,3.03,12.62-3.57,17.77-7.94,12.84-10.89,25.75-21.58,37.7-33.48,11.77-11.73,22.75-24.13,32.69-37.48,9.53-12.79,18.21-26.41,24.46-41.16,6.51-15.38,11.22-31.48,13.21-48.1,2.01-16.87,2.06-34.01-1.51-50.66-3.17-14.82-8.31-29.48-16.26-42.4-7.48-12.16-17.4-23.02-30.03-29.77-14.18-7.57-29.6-9.13-45.3-6.51-13.99,2.33-27.03,9.52-37.33,19.27-5.56,5.26-9.88,11.75-13.7,18.35-.85,1.47-1.68,2.96-2.51,4.44-.66,1.19-1.37,3.37-2.55,4.13-2.17,1.39-4.62-2.89-5.69-4.22-2.32-2.85-5.15-4.92-8.02-7.17s-5.62-4.42-8.51-6.52c-6.11-4.43-12.63-8.15-19.8-10.51-15.31-5.03-31.66-5.12-46.72.87-25.45,10.11-42.27,35.05-47.74,61.52-1.59,7.68-2.3,15.52-2.39,23.36-.05,4.83,7.38,4.83,7.43,0Z"/>
                <path class="cls-8" d="M331.91,371.95c1.29,2.56,2.86,4.96,4.69,7.16,3.59,4.33,6.85,8.95,11.36,12.45,3.32,2.58,6.6,5.2,10.46,6.94,11.28,5.1,21.19,2.66,30.22-7.55,6.8-7.7,11.57-16.56,14.5-26.44l1.12-4.05c2.29-7.81,3.19-15.79,2.05-23.9-1.54-10.99-5.45-14.96-16.41-16.29-18.86-2.28-37.1.4-54.53,7.99-12.44,5.42-15.11,11.35-11.76,24.5.29,1.15.8,2.24,1.11,3.38l7.19,15.79Z"/>
              </g>
            </g>
            <g>
              <path class="cls-13" d="M684.69,259.5c-6.11-21.56-21.19-53.64-49.63-45.15-4.4,1.31-8.55,3.49-12.3,6.12-4.9,3.44-8.77,7.89-13.4,11.61-5.81,4.67-12.55,8.47-18.81,12.49-8.02,5.14-16.1,10.18-24.31,15.02-4.16,2.45-8.36,4.86-12.61,7.16-1.84,1-3.69,1.97-5.56,2.92-1.3.66-3.62,2.57-4.98,1.45-.18-.15-.3-.34-.4-.54,0,.06-.06-.02-.13-.17-.05-.11-.1-.23-.14-.35,0-.01-.01-.03-.02-.04,0,.01,0,.02.02.03-.06-.16-.13-.31-.19-.47-.23-.58-.47-1.15-.7-1.73-.52-1.31-1.03-2.62-1.54-3.92-1.32-3.38-2.66-6.75-4.04-10.11-3.72-9-7.75-17.87-12.3-26.48-11.9-22.53-27.28-43.46-46.47-60.32-24.48-21.5-54.52-35.52-86.6-41.06-22.77-3.94-45.92-4.18-68.47,1.24-10.02,2.41-19.86,5.79-29.44,9.58-20.37,8.07-39.71,18.59-57.02,32.07-20.3,15.81-37.37,35.84-48.71,59.01-14.25,29.12-19.12,61.77-17.27,93.96.55,9.57,1.67,19.1,3.21,28.56.83,5.07,1.79,10.12,2.87,15.14.56,2.61,1.15,5.22,1.78,7.81.63,2.62,1.08,4.54-1.04,6.59-8.7,7.64-15.88,17.18-21.28,27.39-4.19,7.93-7.4,16.42-9.5,25.14-1.2,4.97-2.03,10.03-2.58,15.11-.29,2.65-.49,5.3-.6,7.96-.11,2.66-.74,6.34.39,8.81.84,1.83,2.16,3.55,3.25,5.23,3.24,4.94,6.74,9.7,10.36,14.36,12.16,15.64,26.11,29.91,41.27,42.65,21.81,18.32,46.17,33.54,72.29,44.93,33.44,14.58,69.25,22.87,105.62,25.37,22.6,1.55,44.82.89,67.2-2.55,38.98-5.98,77.35-18.93,111.01-39.64,2.43-1.49,4.83-3.03,7.2-4.6,1.2-.8,2.39-1.6,3.58-2.42,1.28-.88,3.24-1.85,4.06-3.23.53-.88.75-2.09,1.04-3.05,1.7-5.64,3.19-11.35,4.53-17.08,4.77-20.37,7.97-41.49,7.38-62.46-.04-1.36-.1-2.73-.17-4.09-.04-.75-.61-2.93-.21-3.63.42-.74,2.06-.91,2.86-1.17,2.77-.89,5.5-1.9,8.19-3,8.33-3.39,16.34-7.51,23.92-12.36,10.44-6.68,19.91-14.77,28.83-23.35,19.86-19.12,34.47-44.35,41.54-70.94,7.32-27.54,5.78-56.5-1.96-83.8ZM680.48,338.4c-4.9,20.17-14.25,39.17-26.91,55.6-5.78,7.49-12.4,13.92-19.22,20.4-10.28,9.75-21.94,17.97-34.59,24.36-4.22,2.13-8.54,4.05-12.97,5.69-3.24,1.2-7.98,1.84-10.46,4.36-2.62,2.66-2.14,6-1.96,9.39.21,3.95.25,7.9.17,11.86-.15,7.22-.72,14.42-1.59,21.58-1.45,11.98-3.8,23.87-6.73,35.58-1.1,4.41-2.27,8.81-3.64,13.15-24.18,16.87-51.17,29.3-79.43,37.62-19.89,5.86-40.41,9.87-61.08,11.65-13.63,1.17-27.36,1.08-41.02.35-25.72-1.37-51.25-5.67-75.9-13.18-20.81-6.34-40.88-14.96-59.77-25.76-15.78-9.02-30.72-19.5-44.53-31.32-10.9-9.33-21.13-19.45-30.52-30.3-6.42-7.43-11.23-13.54-16.72-21.66-1.28-1.89-2.53-3.81-3.71-5.76-.14-.23-.28-.46-.41-.69.03-.1.06-.34.11-.71.48-3.85.2-7.87.58-11.76,2.09-21.34,10.72-42.22,25.38-58,1.9-2.05,3.9-4,6-5.85.22-.2.41-.4.57-.61,5.18-5.68,2.3-12.75.82-19.5-1.46-6.66-2.71-13.37-3.72-20.11-1.82-12.11-2.79-24.36-2.77-36.61.03-20.75,3.09-41.47,10.08-61.05,11.15-31.24,32.5-57.72,59.3-77.01,21.11-15.19,44.44-26.04,69.08-33.5,46.74-14.16,100.51-4.39,140.79,22.85,27.71,18.74,48.63,45.7,63.67,75.31,2.81,5.53,5.42,11.16,7.88,16.85.97,2.26,1.72,4.05,2.8,6.73.87,2.14,1.71,4.28,2.56,6.43,1.67,4.26,3.12,10.49,7.28,12.86,5.33,3.05,11.43-1.5,16.09-3.99,5.39-2.88,10.68-5.93,15.92-9.05,10.32-6.14,20.47-12.58,30.52-19.15,3.79-2.48,7.71-4.86,11.26-7.67,5.84-4.62,10.5-10.23,17.13-13.87,7.42-4.07,16.04-5.04,23.5-.93,2.72,1.5,4.32,2.75,6.47,4.94.62.63,1.19,1.3,1.77,1.97.04.05.06.07.09.1.01.03.06.09.19.27,12.86,16.95,17.99,38.53,20.33,59.35,1.85,16.51,1.25,32.53-2.7,48.8Z"/>
              <path class="cls-13" d="M542.69,270.57s-.08-.2-.28-.53h0c.09.17.18.35.27.53Z"/>
            </g>
          </g>
        </g>
        <path class="cls-13" d="M696.8,306c-.04,30.28-4.92,60.41-14.6,89.11-9.4,27.87-23.28,54.16-40.74,77.82-17.57,23.8-38.88,44.92-62.72,62.42-24.2,17.75-51.02,31.91-79.34,41.84-29.47,10.34-60.45,16.15-91.66,17.29s-63.33-2.38-93.85-10.67c-29.32-7.97-57.39-20.28-83.09-36.5-24.97-15.77-47.58-35.21-66.86-57.59s-34.91-47.4-46.45-74.38c-11.77-27.53-19.04-57.04-21.41-86.89s.1-61.19,7.59-90.79c7.28-28.76,19.18-56.23,35.03-81.3,15.7-24.83,35.23-47.18,57.57-66.25,22.68-19.36,48.29-35.26,75.61-47.19,28.28-12.35,58.55-20.35,89.22-23.72,31.77-3.49,64.1-2.23,95.46,3.94,29.93,5.89,58.95,16.18,85.83,30.59,26.14,14.02,50.19,31.83,71.12,52.85s38.27,44.66,51.82,70.71c13.71,26.34,23.16,54.84,27.92,84.15,2.39,14.72,3.52,29.63,3.54,44.55,0,3.36,5.23,3.36,5.22,0-.05-30.85-5.01-61.65-14.91-90.88-9.62-28.4-23.73-55.24-41.6-79.32-17.89-24.09-39.33-45.37-63.48-63.18-24.62-18.17-51.98-32.55-80.84-42.71-30.01-10.57-61.65-16.45-93.44-17.61s-64.57,2.48-95.64,10.97-58,20.55-83.93,36.92c-25.44,16.07-48.56,35.88-68.18,58.71-19.51,22.71-35.6,48.31-47.32,75.86-11.94,28.08-19.32,57.95-21.78,88.38s.11,62.43,7.74,92.59c7.38,29.16,19.48,57.13,35.55,82.54s35.89,48.15,58.68,67.57,49.21,35.98,77.11,48.07c28.85,12.5,59.44,20.58,90.68,24.06,32.1,3.57,64.74,2.23,96.44-3.92,30.51-5.92,60.13-16.43,87.55-31.09,26.65-14.24,51.22-32.45,72.54-53.86s39.05-45.57,52.82-72.11c13.94-26.88,23.63-55.95,28.4-85.85,2.38-14.93,3.58-30.02,3.6-45.13,0-3.36-5.22-3.36-5.22,0Z"/>
      </g>
    </g>
  </g>
</svg>