<?xml version="1.0" encoding="UTF-8"?><svg id="a" xmlns="http://www.w3.org/2000/svg" viewBox="0 0 546.59 444.87"><path d="M405.19,218.35c6.64-10.83,11.57-23.66,14.77-36.06-21.09-8.96-40.98-22.98-54.06-41.67,16.85,53.88-11.62,78.94-63.02,85.74,6.3,4.58,13.83,8.74,20.38,12.35,26.58-11.03,53.84-40.6,81.93-20.36h0ZM352.71,111.98c-5.26-22.68-7.5-53.67,10.99-70.6,6.58-5.22,14.91-6.6,22.71-3.34,13.62,5.72,16.57,21.08,21.45,33.52,13.13-9.22,29.77,3.53,38.33,14.25,7.03-11.15,20.64-20.1,33.69-13.56,8.85-18.6,26.72-42.52,50.1-32.48,23.61,11.61,16.65,45.06,11.54,65.61-8.1,31.35-27.65,58.41-55.04,75.36,14.59,63.43,4.92,144.96-51.99,184.46,2.71,5.99,2.02,13.52-1.24,19.09,20.51,22.94-11.03,50.4-35.57,45.29-5.26,8.83-17.03,12.6-27,14.33-31,6.04-46.47-17.73-65.57-36.5-41.31-5.26-81.97-23.11-106.88-57.66,2.8,19.69,3.08,41.55-11.23,55.81-23.49,18.23-40.39-4.93-47.49-26.37-12.48,8.38-28.99-1.99-38.22-11.75-6.68,11.02-19.17,19.75-32.35,15.01-7.76,19.56-25.36,43.76-49.35,34.92-25.07-10.4-20.45-44.93-16.34-66.47,6.21-31.75,24.02-60.02,50.15-78.79-17.93-62.49-13.06-143.85,40.82-187.07-2.61-5.69-2.37-12.9.21-18.5-21.2-20.37,7.2-52.51,33.65-49.04,5.15-8.99,16.58-13.5,26.65-15.87,30.86-7.87,48.21,14.3,68.43,32.52,53.47,2.4,103.47,30.37,129.56,77.83h0ZM170.13,294.78c-4.59-17.68-5.36-36.87,3.65-53.77-1.53-.92-2.91-2-4.16-3.23-11.51,7.51-26.85,10.55-38.45,2.04-3.52,8.36-6.19,17.44-8,26.38,17.24,6.3,33.82,15.83,46.97,28.58h0ZM88.31,162.94c-.05-.2-.11-.41-.16-.61-.06.2-.11.41-.16.61.11,0,.21,0,.32,0Z" fill="#fff" fill-rule="evenodd"/><path d="M68.82,189.79c-.72,6.9-1.08,13.88-1.06,20.87.09.09.18.18.27.27-.07-6.71.17-13.78.79-21.15Z" fill="#fff"/><path d="M142.65,99.28c-2.27,2.59-4.06,5.48-4.59,9.16.56-3.68,2.33-6.57,4.59-9.16Z" fill="#fff"/><path d="M306.47,114.86c-1.08,3.15-1.49,6.62-.73,9.75-.69-3.16-.36-6.42.73-9.75Z" fill="#fff"/><path d="M247.04,61.44c12.25,2.59,26.54,7.13,40.55,15.58-14-8.55-28.07-13.01-40.55-15.58Z" fill="#fff"/><path d="M72.23,192.87c2.57,3.92,4.47,8.3,5.73,12.92-1.26-4.65-3.15-9.03-5.73-12.92Z" fill="#fff"/><path d="M76.64,241.21c.83-2.47,1.51-5.04,2.03-7.66-.52,2.62-1.2,5.18-2.03,7.66,0,0,0,0,0,0Z" fill="#fff"/><path d="M81.97,179.33c6.56-1.32,6.34-3.13,7.98.08h0c.21,4.71,2.66,8.38,6.08,10.42,3.14-7.29,7.14-14.76,12.16-22.33-5.25-4.73-7.85-12.12-5.83-19.43-8.11-.88-14.84-1.77-22.67-3.41-3.73,9.25-6.58,19.18-8.56,29.47,2.45,4.86,5.05,6.63,10.83,5.2Z" fill="#fff"/><path d="M83.18,210.7c.6,2.97,1.19,5.95,4.59,7.2,1.24-7.81,3.43-16.03,6.8-24.52-4.25-2.34-7.48-6.46-8.03-11.31-7.13,2.66-12.35,2.07-16.37-2.51-.21,1.28-.4,2.56-.58,3.85,7.25,6.63,11.83,16.44,13.59,27.3Z" fill="#fff"/><path d="M252.32,104.77c-1.99.67-4.19.94-6.48.9,2.7.27,4.79-.1,6.48-.9Z" fill="#fff"/><path d="M156.79,77.58s0,0-.01,0c.03,1.37-.1,2.64-.34,3.83.25-1.19.38-2.46.35-3.83Z" fill="#fff"/><path d="M93.36,142.45c6.62.93,13.14.42,18.98-1.18-5.94,1.44-12.51,1.7-18.98,1.18Z" fill="#fff"/><path d="M160.9,76.23c.17,1.78.13,3.41-.08,4.92-4.7,15.57-11.19,17.33,5.5,27.04,2.65,2.06-1.23,4.64-3.36,9.02,10.88-4.7,19.96-4.98,27.68-2.88-.7-5.66,1.05-11.56,5.44-15.59-11.29-7.39-12.89-15.72-3.37-29.17-11.44.98-21.95,3.23-31.82,6.55,0,.04.01.07.01.11Z" fill="#fff"/><path d="M134.23,123.9c2.2-4.39,3.55-9.52,3.82-15.37-.29,5.27-1.69,10.57-3.95,15.3.05.02.09.05.13.08Z" fill="#fff"/><path d="M138.42,85.95c-.91.61-1.88,1.19-2.82,1.71,6.68-3.54,13.55-6.76,20.43-9.8-6.07,2.3-11.92,5.02-17.62,8.08Z" fill="#fff"/><path d="M124.5,146.66c1.82-1.91,3.61-3.71,5.36-5.43-.4-1.27-.69-2.58-.84-3.92-6.14,5.04-13.95,7.93-22.43,9.05-2.26,7.23-.61,13.85,3.74,17.99,4.09-5.86,8.79-11.78,14.16-17.7Z" fill="#fff"/><path d="M67.84,215.64c.26,9.59,1.22,19.14,2.88,28.44.07.01.15.02.23.02-1.42-8.26-2.48-17.78-2.82-28.28-.1-.05-.19-.12-.29-.18Z" fill="#fff"/><path d="M132.9,89.05c-.46.27-.91.54-1.37.81.75-.42,1.51-.84,2.27-1.25-.32.16-.63.31-.9.44Z" fill="#fff"/><path d="M72.7,252.98c-.37-1.61-.72-3.3-1.06-5.04-.07,0-.14,0-.21,0,.36,1.81.76,3.61,1.18,5.39.08-.32.17-.65.26-.97-.06.21-.12.42-.17.62Z" fill="#fff"/><path d="M170.82,337.79h0c-14.95-42.16-69.87-53.56-70.03-53.59-1.53-.68-2.43-3.78-2.58-8.53-4.58-6.33-8.4-15.29-10.34-26.13-3.12.51-6.85-.44-9.02-2.43-3.57,10.48-4.66,17.78.08,27.05,9.91-3.95,12.6-.23,3.8,8.12-31.49,11.16-68.65,66.61-56.98,110.24,4.05-29.83,31.65-82.88,60.22-103.44,2.07-1.64,4.66,1.63,2.51,3.25-28.54,20.55-56.27,74.85-58.93,103.08,18.88-5.24,26.91-59.32,36.6-52.36,3.18.95,4.81,12.67,8.79,15.23-1.73-9.58-.05-31.42,13.69-59.06,1.11-2.39,4.89-.63,3.7,1.77-15.34,32.27-14.58,50.09-13.32,56.8,13.46-14.63,9.81-45.34,18.82-43.7,7.32,2.69,4.9,25.01,23.63,39.82-1.92-10.83-4.38-31.11-19.45-49.97-1.66-2.06,1.63-4.66,3.24-2.52,15.3,21.37,21.28,45.79,20.93,55.76.35.21.68.43,1.04.63,2.34-7.63-5.73-34.05,9.47-29.33,14.68,10.29,25.6,50.47,33.61,59.07,1.44-45.5-34.98-83.76-69.91-92.76-2.55-.67-1.43-4.73,1.13-3.94,34.77,8.96,70.89,45.7,72.86,90.2,3.74-11.11,1.86-25.54-3.54-43.27Z" fill="#fff"/><path d="M160.15,24.73c-18.01,4.24,4.62,15.58,4.68,15.61,5.51,3.5,27.94,19.2,31.12,24.79,4.31-.27,8.74-.36,13.32-.27,2.67,0,2.66,4.24-.06,4.16-4.18-.08-8.24,0-12.19.23-9.33,16.05-9.52,18.75,2.84,27.55,4.32,2.9-9.24,8.89-5.25,18.83,11.32,4.48,19.46,13.87,26,20.34,2.09-2.94,5.18-5.16,7.35-6.48-7.47-6.66-7.71-18.45-1.44-25.44-20.1-9.55-14.4-32.47.54-45.64-27.14,2.01-37.56-40.34-66.9-33.69Z" fill="#fff"/><path d="M333.8,163.32s0,.01,0,.02c0,0,0-.01,0-.02Z" fill="#fff"/><path d="M276.99,89.37c1.25.28,2.58.57,3.97.83-1.57-.32-3.07-.68-4.53-.97.19.05.37.08.56.14Z" fill="#fff"/><path d="M301.64,87.14s0,0,0,0c-4.39,2.59-8.29,3.63-11.84,3.86,3.95-.15,8.01-1.16,11.85-3.86Z" fill="#fff"/><path d="M131.49,54.09c9.31.97,35.95,8.2,41.97,14.21,5.51-1.23,11.21-2.15,17.16-2.73-8.22-8.66-20.31-13.66-29.45-17.1h0c-40.23-18.87-70.94,4.31-29.67,5.62Z" fill="#fff"/><path d="M261.99,92.7c-2.25,2.19-4.56,5.47-7,10.23,2.92-2.78,4.45-7.03,7-10.23Z" fill="#fff"/><path d="M228.12,100.31c-1.93-1.43-4.07-2.67-5.63-4.18,1.61,1.59,3.53,2.98,5.63,4.18Z" fill="#fff"/><path d="M346.97,168.93c.41-11.53-3.66-24.3-10.38-37.09,6.89,13.53,10.44,26.39,10.24,37.19.05-.03.09-.06.14-.1Z" fill="#fff"/><path d="M242.61,139.98c6.11-10.18,13.92-19.73,22.37-27.29,3.98-3.99,10.21,2.31,6.1,6.23-6.64,6.36-7.07,16.7-10.59,25.8-9.85,29.14-2.85,61.64,53.85,55.45-16.02-7.05-11.28-24.86-7.17-16-.39,7.42,7.23,12.85,14.21,13.85,7.24-2.57,13.9-6.07,20.16-10.75h0c2.59-4.09,4.18-8.53,4.94-13.22-30.39,3.78-4.28-18.43-29.41-31.04-22.72-12.47-17.79-30.14-4.78-45.78-2.44-2.61-4.92-5.03-7.42-7.29-9.94,7.65-20.75,5.26-28.77,3.49-20.38-6.2-7.65,28.2-45.71,12.61-2.55,2.41-5.36,5.61-4.7,10.49.9,10.96,10.61,11.18,6.43,15.05-4.64,2.35-7.34,4.71-8.75,7.01,6.07,6.09,12.09,4.86,19.25,1.39ZM301.56,145.38c10.9,7.6-1.3,24.57-11.97,16.66-10.9-7.6,1.3-24.57,11.97-16.66Z" fill="#fff"/><path d="M87.26,245.66c-.97-7.37-1.06-15.5.01-24.19-1.06-.36-2.08-.85-3.01-1.44-.14,7.17-2.04,14.99-4.1,22.42,2.61,3.96,5,4.07,7.1,3.22Z" fill="#fff"/><path d="M218.33,79.07c-1.34,4.05-1.21,7.64-.04,10.77-1.12-3.51-.98-7.16.04-10.77Z" fill="#fff"/><path d="M232.39,59.24c-3.41,2.83-6.29,5.93-8.58,9.11,2.48-3.37,5.47-6.48,8.58-9.11Z" fill="#fff"/><path d="M334.05,167.31c.27,1.31,1.36,2.13,2.66,2.47-1.16-.53-2.12-1.33-2.66-2.47Z" fill="#fff"/><path d="M81.39,140.63c.15.03.3.06.45.1-.15-.03-.3-.07-.45-.1,0,0,0,0,0,0Z" fill="#fff"/><path d="M339.15,170.49c2.66.58,4.41.26,5.72-.31-1.57.44-3.72.63-5.72.31Z" fill="#fff"/><path d="M155.84,83.51c.1-.27.19-.55.28-.84-.08.29-.18.56-.28.84,0,0,0,0,0,0Z" fill="#fff"/><path d="M101.51,111.39c-4.73,3.35-8.32,7.67-11.3,12.68,3.42-4.58,7.22-8.79,11.3-12.68Z" fill="#fff"/><path d="M144.44,61.85c-4.95.24-10.22.34-10.97.71-.06.03-20.27,10.01-17.4,13.08,9.48,9.08,17.04,3.11,23.51,5.01,9.13-4.67,18.66-8.44,28.87-11.13-4.89-3.01-14.5-6.11-24-7.67Z" fill="#fff"/><path d="M319.15,139.47c-.39-.21-.75-.43-1.11-.64,4.98,3.49,10.21,6.92,13.29,11.78-2.02-3.63-5.66-7.42-12.18-11.14Z" fill="#fff"/><path d="M162.57,110.38c-7.22-3.84-10.86-8.36-10.71-14.55-14.98,11.53-6.91,25.5-19.01,37.8-.13,1.57-.06,3.09.2,4.54,9.35-8.75,17.76-14.82,25.34-18.79.48-3.28,1.84-6.42,4.17-9.01Z" fill="#fff"/><path d="M142.78,150.48c5.46-8.16,15.28-12,24.28-11.33.24-.23.47-.45.73-.68-7.06-3.78-10.46-11.76-9.39-19.08-7.58,3.96-15.99,10.03-25.34,18.79.97,5.46,4.53,9.96,9.73,12.31Z" fill="#c8c9c9"/><path d="M89.13,218.25c6.88,1.39,8.46-4.11,10.68-1.96-1.38-6.73-2.1-14.15-1.15-21.3-1.42-.36-2.8-.9-4.08-1.61-3.36,8.49-5.56,16.71-6.8,24.52.41.15.86.27,1.35.35Z" fill="#c8c9c9"/><path d="M187.64,151.07c.95.68,1.86,1.4,2.75,2.15-.89-.93-1.79-1.78-2.75-2.15Z" fill="#c8c9c9"/><path d="M162.96,117.21c-5.08,7.99,5.73,18.86,8.86,19.03,1.52.99,1.22,2.14.17,3.52,9.05,1.75,17.84,6.81,24.23,13.26-8.19-9.02-6.36-18.96,2.53-25.37-4.73-3.11-7.46-8.11-8.1-13.32-7.71-2.09-16.8-1.81-27.68,2.88Z" fill="#c8c9c9"/><path d="M197.21,155.17c.24-.07.48-.14.72-.21-.31-.31-.61-.65-.92-1,.19.38.26.8.2,1.21Z" fill="#c8c9c9"/><path d="M99.32,191.2c1.76-7.84,5.82-15.13,13.57-20.55-1.73-.83-3.31-1.9-4.7-3.15-5.02,7.57-9.02,15.04-12.16,22.33,1.02.61,2.13,1.07,3.29,1.36Z" fill="#c8c9c9"/><path d="M193.75,156.32s-.06-.03-.08-.04c-3.37,1.15-6.73,2.69-10.03,4.49,2.5-1.33,6.17-3.02,10.12-4.44Z" fill="#c8c9c9"/><path d="M174.96,144.73c4.5,1.38,8.83,3.59,12.62,6.29-3.73-2.77-8.08-4.96-12.62-6.29Z" fill="#c8c9c9"/><path d="M167.42,172.01c-3.57,2.47-5.8,6.49-9.73,7.79.09.04.18.07.27.11,3.74-1.56,6.11-5.58,9.46-7.89Z" fill="#c8c9c9"/><path d="M106.48,225.47s0,0,0,0c-1.13-3.5-2.14-7.13-2.91-10.79.8,3.87,1.84,7.53,2.9,10.79Z" fill="#c8c9c9"/><path d="M124.69,169.25s.01.01.02.02c.59-.22,1.2-.44,1.82-.65-.63.2-1.24.42-1.84.63Z" fill="#c8c9c9"/><path d="M258.65,151.99c-9.23,20.77-20.52,52.87,17.12,52.02,12.93.13,24.32-.66,34.56-2.88-53.07.98-57.33-23.58-51.68-49.13Z" fill="#c8c9c9"/><path d="M87.26,245.66c2.53-1.03,4.64-3.44,6.2-2.16,2.44,5.99,4.81,7.12,8.84,4.99,1.09-3.88,2.4-7.89,3.96-11.96-1.2-2.28-1.98-4.87-3.16-8.14-2.57-1.19-4.69-3.56-5.6-7.69-2.92,1.86-6.8,1.93-10.23.76-1.07,8.69-.98,16.83-.01,24.19Z" fill="#c8c9c9"/><path d="M144.2,155.07c-.35.46-.69.89-1.03,1.31.38-.42.75-.85,1.12-1.28-.03,0-.06-.02-.09-.03Z" fill="#c8c9c9"/><path d="M240.61,164.3c-5.22,15.16-2.67,28.05,8.39,33.33-7.89-14.9-1.09-34.6,8.42-52.04,1.64-.92,2.61-1.17,3.07-.87,2.2-7.83,4.99-15.53,7.23-22.4-13.37,13.86-22.84,28.7-27.11,41.98Z" fill="#c8c9c9"/><path d="M152.76,181.75c-6.82,3.01-12.82,7.01-18.08,11.67.11.03.21.05.32.07,5.34-4.62,11.33-8.59,18.04-11.59-.09-.05-.18-.1-.28-.15Z" fill="#c8c9c9"/><path d="M118.2,172.31s-.07-.01-.11-.02c-4.98,2.85-8.55,6.39-11.03,10.36,2.52-3.96,6.15-7.48,11.14-10.34Z" fill="#c8c9c9"/><path d="M101.15,252.92c-3.66.76-7.78-.06-9.72-4.92-.95.82-2.2,1.32-3.56,1.54,1.94,10.84,5.76,19.8,10.34,26.13-.17-5.67.73-13.69,2.94-22.75Z" fill="#c8c9c9"/><path d="M155.03,145.34c-3.11,1.37-5.96,3.47-8.35,6.41.1.02.21.04.32.07,1.93-2.93,5.03-5.13,8.03-6.48Z" fill="#c8c9c9"/><path d="M126.67,168.57c1.97-.46,4.1-1.51,6.31-2.99-2.08,1.2-4.13,2.08-6.31,2.99Z" fill="#c8c9c9"/><path d="M124.3,204.52s.05,0,.07-.01c2.27-2.79,4.7-5.46,7.3-7.98-.07-.03-.15-.06-.22-.09-2.57,2.55-4.95,5.25-7.15,8.08Z" fill="#c8c9c9"/><path d="M194.61,115.64c2.33,7.3,8.3,10.14,8.32,10.15,1.36.6,1.44,2.64.16,3.36-16.62,11.69-4.97,19.54-.29,24.67,9.55-2.92,16.46,6.48,6.77,8.8-11.92.24-23.11,5.6-33.04,13.31-12.97,9.94-25.11,25.72-32.73,38.46-1.17,8.5,4.25,8.41,11.2,4.56-4.14,1.42,64.1-65.35,57.04-46.4-12.78,8.86-27.33,21.2-37.34,31.26,5.61-.53,7.05,5.33,8.57,10.84,7.41-6.53,25.91-26.08,32.73-39.92,17.32-7.16-31.42,47.27-31.28,44.03,11.9,7.55,27.62-14.01,34.57-26.58,4.7-7.17,10.21-24.34,12.01-25.48,2.07-8.79,6.06-17.98,11.3-26.71-7.16,3.48-13.18,4.71-19.25-1.39-5.34,8.73,8.14,16.6,6.04,20.2-3.43,4.3-15.86-16.13-8.79-22.81-6.55-6.47-14.69-15.86-26-20.34Z" fill="#c8c9c9"/><path d="M124.5,146.66c-5.37,5.92-10.07,11.83-14.16,17.7,1.81,1.72,4.09,3.02,6.75,3.75,8.63-3.84,15.51-5.12,23.09-14.61-5.03-2.6-8.68-7.11-10.31-12.27-1.76,1.72-3.54,3.52-5.36,5.43Z" fill="#c8c9c9"/><path d="M179.24,334.78c-14.09-39.74-59.14-54.69-72.67-58.36,1.39-25.51,13.52-57.29,35.6-76.11-2.22,3.23-4.24,6.42-6.03,9.51-5.05,8.49,1.35,21.74,12.53,20.37,6.03-.4,14.45-4.32,25.55-14.75,8.48,34.06,44.55-.29,53-19.41,32.05,25.36,91.03,20.66,119.81-1.72h0c20.73-25.82,2.43-66.54-24.24-98.77h.02c-33.54-40.05-79.16-44.53-99.14-46.5-22.76-3.35-32.07-41.27-65.56-33.04-18.89,4.45-20.29,11.41-16.09,17.73-33.66-9.55-57.45,21.6-24.14,27.96-12.66,8.52-14.79,19.41-.93,25.4-58.23,26.79-71.55,136.69-45.19,190.8-87.21,45.82-60.42,205.22-7.65,80.3,13.99,27.33,30.42-4.24,33.97-22.08,8.56,21.95,43.87,55.01,38.07,4.4,12.96,17.82,20.33,51.33,31.79,56.09,22.07,2.75,19.07-40.21,11.3-61.83h0ZM174.36,381.06c-1.97-44.5-38.09-81.23-72.86-90.2-2.56-.79-3.67,3.27-1.13,3.94,34.93,9,71.35,47.26,69.91,92.76-8.01-8.59-18.93-48.78-33.61-59.07-15.2-4.72-7.12,21.7-9.47,29.33-.36-.21-.69-.42-1.04-.63.36-9.97-5.63-34.39-20.93-55.76-1.61-2.14-4.9.46-3.24,2.52,15.06,18.86,17.53,39.14,19.45,49.97-18.73-14.82-16.31-37.13-23.63-39.82-9.01-1.64-5.36,29.07-18.82,43.7-1.25-6.71-2.01-24.53,13.32-56.8,1.18-2.4-2.59-4.16-3.7-1.77-13.73,27.64-15.41,49.47-13.69,59.06-3.98-2.57-5.61-14.28-8.79-15.23-9.7-6.96-17.72,47.11-36.6,52.36,2.69-28.29,30.37-82.47,58.93-103.08,2.15-1.62-.45-4.89-2.51-3.25-28.57,20.57-56.17,73.62-60.22,103.44-11.66-43.64,25.48-99.06,56.98-110.24,8.8-8.34,6.11-12.07-3.8-8.12-4.73-9.27-3.65-16.57-.08-27.05,3.04,2.73,9.16,3.69,12.58.88,1.94,4.86,6.06,5.68,9.72,4.92-2.12,11.67-5.77,24.07-.36,31.28.16.03,55.08,11.43,70.03,53.59h0c5.4,17.74,7.28,32.16,3.54,43.27ZM71.44,247.94c1,.03,1.98-.22,3-.65-.7,1.99-1.3,4.02-1.82,6.05-.42-1.79-.81-3.58-1.18-5.39ZM79.7,144.66c7.83,1.64,14.55,2.52,22.67,3.41-2.55,9.26,2.3,18.64,10.53,22.58-7.76,5.42-11.82,12.71-13.57,20.55-5.27-1.41-9.06-5.75-9.37-11.78h0c-2.08-5.8-13.33,7.32-18.82-5.28,1.98-10.29,4.84-20.22,8.56-29.47ZM116.06,75.64c-2.86-3.06,17.34-13.05,17.4-13.08,8.29-2.66,29.44,2.87,34.97,6.96-10.21,2.69-19.75,6.46-28.87,11.13-6.46-1.9-14.03,4.07-23.51-5.01ZM161.16,48.49h0c9.2,3.45,21.24,8.45,29.45,17.09-5.95.58-11.66,1.5-17.16,2.73-6-6.01-32.68-13.26-41.97-14.21-41.26-1.31-10.56-24.48,29.67-5.61ZM233.57,102.86c.68-.95.8-1.82-.16-2.72-8.6-7.89-11.51-13.12.58-25.41,1.73-1.78-1.11-4.45-2.79-2.63-11.41,11.54-11.79,19.83-3.08,28.21-18.97-9.02-8.73-31.45,4.52-41.28,23.4,2.73,49.07,11.04,69.09,28.05-.03.02-.06.04-.09.05,0,0,0,0,0,0-20.91,12.9-32.01-13.04-47.11,16.69-6.18,3.48-14.32,1.66-20.98-.94,0,0,.01-.02.02-.03ZM216.47,95.74c2.34,3.03,5.89,5.94,10.04,8.33-6.27,7-6.02,18.79,1.44,25.44-4.27,2.49-10.56,8.03-9.54,14.29,1.9,9.56,8.53,17.71,10.98,15,2.1-3.6-11.38-11.47-6.04-20.2,1.41-2.3,4.11-4.65,8.75-7.01,4.18-3.87-5.54-4.09-6.43-15.05-.67-4.88,2.14-8.08,4.7-10.49,37.98,15.6,25.27-18.71,45.71-12.62,8.02,1.77,18.83,4.16,28.77-3.49,2.5,2.26,4.98,4.68,7.42,7.29-13.02,15.64-17.94,33.31,4.78,45.78,25.12,12.6-.97,34.82,29.41,31.04-.76,4.69-2.35,9.13-4.94,13.22h0c-6.26,4.67-12.92,8.18-20.16,10.75-6.98-.99-14.61-6.43-14.22-13.85-4.14-8.87-8.81,9,7.17,16-12.13,3.1-23.84,3.94-38.56,3.84-2.49-1.75-6.48-.32-9.27-.83-3.85-.71-7.47-1.72-10.94-2.95-18.92-17.63,14.64-61.96,1.87-54.64-9.51,17.44-16.31,37.14-8.42,52.04-27.72-17.84,2.44-59.13,22.08-78.7,4.11-3.92-2.12-10.22-6.1-6.23-8.45,7.56-16.26,17.11-22.37,27.29-5.24,8.73-9.23,17.93-11.3,26.71-1.76,1.06-7.35,18.37-12.01,25.48-6.95,12.58-22.66,34.12-34.57,26.58.02,3.06,48.53-51.12,31.28-44.03-6.82,13.83-25.33,33.39-32.73,39.92-1.51-5.51-2.96-11.37-8.57-10.84,10.02-10.06,24.55-22.39,37.34-31.26,7.06-18.97-61.27,47.93-57.03,46.4-6.95,3.85-12.37,3.94-11.2-4.56,7.62-12.75,19.75-28.52,32.73-38.46,9.93-7.71,21.12-13.08,33.04-13.31,9.67-2.29,2.81-11.72-6.77-8.8-4.67-5.13-16.33-12.97.29-24.67,1.28-.72,1.19-2.76-.16-3.36-21.32-15.31,2.3-25.71-3.07-28.98-12.39-8.83-12.15-11.51-2.84-27.55,3.95-.22,8-.31,12.19-.23,2.72.08,2.73-4.15.06-4.16-4.58-.09-9.01,0-13.32.27-3.16-5.57-25.63-21.31-31.12-24.79-.07-.03-22.69-11.37-4.68-15.61,29.34-6.64,39.76,35.7,66.9,33.69-10.68,10.13-18.31,25.06-10.58,37.31ZM346.97,168.93s-.09.06-.14.1c0,.07,0,.15,0,.22-2.39,1.82-6.7,2-10.12.54-6.26-2.34-.37-12.66-5.38-19.17-3.08-4.86-8.31-8.3-13.29-11.78-18.17-9.31-13.87-26.2-2.97-38.56.29.34.58.69.87,1.03h.01c16.19,19.65,31.24,43.88,31.01,67.63ZM135,193.49c-9.71-2.25-16.35-8.95-9.86-21.93.44-.8.17-1.74-.45-2.31,7.98-2.45,13.93-7.29,19.51-14.18.6.17,1.21.32,1.84.43-5.69,9.26-4.97,20.96,6.99,26.4-6.7,3.01-12.7,6.97-18.04,11.59ZM124.37,204.51c-5.93.93-13.38,1.52-13.15-12.59-.58-4.36-5.51.11-7.97-.37,2.2-8.33,6.79-14.61,14.83-19.27.83.15,1.67.23,2.54.27-4.3,10.28-1.12,20.27,11.05,23.97-2.6,2.52-5.04,5.19-7.3,7.98ZM70.72,244.08c-1.66-9.3-2.61-18.85-2.88-28.44,3.47,2.1,7.22,1.61,11.74-1.16.93,8.93-.1,18.22-2.94,26.73-1.19.93-4.22,3.39-5.92,2.87ZM68.82,189.79c.04-.42.06-.84.1-1.26,5.4,6.11,8.68,13.89,10.09,21.97-3.5,2.06-8.31,4.39-11.25.17-.02-6.99.34-13.98,1.06-20.87ZM84.26,220.03c3.86,2.46,9.42,3.13,13.24.68.91,4.13,3.03,6.5,5.6,7.69,1.18,3.27,1.96,5.86,3.16,8.14-1.56,4.07-2.87,8.08-3.96,11.96-4.03,2.13-6.4,1-8.84-4.99-4.34-1.45-7.99,7.3-13.31-1.06,2.06-7.43,3.96-15.24,4.1-22.42ZM102.56,195.46c1.65-.01,3.3-.29,4.9-.88-.06,7.32,4.83,14.77,13.75,14.15-3.61,5.2-6.69,10.69-9.31,16.22-1.78.62-3.75.88-5.41.52-3-9.14-5.37-20.42-3.98-30.01.02,0,.04,0,.06,0ZM108.8,231.99s0,.02-.01.03c-.33-.87-.64-1.74-.96-2.62.71,0,1.41-.04,2.11-.13-.39.91-.78,1.82-1.14,2.72ZM106.59,146.36c8.48-1.12,16.29-4.01,22.43-9.05.78,6.81,4.89,12.93,11.15,16.19-7.59,9.48-14.46,10.77-23.09,14.61-9.32-2.65-13.61-11.64-10.5-21.74ZM118.34,98.51c.04-.21.07-.42.11-.63,12.11-7.89,24.79-15.12,38.33-20.34,0,.02,0,.03,0,.05,0,0,0,0,.01,0,.64,13.88-16.63,18.07-18.73,30.87-.29,5.87-1.62,11.05-3.83,15.46-13.9-2.94-20.43-5.91-15.89-25.39ZM192.71,69.56c-9.51,13.45-7.92,21.78,3.37,29.17-8.53,7.87-7.05,22.57,2.66,28.92-8.9,6.43-10.7,16.36-2.53,25.37-6.39-6.45-15.18-11.51-24.23-13.26,3.5-5.32-6-2.72-9.61-13.59-3.88-8.27,7.59-14.74,3.95-17.98-16.73-9.74-10.17-11.49-5.5-27.04.21-1.53.26-3.23.06-5.03,9.87-3.32,20.38-5.57,31.82-6.55ZM157.69,179.8c-26.51-10.66,3.12-27.72-11.01-28.05,4.32-5.32,10.34-8.08,16.91-8.49-6.38,10.06,1.92,20.02,9.42,24.34-5.55,3.45-9.53,9.16-15.04,12.31-.09-.04-.18-.07-.27-.11ZM132.86,133.63c12.12-12.34,4.01-26.25,19.01-37.8-.15,6.19,3.49,10.71,10.71,14.55-7.57,8.41-4.97,22.63,5.22,28.09-.26.23-.49.45-.73.68-8.99-.67-18.82,3.17-24.28,11.33-6.67-2.94-10.59-9.71-9.93-16.85ZM193.75,156.32c-7.3,2.7-11.78,5.09-17.6,9.05-14.02-9.44-12.74-17.14-7.5-21.97,9.54,1.18,18.43,5.97,25.03,12.87,0,0,0,0,0,0,.03.02.06.03.08.04ZM197.21,155.17c.06-.41,0-.83-.2-1.21.31.35.61.68.92,1-.24.07-.48.14-.72.21ZM90.21,124.08c5.68-9.68,15.06-16.05,23.65-22.98-2.95,15.68,2.62,23.47,16.78,25.82-4.61,14.66-23.55,16.71-37.17,15.57-5.11-1.93-6.28-6.94-6.29-14.11.98-1.47,1.99-2.91,3.03-4.32ZM83.9,135.28c.57,2.53,1.47,4.62,2.71,6.34-1.77-.29-3.5-.62-5.21-.99,0,0,0,0,0,0-.32-.07-.64-.14-.96-.21,1.01-2.16,2.09-4.26,3.23-6.29.07.39.15.78.23,1.15ZM86.54,182.06c.7,6.34,6.04,11.42,12.11,12.92-.95,7.15-.23,14.57,1.15,21.3-1.1-1.06-2.03-.26-3.53.66-6.23,4.16-13.37-.68-13.08-6.25-1.76-10.85-6.34-20.66-13.59-27.3.18-1.29.37-2.57.58-3.85,4.02,4.57,9.24,5.16,16.37,2.51Z" fill="#2e0700"/><path d="M289.59,162.04c10.68,7.91,22.88-9.06,11.97-16.66-10.67-7.91-22.87,9.06-11.97,16.66Z" fill="#2e0700"/><path d="M252.32,104.77c.77-.26,1.51-.57,2.21-.94,12.61-28.94,27.45-4.37,47.2-16.75-20.03-16.97-45.82-25.28-69.09-28.05-12.72,9.45-23.65,31.92-4.83,40.99-8.43-8.35-7.86-16.5,3.39-27.91,1.68-1.82,4.52.84,2.79,2.63-12.09,12.29-9.15,17.54-.58,25.41.97.91.84,1.8.14,2.75,6.06,2.42,12.68,3.81,18.77,1.88Z" fill="#d35a78"/><path d="M315.94,101.3c-.29-.35-.58-.69-.87-1.03-10.91,12.38-15.18,29.26,2.97,38.56,6.41,3.42,11.4,8.06,13.29,11.78,5.08,6.87-.99,15.76,5.37,19.17,3.08,1.29,7.55,1.23,10.12-.54.36-22.73-14.54-48.72-30.87-67.96h-.01Z" fill="#595757"/><path d="M107.83,229.4s0,0,0,0c.31.88.63,1.75.96,2.62.37-.91.76-1.83,1.15-2.75-.7.09-1.4.13-2.11.13Z" fill="#d35a78"/><path d="M122.42,191.19c-5.56-5.12-3.37-14.14-1.8-18.63-.83-.03-1.64-.12-2.43-.25-8.06,4.67-12.76,10.87-14.94,19.25,2.45.48,7.39-3.98,7.97.37-.24,14.06,7.19,13.52,13.08,12.6,2.2-2.82,4.58-5.53,7.15-8.08-2.99-1.17-6.21-2.94-9.03-5.26Z" fill="#d35a78"/><path d="M167.42,172.01c1.8-1.51,3.66-2.99,5.59-4.41-7.49-4.32-15.8-14.29-9.42-24.34-6.34.4-12.83,3.13-16.59,8.56,13.37.41-15.62,17.48,10.69,27.98,3.93-1.29,6.16-5.32,9.73-7.79Z" fill="#d35a78"/><path d="M144.96,175.36c-5.06-6.26-1.25-15.46,1.09-19.86-.6-.11-1.18-.25-1.75-.41-5.69,6.57-11.74,12.13-19.59,14.18.6.57.87,1.5.43,2.29-6.41,12.84,0,19.52,9.54,21.86,5.26-4.66,11.26-8.66,18.08-11.67-2.69-1.5-5.52-3.56-7.8-6.39Z" fill="#d35a78"/><path d="M190.39,153.22c-6.1-5.13-13.76-8.87-21.74-9.82-5.24,4.83-6.52,12.52,7.5,21.97,5.38-3.69,11.44-7.02,17.52-9.09-1.03-1.07-2.13-2.09-3.29-3.06Z" fill="#d35a78"/><path d="M103.47,214.17c.78,3.83,1.83,7.64,3.02,11.3,1.65.35,3.63.09,5.4-.53,2.62-5.53,5.7-11.02,9.31-16.22-8.91.63-13.81-6.85-13.75-14.15-1.62.6-3.29.88-4.96.88-.84,6.01-.3,12.41.97,18.71Z" fill="#d35a78"/><path d="M93.36,142.45c13.51.78,32.73-.62,37.28-15.53-14.16-2.36-19.73-10.15-16.78-25.82-10.33,7.56-19.59,16.55-26.68,27.29.01,7.11,1.17,12.11,6.18,14.06Z" fill="#e8c86a"/><path d="M126.31,121.72c4.88,1.71,6.83,1.65,7.78,2.11,2.29-4.75,3.67-10.08,3.97-15.38,2.06-12.79,19.43-17.01,18.72-30.91-13.21,5.8-26.35,12.24-38.33,20.34-2.46,13.62-2.97,20.75,7.86,23.84Z" fill="#e8c86a"/><path d="M80.44,140.42c2.05.46,4.06.87,6.17,1.21-1.43-1.93-2.48-4.73-2.94-7.5-1.14,2.03-2.23,4.12-3.23,6.29Z" fill="#e8c86a"/><path d="M71.03,212.99c1.42,1.06,6.58-1.73,7.97-2.5-1.41-8.06-4.69-15.84-10.09-21.97-.67,7.68-.98,15.34-.89,22.41,1.11,1.11,2.1,1.75,3.01,2.05Z" fill="#595757"/><path d="M76.63,241.22c2.84-8.52,3.88-17.79,2.95-26.73-4.39,2.71-8.07,3.2-11.45,1.34.34,10.5,1.39,20.02,2.82,28.28,1.56.39,4.6-2.03,5.69-2.89Z" fill="#595757"/><path d="M72.87,252.36c.46-1.7.98-3.4,1.56-5.08-.94.41-1.87.64-2.79.66.34,1.74.69,3.43,1.06,5.04.05-.2.12-.42.17-.62Z" fill="#595757"/><path d="M256.57,256.07c2.65,4.57,7.63,9.12,13.39,12.59-5.73-3.47-10.73-8.01-13.39-12.59Z" fill="#fff"/><path d="M418.99,247.08c-.03-.49-.11-.96-.21-1.41.1.44.17.91.21,1.41Z" fill="#fff"/><path d="M432.52,257.36s0,0,0,0c-.91,2.22-2.04,4.4-3.36,6.49,1.32-2.09,2.45-4.26,3.36-6.49Z" fill="#fff"/><path d="M296.65,272.64c-.7.47-1.47.84-2.27,1.15.84-.3,1.64-.67,2.39-1.13,1.49-4.98,1.91-9.55,1.37-13.64.41,4.15-.11,8.74-1.49,13.62Z" fill="#fff"/><path d="M418.2,244.01s.03.04.04.07c-.01-.02-.02-.05-.03-.07,0,0,0,0,0,0Z" fill="#fff"/><path d="M419,247.08c-.39,5.39-3.05,10.31-7.22,14.62,4.44-4.3,7.3-9.21,7.22-14.62Z" fill="#fff"/><path d="M202.54,315.29c3.55,6.13,7.17,12.71,11.72,18.37,8.03,4.87,40.01,9.29,46.15-10.33,3.67-8.14,5.14-17.84,5.52-28.69-.03-4.75,7.49-4.7,7.36.09.2,6-.3,11.71-1.4,17.01,10.93-11.34,18.85-23.09,23.13-34.2-9.03,2.97-20.75-.97-30.88-8.17-20.46-13.98-5.18-21.83-29-33.32-15.03,1.27-27.86,5.15-39.63,12.88h0c-11.44,15.86-7.15,38.36,4.12,60.84,6.74,3.78,16.91,1.92,21.61-4.48.67-.91,1.95-1.11,2.86-.44.91.67,1.11,1.95.44,2.86-4.66,6.52-14.16,9.41-22.01,7.58ZM245.86,277.21c10.43,8.23-2.76,24.45-12.94,15.91-10.43-8.23,2.76-24.45,12.94-15.91Z" fill="#fff"/><path d="M297.55,256.02c-1.19-4.17-3.36-8.14-6.83-10.75,3,2.77,5.35,6.29,6.83,10.75Z" fill="#fff"/><path d="M294.38,338.55c13.91-1.23,21.13-13.51,14.95-26.92,7.26-9.27,23.89,3.19,17.94-28.65-.59-2.84,3.84-3.67,4.36-.85,4.36,19.97-1.19,28.44-17.12,30.98,5.18,12.54-2.82,26.98-16.58,29.4,1.25,2.16,2.11,4.21,2.66,6.14,14.69,2.28,31.01.85,47.37-3.58-10.66-7.75,2.01-3.93,5.9-17.17,3.04-10.4-9.5-15.11-5.09-18.25-.19.11,10.66-6.99,10.02-10.59,1.83-6.7-9.58-17.29-5.15-18.64-4.58-.44-8.74-1.41-12.17-2.97,22.88-5.51,59.5-4.74,70.18-29.82h0c-3.23-5.21-15.78,2.06-21.83,3.94-9.76,3.24-13.12,8.77-17.63,5.19-5.36,2.16-9.88,3.77-9.61,3.75-5.53,1.32-13.41,6.44-14.78,2.83-.26-.9.18-1.84.99-2.24,6.19-1.86,14.32-4.68,22.89-8.35-1.71-.6,29.06-14.98,17.53-19.99-23.01-4.53-51.82,34.6-79.82,27.41-.89-1.2-.77-2.75-.05-3.94-1.09-.63-2.17-1.28-3.25-1.92,4.31,22.9-16.1,57.88-40.67,74.68-.42.72-.85,1.42-1.3,2.1,8.44,8.46,19.1,13.84,31.06,16.54-1.99-4.63-4.49-8.26-.79-9.08Z" fill="#fff"/><path d="M242.35,235.65c.09.06.19.11.28.17-.09-.06-.18-.11-.27-.17,0,0,0,0-.01,0Z" fill="#fff"/><path d="M435.89,232.85c.5-5.54.12-10.19-.71-13.69.69,3.96.84,8.98.71,13.69Z" fill="#fff"/><path d="M385.14,281.77s0,0,0,0c-.13-.03-.25-.06-.38-.09.13.03.26.07.39.1Z" fill="#fff"/><path d="M433.73,253.98s0,0,0,0c1.11-3.64,1.64-7.33,1.46-10.9.18,3.56-.34,7.26-1.46,10.9Z" fill="#fff"/><path d="M381.33,277.73c-1.52.4-3.04.76-4.57,1.08.06.03.12.05.18.08,1.4-.32,2.88-.71,4.4-1.16,0,0,0,0,0,0Z" fill="#fff"/><path d="M523.07,63.08c-.03-.08-.07-.15-.11-.22-5.82,29.53-36.53,80.85-66.27,99.67-2.16,1.51-4.56-1.91-2.32-3.4,29.71-18.81,60.64-71.37,64.97-99.38-19.15,4.11-30.39,57.62-39.65,50.08-3.12-1.14-4.05-12.93-7.87-15.73,1.15,9.67-1.82,31.36-17.18,58.14-1.25,2.33-4.92.34-3.59-1.99,17.23-31.3,17.53-49.13,16.68-55.9-10.19,10.08-16.09,38.94-16.11,39.02-.89,5.07-8.77,4.39-8.86-.68-.34-2.68-3.4-23.57-17.63-36.88,1.26,10.96,2.56,31.27,16.42,50.92,1.54,2.16-1.9,4.55-3.38,2.32-14-22.25-18.52-46.98-17.57-56.91-.33-.23-.66-.47-1-.69-1.69,5.85.17,21.01-2.72,26.22-13.28,19.54-33.43-51.33-34.57-51.27-1.47-4.12-2.68-6.78-3.93-7.34-4.22,45.4,29.88,85.83,64.25,96.9,2.5.82,1.15,4.81-1.36,3.87-34.24-11.04-68.18-50-67.34-94.66-3.31,9.5-4.16,25.81.95,43.69h0c12.41,42.98,66.55,57.62,66.71,57.67,4.03,2.08,2.41,21.45-6.42,42.9.76,1.34,1.47,2.88,2.09,4.6,1.75,1.27,3.08,3.35,4.14,6.24,4.4-3.31,11.63-1.72,15.04,2.71,4.02-25.33,4.77-38.42,4.77-44.65-12.68,4.02-6.87-7.63,2.1-10.48,29.59-9.19,68.58-62.89,59.75-104.76Z" fill="#fff"/><path d="M436.89,257.2c-3.93,11.31-12.93,20.39-23.88,25.38-.17.47-.34.95-.53,1.43,7.02,1.01,12.44,5.89,14.72,12.09,7.62-8.73,13.94-18.24,18.5-28.33.09-3.05-4.14-10.47-8.82-10.58Z" fill="#fff"/><path d="M439.78,222.2s-.29-.71-.77-1.72c1.82,9.06.72,23.54-1.28,34,4.34,1.2,8.18,4.45,9.94,8.68,4.61-11.21,6.09-24.94,8.16-36.29-5.92-12.81-15.31-1.11-16.04-4.67Z" fill="#fff"/><path d="M424.18,299.44c-1.35-6.4-6.85-11.44-15.1-12.21-1.21-1.21-1.3-1.56-.87-2.78-5.06,1.67-10.4,2.49-15.78,2.3,1.59,5.6-.57,10.9-6.03,16.65,7.17,4.01,10.35,12.59,8.68,20.34,10.7-6.99,20.6-15.17,29.11-24.3Z" fill="#fff"/><path d="M391.84,318.73c.28-10.79-13.08-12.2-9.61-16.33,1.14-1.21,10.15-11.24,5.98-16-5.93-.82-11.94-2.89-17.34-6.55-5.35.77-10.61,1.02-15.45.71,10.64,14.1,9.3,23.89-2.89,31.14,8.32,8.07,6.66,22.89-3.5,29.16.91.79,2,1.82,3.07,3.03,9.63-3.95,41.93-12.02,39.74-25.16Z" fill="#fff"/><path d="M457.92,225.71c1.68-1.49,3.3-2.34,4.83-2.74,2.66-9.36,4.45-18.72,3.19-28.02-.13-.76.22-1.48.81-1.89-1.08-5.2-2.38-10.29-3.93-15.22-.56.19-1.1.35-1.61.49,0,6.22-.75,19.32-4.77,44.65.63.82,1.15,1.74,1.48,2.74Z" fill="#c8c9c9"/><path d="M462.01,287.45c.04-.14.09-.27.13-.41-2.6-4.36-4.35-8.41-5.36-12.4.86,4.31,2.52,8.59,5.23,12.81Z" fill="#c8c9c9"/><path d="M365.63,342.56c5.34-5.42,12.21-8.32,19.72-9.84.38-1.35,2.41-2.84,4.11-5.46-11.89,7.12-24.59,12.77-37.36,16.63,1.88,2.12,3.68,4.8,4.4,7.74,2.62-3.23,5.66-6.32,9.12-9.08Z" fill="#c8c9c9"/><path d="M466.38,225.02s-.07-.02-.11-.03c-1.88,6.57-4.25,13.14-6.23,19.68,2.42-6.85,4.91-14.05,6.34-19.65Z" fill="#c8c9c9"/><path d="M467.83,218.97c-.3,1.33-.64,2.67-1,4,.02,0,.05.01.07.02.34-1.35.64-2.69.93-4.02Z" fill="#c8c9c9"/><path d="M399.17,358.97c6.12-2.37,11.7-6.06,17.39-9.46-5.68,3.36-11.49,6.57-17.44,9.47.01,0,.04-.01.05-.01Z" fill="#c8c9c9"/><path d="M214.26,333.66c11.78,8.31,27.28,9.44,37.57,1.05-17.18,5.26-29.4,2.95-37.57-1.05Z" fill="#c8c9c9"/><path d="M436.4,334.75c-.18.02-.36.04-.54.06.07,0,.15-.01.22-.02-3.15,3.22-6.32,6.05-9.42,8.54.34-.03.68-.01,1,.06,3.08-2.65,5.99-5.54,8.74-8.64Z" fill="#c8c9c9"/><path d="M391.13,362.84c.13-.08.27-.16.4-.25-.02-.03-.04-.06-.06-.09-4.84,2.09-9.77,3.94-14.8,5.49,4.9-1.45,9.72-3.18,14.46-5.15Z" fill="#c8c9c9"/><path d="M397.96,367.91c-22.83,10.26-47.62,15.14-74.21,11.29-4.72-.6-3.74-8.03,1.02-7.31,7.03,1.02,13.92,1.39,20.67,1.18.18-.73.39-1.47.62-2.22-1.6.89-2.91.96-3.54-.07-.98-2.29,4.17-5.31,7.6-9.54,3.64-5.45,4.66-9.54-2.15-16.17-16.36,4.44-32.68,5.87-47.37,3.58,4.12,14.52-9.9,22.74-20.21,24.56-2.85.55-3.6-3.96-.76-4.39,20.32-5.44,18.47-14.4,15.54-21.2-11.96-2.7-22.61-8.08-31.06-16.54-8.78,13.36-23.05,20.13-39.33,15.62,29.45,31.08,64.87,35.5,84.52,38.87,21.37,4.88,30.75,41.26,57.38,36.44-11.28-6.59-27.13-19.11-34.92-31.89-1.33-2.08,1.96-4.17,3.26-2.02,9.94,15.99,27.51,27.09,37.01,32.25,7.84-4.56-8.83-14.2-8.89-14.24-2.13-1.25-19.23-14.68-17.98-16.81,1.18-2.01,20.06,7.94,22.13,8.91h0c39.12,21.25,71.02-.1,29.95-3.84-2.07-.13-15.97-3.67-20.29-6.26-3.87-.84-7.8-1.78-11.56-2.78-2.39-.64-1.36-4.4,1.04-3.69,9.25,2.7,21.99,5.3,29.35,4.17.06-.03,20.83-8.79,18.15-12.01-5.8-6.27-11.18-6.13-15.97-5.89Z" fill="#c8c9c9"/><path d="M365.65,347.49c-7.15,5.97-12.43,14.32-15.47,23.2,3.23-8.97,8.52-17.01,15.47-23.2Z" fill="#c8c9c9"/><path d="M447.66,263.15c.58,1.39.94,2.87,1.01,4.42,1.25-.59,2.43-.99,3.55-1.25.15-13.29,5.58-26.82,9.67-40.38-3.11,1.96-5.1,4.29-6.07.92-2.06,11.35-3.55,25.08-8.16,36.29Z" fill="#c8c9c9"/><path d="M439.63,329.97c1.24-7.15,2.26-16.76-15.2-16.74-4.92.07,2.02-9.21-.24-13.79-8.5,9.12-18.4,17.31-29.11,24.3-.63,2.91-1.94,5.7-3.99,8.08,17.37-1.99,36.84,1.54,48.54-1.85Z" fill="#c8c9c9"/><path d="M425.9,335.22c-9.35.24-20.6-1.69-29.77-.36,9.76-.39,20.3.41,29.77.36Z" fill="#c8c9c9"/><path d="M468.01,261.93c1.79-11.1,2.63-22.49,2.49-33.79-.1-.13-.2-.26-.29-.38.11,10.43-.53,22.15-2.2,34.17Z" fill="#c8c9c9"/><path d="M427.14,309.45c8.01-.02,17.61,5.1,16.87,15.59,6.78-9.75,12.28-20.97,16.49-33.06-5.43-7.33-7.76-14.79-8.2-22.32-4.51,1.45-6.82,2.86-6.59-1.89-4.56,10.09-10.89,19.6-18.5,28.33,1.51,4.12,1.65,8.82-.06,13.35Z" fill="#c8c9c9"/><path d="M470.15,224.61c.09.07.19.14.28.21-.15-5.07-.5-10.11-1.05-15.1-.25,1.78-.51,3.5-.72,5.05.22-1.23.43-2.47.63-3.74.43,4.13.72,8.69.85,13.58Z" fill="#c8c9c9"/><path d="M524.45,51.86c-22.71-6.35-32.4,29.58-41.82,42.98-12.33-28.11-30.62,2.42-35.22,20.01-7.23-22.42-40.51-57.53-37.74-6.66-11.87-18.56-17.24-52.46-28.39-57.89-21.87-4.07-21.45,39.01-14.96,61.04h0c11.69,40.5,55.77,58.12,69.07,62.59-1.08,9.41-3.68,19.6-7.71,29.59-.84.44-1.33,1.54-1.02,2.45-5.37,12.53-13,24.61-22.69,34.28-2.03.31-4.15.78-6.28,1.35,4.13-5.56,4.51-11.45-5.67-15.66-18.25-7.29-48.26,21.21-70.04,27.41-8.21-3.51-17.16-9.98-25.38-15.22-28.81-19.04-81.66-13.45-106.13,3.45h0c-22.23,24.54-6.39,66.28,18.31,100.04h-.02c31.1,41.98,76.36,49.17,96.19,52.32,22.52,4.69,29.55,43.1,63.48,36.88,19.12-3.32,20.93-10.18,17.11-16.74,33.03,11.54,58.63-18.14,25.76-26.46,13.15-7.76,15.92-18.5,2.44-25.3,59.73-23.27,79.57-132.18,56.48-187.77,19.42-10.18,46.07-28.34,58.44-72.49,5.42-26.11,9.09-40.72-4.2-50.19ZM395.78,385.82c-7.4,1.13-20.07-1.48-29.35-4.17-2.4-.71-3.43,3.06-1.04,3.69,8.59,1.53,24.84,8.3,31.86,9.05.07,0,24.48,1.43,17.83,9.33-10.28,12.22-47.68-5.45-47.79-5.5h0c-2.07-.96-20.95-10.92-22.13-8.9-1.25,2.13,15.85,15.56,17.98,16.81.06.03,16.73,9.68,8.89,14.24-9.5-5.16-27.07-16.26-37.01-32.25-1.3-2.14-4.59-.06-3.26,2.02,7.79,12.78,23.65,25.3,34.92,31.89-26.62,4.82-36.01-31.56-57.38-36.44-19.65-3.37-55.07-7.79-84.52-38.87,17.1,4.82,32.23-3.22,40.63-17.73,24.57-16.82,44.98-51.78,40.67-74.68,1.08.64,2.16,1.29,3.25,1.92-.72,1.19-.85,2.74.05,3.94,28,7.19,56.82-31.94,79.82-27.41,10.78,4.46-15.86,18.31-15.94,18.35-.72.38-1.26.96-1.59,1.64-8.57,3.67-16.7,6.48-22.89,8.35-.81.4-1.25,1.34-.99,2.24,1.37,3.61,9.26-1.51,14.78-2.83-.27.02,4.25-1.59,9.61-3.75,4.46,3.59,7.91-1.95,17.63-5.18,5.84-1.86,18.89-9.15,21.83-3.94h0c-10.69,25.09-47.29,24.31-70.18,29.82,3.43,1.56,7.59,2.54,12.17,2.97-4.43,1.28,7,12.03,5.15,18.64.64,3.6-10.21,10.7-10.02,10.59-4.41,3.14,8.13,7.85,5.09,18.25-2.85,11.13-12.99,9.76-9.27,14.36,7.8,5.27,10.94,12.88,5.52,18.98-3.43,4.23-8.58,7.26-7.6,9.54.63,1.04,1.94.96,3.54.07-.23.76-.44,1.5-.62,2.22-6.75.2-13.64-.17-20.67-1.18-4.76-.72-5.74,6.71-1.02,7.31,26.59,3.85,51.39-1.03,74.21-11.29,4.79-.24,10.17-.38,15.97,5.89,2.68,3.23-18.09,11.99-18.15,12.02ZM224.11,304.85c-.91-.67-2.2-.47-2.86.44-4.7,6.41-14.87,8.26-21.61,4.48-11.26-22.48-15.55-44.98-4.12-60.83h0c11.77-7.73,24.6-11.62,39.63-12.88,23.82,11.5,8.54,19.34,29,33.32,10.13,7.21,21.85,11.15,30.88,8.17-4.27,11.11-12.2,22.86-23.13,34.2,1.1-5.31,1.6-11.02,1.4-17.01.13-4.79-7.39-4.84-7.36-.09-.35,10.44-1.8,20.12-5.17,27.88-7.18,18.85-30.03,23.21-46.5,11.13-4.55-5.66-8.17-12.24-11.72-18.37,7.85,1.83,17.34-1.07,22.01-7.58.67-.91.47-2.2-.44-2.86ZM261.67,235.62c21.41.06,43.43,13.25,35.1,37.05-12.78,6.97-33.31-5.39-40.2-16.59-3.12-8.44-5.37-16.09-14.23-20.42,0,0,0,0,.01,0,0,0,0,0-.01,0,5.93-.23,12.65-.43,19.33-.03ZM456.27,227.9c1.07,1.92,3.03-.45,5.61-1.96-4.09,13.55-9.51,27.08-9.67,40.38-1.12.26-2.3.67-3.55,1.25-.26-6.18-5.15-11.52-10.95-13.1,2-10.46,3.1-24.93,1.28-34,.48,1.02.78,1.76.77,1.72.51,3.07,11.86-7.94,16.5,5.7ZM467.83,218.97c.71-3.12,1.09-5.95,1.55-9.25.55,4.99.9,10.03,1.05,15.1-1.07-.83-2.27-1.5-3.61-1.85.36-1.33.7-2.67,1-4ZM468.01,261.93c-.55,3.95-1.21,7.92-1.99,11.9-1.92-4.1-5.42-7.65-10.33-7.84-.09-12.34,7.09-28.2,10.58-40.99,1.34.26,2.98,1.43,4.24,3.14.14,11.31-.7,22.69-2.49,33.79ZM427.65,343.39c-.32-.08-.66-.09-1-.06-9.66,5.91-19.25,12.33-29.69,16.7,5.06-7.27,7.82-18.34-1.93-25.09,13.15-1.63,28.19,1.48,41.36-.18-2.75,3.1-5.67,6-8.74,8.64ZM349.44,372.89c5.47-18.34,20.19-33.1,39.3-37.06,12.69,5.28,10.32,16.13,3.03,24.53-.69.72-.65,1.58-.23,2.24-13.38,5.76-27.34,9.52-42.1,10.3ZM349.04,340.86c10.16-6.27,11.82-21.09,3.5-29.16,12.19-7.24,13.53-17.03,2.89-31.14,4.84.31,10.1.05,15.45-.71,5.4,3.66,11.4,5.73,17.34,6.55,4.19,4.7-4.88,14.86-5.98,16-3.77,5.74,21.41,8.36,3.12,30.32-11.97,1.9-21.4,10.03-28.84,18.91-1.08-4.32-4.38-8.06-7.47-10.77ZM432.81,214.84c.45,0,.84.05,1.24.1,3.56,11.43,1.96,27.04-.32,39.04,0,0,0,0,0,0-1.2.03-2.39.22-3.56.62-.53-9.06-4.41-13.49-13.64-13.73,6.48-8.17,11.55-17.22,15.49-26.02.28-.02.54-.02.79-.02ZM445.8,269.69c.43,2.54,3.17.98,6.5-.03.44,7.54,2.77,14.99,8.2,22.32-4.2,12.09-9.71,23.31-16.49,33.06.74-10.49-8.87-15.62-16.87-15.59,4.23-11.06-2.76-23.73-14.66-25.45.19-.48.37-.96.53-1.43,10.95-4.99,19.94-14.07,23.88-25.38,5.57.42,9.46,8.64,8.91,12.49ZM395.08,323.74c1.67-7.74-1.51-16.32-8.68-20.34,5.46-5.75,7.62-11.05,6.03-16.65,5.38.19,10.72-.63,15.78-2.3-.43,1.22-.35,1.57.87,2.78,12.75,1.17,18.79,12.53,13.52,23.13-1.67,7.43,21.81-3.57,17.02,19.61-11.7,3.4-31.17-.14-48.54,1.85,2.05-2.39,3.36-5.17,3.99-8.08ZM376.75,278.82c1.53-.32,3.06-.68,4.57-1.08,1.52,1.45,2.78,2.79,3.81,4.03-2.84-.66-5.6-1.6-8.23-2.86,0,0,0,0,.01,0-.06-.03-.12-.05-.18-.08ZM418.99,247.08c-.1-1.09-.31-2.11-.8-3.07,8.39-.18,8.73,8.25,9.21,12.41.31,2.07,2.38,1.4,5.11.95-3.56,8.63-10.09,16.17-18.27,20.75,1.1-5.83-.31-10.45-4.75-14.23,5.1-4.41,9.13-10.47,9.5-16.8h0ZM390.6,282.63h0c-1.18-1.99-2.82-4.03-4.93-6.16,7.74-2.45,15.01-5.89,20.79-10.15,4.71,2.78,5.04,8.14,3.13,13.97-6.01,2.25-12.61,2.85-18.99,2.35ZM462.71,287.98c-.2-.32-.38-.63-.57-.94-.04.14-.09.27-.13.41-3.84-5.99-5.45-11.87-6.19-18.45,7.21-.81,10.65,11.61,6.89,18.98ZM463.32,167.84c-10.63,3.91-14.18,15.05-.49,9.99,1.55,4.94,2.86,10.03,3.93,15.22-.6.41-.94,1.13-.81,1.89,1.26,9.3-.53,18.67-3.19,28.02-1.53.4-3.15,1.25-4.83,2.74-2.1-6.39-11.28-9.4-16.52-5.46-1.06-2.89-2.4-4.97-4.14-6.24-.62-1.72-1.32-3.26-2.09-4.6,8.83-21.44,10.45-40.82,6.42-42.9-.16-.04-54.3-14.69-66.71-57.67h0c-5.11-17.87-4.25-34.19-.95-43.68-.83,44.65,33.1,83.62,67.34,94.66,2.51.94,3.86-3.04,1.36-3.87-34.37-11.07-68.47-51.5-64.25-96.9,1.25.56,2.46,3.22,3.93,7.34,1.14-.06,21.29,70.81,34.57,51.27,2.9-5.2,1.03-20.37,2.72-26.22.34.22.67.46,1,.69-.95,9.93,3.56,34.67,17.57,56.91,1.48,2.23,4.92-.17,3.38-2.32-13.86-19.65-15.15-39.96-16.42-50.92,14.24,13.3,17.29,34.2,17.63,36.88.09,5.07,7.97,5.74,8.86.68.02-.08,5.91-28.94,16.11-39.02.85,6.78.55,24.61-16.68,55.9-1.33,2.32,2.34,4.31,3.59,1.99,15.36-26.77,18.33-48.47,17.18-58.14,3.82,2.8,4.75,14.59,7.87,15.73,9.26,7.52,20.5-45.97,39.65-50.08-4.37,28.08-35.23,80.52-64.97,99.38-2.24,1.49.16,4.9,2.32,3.4,29.74-18.82,60.45-70.14,66.27-99.67,9.21,41.84-30.08,95.81-59.65,104.98Z" fill="#2e0700"/><path d="M232.92,293.13c10.19,8.53,23.37-7.68,12.94-15.91-10.18-8.54-23.37,7.68-12.94,15.91Z" fill="#2e0700"/><path d="M314.51,313.11c15.93-2.54,21.47-11.01,17.12-30.98-.53-2.81-4.95-1.99-4.36.86,2.03,10.37,1.4,16.13-.54,19.46-2.96,6.56-17.5,4.7-17.4,9.19,6.18,13.41-1.04,25.69-14.95,26.92-3.69.82-1.2,4.45.79,9.08,2.92,6.8,4.78,15.76-15.54,21.2-10.92,11.14,34.65-.89,18.31-26.32,13.75-2.42,21.76-16.86,16.58-29.4Z" fill="#2e0700"/><path d="M435.86,334.81c-13.16,1.2-27.32-.62-40.82.12,9.75,6.76,6.99,17.82,1.93,25.09,13.94-7.18,28.08-13.66,39.11-25.23-.07,0-.15.01-.22.02Z" fill="#e9a5b4"/><path d="M391.48,362.5c-.36-.65-.38-1.46.29-2.15,7.29-8.39,9.66-19.24-3.03-24.53-19.19,3.92-33.5,18.78-39.3,37.06,14.78-.7,28.65-4.62,42.04-10.38Z" fill="#e9a5b4"/><path d="M394.01,282.81c5.27,0,10.64-.64,15.58-2.53,1.91-5.82,1.58-11.18-3.13-13.97-5.77,4.26-13.05,7.71-20.79,10.15,2.11,2.13,3.75,4.17,4.93,6.16h0c1.13.11,2.27.16,3.41.18Z" fill="#595757"/><path d="M411.79,261.69c-.72.74-1.48,1.47-2.29,2.18,4.43,3.78,5.84,8.4,4.75,14.23,8.18-4.57,14.71-12.11,18.27-20.75-2.73.45-4.79,1.12-5.11-.95-.41-4.08-.96-12.68-9.21-12.4.47.95.71,1.98.79,3.07h0c.09,5.41-2.78,10.32-7.22,14.62Z" fill="#595757"/><path d="M416.6,240.88c9.21.27,13.02,4.69,13.57,13.72,1.17-.4,2.36-.58,3.56-.62,2.36-12.2,3.62-26.93.32-39.04-.65-.1-1.34-.13-2.04-.09-3.94,8.8-9.01,17.85-15.49,26.02.02,0,.05,0,.07,0Z" fill="#595757"/><path d="M377.65,279.24c2.39,1.11,4.91,1.93,7.48,2.52-1.03-1.24-2.29-2.58-3.8-4.02-1.53.45-3.02.84-4.42,1.16.24.12.49.22.74.34Z" fill="#595757"/><path d="M470.15,224.61c-.13-4.88-.42-9.45-.85-13.58-.63,4.05-1.41,7.98-2.4,11.96,1.19.32,2.28.9,3.25,1.62Z" fill="#d35a78"/><path d="M456.08,269c-.09,0-.17,0-.26,0,.61,6.84,2.99,12.59,6.89,18.98,3.74-7.25.36-19.6-6.62-18.98Z" fill="#d35a78"/><path d="M470.21,227.75c-1.34-1.63-2.62-2.44-3.83-2.73-2.84,11.61-11.1,29.18-10.68,40.96,4.91.19,8.41,3.74,10.33,7.84,2.98-14.93,4.38-32.13,4.19-46.07Z" fill="#d35a78"/><path d="M242.36,235.65c8.86,4.36,11.09,11.96,14.21,20.42,6.87,11.11,27.39,23.63,40.08,16.57,10.8-33.9-30.06-39.5-54.3-37,0,0,0,0,.01,0Z" fill="#d35a78"/></svg>