<?xml version="1.0" encoding="UTF-8"?><svg xmlns="http://www.w3.org/2000/svg" viewBox="0 0 178.62 181.38"><g isolation="isolate"><g id="a"><path d="M46.17,174.88c-7.38,0-13.9-3.35-17.02-8.75-.35-.61-.72-1.36-1.05-2.23-.92.15-1.74.21-2.45.21h0c-5.64,0-11.25-3.25-15.02-8.7-4.01-5.79-5.18-12.89-3.06-18.52.41-1.08,1.15-2.65,2.47-4.26-2.29-2.8-3.53-6.36-3.53-10.26,0-12.16,10.11-21.25,19.14-21.25.7,0,1.53.05,2.44.21,1.67-4.41,5.29-7.82,10.24-9.62,2.41-.88,5.13-1.35,7.84-1.35,5.75,0,11.06,2.03,14.57,5.58,1.56,1.58,2.73,3.39,3.48,5.39.81-.13,1.63-.2,2.45-.2,9.03,0,19.13,9.08,19.13,21.24,0,3.89-1.24,7.45-3.52,10.25,2.29,2.8,3.52,6.36,3.52,10.25,0,12.16-10.11,21.25-19.14,21.25-.7,0-1.53-.05-2.45-.21-.33.87-.69,1.62-1.05,2.23-3.12,5.4-9.64,8.75-17.02,8.75Z" fill="#fff"/><path d="M46.18,96.85c6.32,0,12.62,3.41,12.56,10.22-.02,2.39-.82,5.19-2.67,8.4,1.59-2.76,3.32-4.7,5.08-5.97,1.84-1.32,3.72-1.89,5.54-1.89,12.01,0,21.4,24.99-.73,24.99,22.12,0,12.74,25,.72,25-3.56,0-7.34-2.19-10.61-7.86,7.16,12.42-1.37,18.63-9.9,18.63s-17.06-6.21-9.9-18.63c-3.27,5.67-7.06,7.86-10.61,7.86-7.98,0-14.79-11.03-12.01-18.43,1.4-3.75,5.28-6.57,12.71-6.57-22.11,0-12.73-24.99-.71-24.99,3.56,0,7.34,2.19,10.62,7.86-5.54-9.61-1.7-15.49,4.29-17.66,1.75-.64,3.69-.96,5.62-.96M46.18,83.85c-3.52,0-6.91.59-10.09,1.75-5.05,1.84-9.13,4.98-11.84,9.06-6.54.43-12.85,3.83-17.49,9.49C2.47,109.38,0,116.02,0,122.36c0,3.68.81,7.16,2.34,10.25-.37.75-.66,1.43-.87,2.01-2.89,7.69-1.47,16.85,3.81,24.48,4.69,6.77,11.69,10.97,18.97,11.46,4.48,6.71,12.74,10.82,21.91,10.82s17.42-4.11,21.91-10.82c6.54-.43,12.85-3.83,17.5-9.5,4.29-5.22,6.75-11.86,6.75-18.21,0-3.68-.8-7.15-2.33-10.25,1.53-3.09,2.34-6.57,2.34-10.25,0-6.35-2.46-12.98-6.74-18.2-4.65-5.66-10.97-9.07-17.51-9.49-.78-1.18-1.68-2.28-2.69-3.3-4.72-4.77-11.72-7.5-19.19-7.5h0Z" fill="#fff"/><path d="M35.58,122.57c0,4.37-3.54,7.9-7.9,7.9s-7.9-3.54-7.9-7.9,3.54-7.9,7.9-7.9,7.9,3.54,7.9,7.9Z" fill="#fff" mix-blend-mode="screen" opacity=".56" stroke="#fff" stroke-linecap="round" stroke-linejoin="round" stroke-width="13"/><path d="M56.06,149.75c14.32,24.84-34.12,24.84-19.8,0-10.62,18.4-26.65.13-22.62-10.58,2.09,1.74,4.5,3.08,7.13,3.77,5.28,1.4,11.48-.15,14.73-4.52.84,5.62,7.86,9.31,12.97,6.81,5.11-2.48,6.48-10.3,2.56-14.41,7.26.82,14.35-6.18,13.61-13.46-.28-2.97-1.62-5.58-3.51-7.84,13.98-10.04,30.29,23.09,4.8,23.09,28.67,0,4.44,41.98-9.89,17.15Z" fill="#fff" opacity=".56" stroke="#fff" stroke-linecap="round" stroke-linejoin="round" stroke-width="13"/><path d="M46.17,170.38c-5.78,0-10.8-2.49-13.12-6.5-.84-1.46-1.53-3.45-1.46-6.02-2.19,1.35-4.26,1.75-5.94,1.75h0c-4.16,0-8.39-2.53-11.32-6.76-3.18-4.6-4.16-10.1-2.55-14.38.65-1.73,2.08-4.16,5.24-5.86-.85-.46-1.61-.99-2.3-1.6-2.42-2.15-3.7-5.14-3.7-8.64,0-7.59,6.53-16.75,14.64-16.75,1.68,0,3.76.4,5.95,1.76-.06-1.78.25-3.23.66-4.35,1.17-3.22,3.88-5.74,7.61-7.09,1.93-.71,4.12-1.08,6.31-1.08,4.56,0,8.7,1.55,11.38,4.24,2.11,2.13,3.21,4.9,3.18,8,0,.1,0,.19,0,.29,1.88-1.17,3.88-1.77,5.96-1.77,8.11,0,14.63,9.16,14.63,16.74,0,3.51-1.28,6.5-3.71,8.65-.69.61-1.46,1.14-2.3,1.6.84.46,1.61.99,2.3,1.6,2.42,2.15,3.71,5.14,3.71,8.65,0,7.59-6.53,16.75-14.64,16.75-1.68,0-3.75-.4-5.93-1.75.08,2.57-.62,4.57-1.46,6.02-2.32,4.01-7.34,6.5-13.12,6.5Z" fill="#e9a5b4"/><path d="M46.18,96.85c6.32,0,12.62,3.41,12.56,10.22-.02,2.39-.82,5.19-2.67,8.4,1.59-2.76,3.32-4.7,5.08-5.97,1.84-1.32,3.72-1.89,5.54-1.89,12.01,0,21.4,24.99-.73,24.99,22.12,0,12.74,25,.72,25-3.56,0-7.34-2.19-10.61-7.86,7.16,12.42-1.37,18.63-9.9,18.63s-17.06-6.21-9.9-18.63c-3.27,5.67-7.06,7.86-10.61,7.86-7.98,0-14.79-11.03-12.01-18.43,1.4-3.75,5.28-6.57,12.71-6.57-22.11,0-12.73-24.99-.71-24.99,3.56,0,7.34,2.19,10.62,7.86-5.54-9.61-1.7-15.49,4.29-17.66,1.75-.64,3.69-.96,5.62-.96M46.18,92.85c-2.42,0-4.84.42-7,1.21-4.29,1.56-7.42,4.5-8.8,8.29-.21.58-.4,1.24-.54,1.98-1.52-.52-2.94-.7-4.19-.7-4.33,0-8.68,2.28-11.94,6.25-2.99,3.64-4.7,8.2-4.7,12.5,0,4.04,1.55,7.64,4.38,10.14.03.03.07.06.11.09-1.97,1.72-3.03,3.67-3.59,5.18-1.83,4.87-.77,11.08,2.78,16.21,3.3,4.77,8.15,7.62,12.97,7.62,1.24,0,2.66-.18,4.17-.7.31,1.57.86,2.9,1.49,3.97,2.67,4.63,8.36,7.5,14.85,7.5s12.18-2.87,14.85-7.5c.62-1.08,1.18-2.4,1.48-3.97,1.51.52,2.93.7,4.17.7,4.33,0,8.68-2.28,11.94-6.25,2.99-3.64,4.7-8.2,4.7-12.5,0-4.04-1.56-7.64-4.38-10.15-.03-.03-.07-.06-.1-.09,3.18-2.76,4.48-6.57,4.48-10.26,0-8.67-7.26-18.74-16.63-18.74-1.44,0-2.84.24-4.2.71-.48-2.52-1.67-4.78-3.52-6.64-3.04-3.07-7.71-4.84-12.8-4.84h0Z"/><path d="M35.58,122.57c0,4.37-3.54,7.9-7.9,7.9s-7.9-3.54-7.9-7.9,3.54-7.9,7.9-7.9,7.9,3.54,7.9,7.9Z" fill="#e9a5b4" mix-blend-mode="screen" opacity=".56" stroke="#000" stroke-linecap="round" stroke-linejoin="round" stroke-width="4"/><path d="M56.06,149.75c14.32,24.84-34.12,24.84-19.8,0-10.62,18.4-26.65.13-22.62-10.58,2.09,1.74,4.5,3.08,7.13,3.77,5.28,1.4,11.48-.15,14.73-4.52.84,5.62,7.86,9.31,12.97,6.81,5.11-2.48,6.48-10.3,2.56-14.41,7.26.82,14.35-6.18,13.61-13.46-.28-2.97-1.62-5.58-3.51-7.84,13.98-10.04,30.29,23.09,4.8,23.09,28.67,0,4.44,41.98-9.89,17.15Z" fill="#d35a78" opacity=".56"/><path d="M131.07,94.03c-7.59,0-14.29-3.44-17.49-8.98-.39-.68-.8-1.51-1.15-2.5-1.03.19-1.95.25-2.73.25h0c-5.78,0-11.55-3.34-15.43-8.95-4.13-5.96-5.34-13.26-3.16-19.05.43-1.15,1.24-2.83,2.68-4.54-2.44-2.9-3.76-6.61-3.76-10.69,0-10.11,8.59-21.87,19.67-21.87.85,0,1.76.07,2.73.24,0-.01,0-.02.01-.03,1.68-4.6,5.43-8.16,10.57-10.03,2.49-.91,5.28-1.39,8.08-1.39,5.92,0,11.38,2.09,14.99,5.73,1.65,1.67,2.88,3.6,3.65,5.73.9-.16,1.82-.25,2.73-.25,11.08,0,19.67,11.75,19.67,21.86,0,4.07-1.32,7.78-3.75,10.68,2.43,2.9,3.75,6.61,3.75,10.68,0,10.11-8.59,21.87-19.67,21.87-.85,0-1.77-.07-2.73-.24-.35.98-.76,1.81-1.14,2.48-3.2,5.54-9.9,8.98-17.49,8.98Z" fill="#fff"/><path d="M131.08,13c6.58,0,13.15,3.56,13.09,10.65-.02,2.49-.85,5.41-2.78,8.75,1.66-2.87,3.46-4.89,5.3-6.22,1.92-1.38,3.88-1.97,5.77-1.97,12.52,0,22.3,26.04-.77,26.04,23.06,0,13.28,26.06.75,26.06-3.71,0-7.65-2.28-11.06-8.19,7.46,12.94-1.43,19.41-10.31,19.41s-17.78-6.47-10.31-19.41c-3.41,5.91-7.36,8.19-11.06,8.19-8.32,0-15.41-11.49-12.51-19.21,1.46-3.91,5.5-6.85,13.24-6.85-23.04,0-13.26-26.04-.74-26.04,3.71,0,7.65,2.28,11.06,8.19-5.77-10.01-1.77-16.14,4.47-18.41,1.83-.67,3.84-1,5.86-1M131.08,0c-3.55,0-7.12.62-10.33,1.79-5.24,1.91-9.46,5.19-12.22,9.45-6.76.36-13.3,3.85-18.11,9.71-4.39,5.35-6.91,12.14-6.91,18.63,0,3.84.86,7.47,2.5,10.68-.44.85-.77,1.63-1.01,2.28-2.95,7.84-1.49,17.2,3.91,25.01,4.85,7,12.11,11.32,19.63,11.72,4.54,6.97,13.05,11.26,22.53,11.26s17.99-4.28,22.53-11.25c6.76-.36,13.31-3.85,18.11-9.71,4.39-5.35,6.9-12.14,6.9-18.63,0-3.84-.86-7.47-2.5-10.68,1.64-3.21,2.5-6.84,2.5-10.68,0-6.49-2.52-13.28-6.9-18.62-4.81-5.86-11.37-9.36-18.13-9.71-.83-1.28-1.79-2.48-2.89-3.59-4.82-4.87-11.97-7.66-19.61-7.66h0Z" fill="#fff"/><g mix-blend-mode="screen" opacity=".56"><path d="M111.81,54.54c-8.13,0-14.74-6.61-14.74-14.74s6.61-14.74,14.74-14.74,14.74,6.61,14.74,14.74-6.61,14.74-14.74,14.74Z" fill="#fff"/><path d="M111.81,31.56c4.55,0,8.24,3.69,8.24,8.24s-3.69,8.24-8.24,8.24-8.24-3.69-8.24-8.24,3.69-8.24,8.24-8.24M111.81,18.56c-11.71,0-21.24,9.53-21.24,21.24s9.53,21.24,21.24,21.24,21.24-9.53,21.24-21.24-9.53-21.24-21.24-21.24h0Z" fill="#fff"/></g><g mix-blend-mode="multiply" opacity=".42"><path d="M131.07,94.03c-7.59,0-14.29-3.44-17.49-8.98-.39-.68-.8-1.51-1.15-2.5-1.03.19-1.95.25-2.73.25h0c-5.78,0-11.55-3.34-15.43-8.95-4.13-5.96-5.34-13.26-3.16-19.05.74-1.97,2.39-3.46,4.43-4,.55-.14,1.1-.21,1.66-.21,1.5,0,2.98.52,4.17,1.51,1.55,1.3,3.21,2.18,4.91,2.63.78.21,1.58.31,2.4.31,2.56,0,4.89-1,6.09-2.61,1.24-1.67,3.19-2.62,5.22-2.62.53,0,1.05.06,1.58.2,2.55.64,4.46,2.75,4.85,5.34.18,1.18,1.89,2.38,3.4,2.38.32,0,.6-.06.83-.17.62-.3,1.14-1.16,1.32-2.15.18-1.02-.01-2.04-.49-2.54-1.89-1.98-2.33-4.93-1.12-7.38,1.11-2.23,3.37-3.61,5.82-3.61.24,0,.49.01.73.04.16.02.32.03.49.03,1.63,0,3.4-.88,4.74-2.37,1.27-1.41,1.91-3.08,1.76-4.58-.15-1.57-.86-3.08-2.17-4.65-1.16-1.39-1.69-3.19-1.47-4.99.23-1.79,1.19-3.41,2.66-4.47,2.91-2.09,6.22-3.19,9.56-3.19,11.08,0,19.67,11.75,19.67,21.86,0,4.07-1.32,7.78-3.75,10.68,2.43,2.9,3.75,6.61,3.75,10.68,0,10.11-8.59,21.87-19.67,21.87-.85,0-1.77-.07-2.73-.24-.35.98-.76,1.81-1.14,2.48-3.2,5.54-9.9,8.98-17.49,8.98Z" fill="#fff"/><path d="M152.45,24.22c12.52,0,22.3,26.04-.77,26.04,23.06,0,13.28,26.06.75,26.06-3.71,0-7.65-2.28-11.06-8.19,7.46,12.94-1.43,19.41-10.31,19.41s-17.78-6.47-10.31-19.41c-3.41,5.91-7.36,8.19-11.06,8.19-8.32,0-15.41-11.49-12.51-19.21,2.18,1.82,4.69,3.21,7.43,3.93,1.31.35,2.68.52,4.04.52,4.36,0,8.73-1.76,11.31-5.23.68,4.58,5.3,7.92,9.83,7.92,1.27,0,2.52-.26,3.68-.83,5.32-2.58,6.76-10.73,2.67-15.02.41.05.81.07,1.22.07,7.12,0,13.69-6.92,12.97-14.1-.29-3.1-1.68-5.81-3.66-8.17,1.92-1.38,3.88-1.97,5.77-1.97M152.46,11.22h0c-4.71,0-9.33,1.53-13.35,4.41-2.94,2.11-4.86,5.35-5.32,8.94-.45,3.59.61,7.2,2.93,9.97.27.32.43.56.53.74-.05.05-.11.1-.16.15-.31-.02-.63-.03-.94-.03-4.89,0-9.43,2.76-11.64,7.22-.22.44-.41.88-.57,1.33-.27-.09-.54-.16-.81-.23-1.05-.26-2.11-.39-3.16-.39-3.97,0-7.79,1.82-10.28,5.05-.18.08-.55.19-1.02.19-.25,0-.5-.03-.71-.09-.8-.21-1.63-.67-2.43-1.34-2.36-1.97-5.32-3.02-8.33-3.02-1.11,0-2.22.14-3.31.43-4.07,1.07-7.37,4.05-8.86,7.99-2.96,7.87-1.5,17.23,3.9,25.04,4.85,7,12.11,11.32,19.63,11.72,4.54,6.97,13.05,11.26,22.53,11.26s17.99-4.28,22.53-11.25c6.76-.36,13.31-3.85,18.11-9.71,4.39-5.35,6.9-12.14,6.9-18.63,0-3.84-.86-7.47-2.5-10.68,1.64-3.21,2.5-6.84,2.5-10.68,0-6.49-2.52-13.28-6.9-18.62-5.08-6.19-12.1-9.74-19.26-9.74h0Z" fill="#fff"/></g><path d="M131.07,89.53c-5.99,0-11.2-2.58-13.6-6.73-.89-1.54-1.62-3.65-1.5-6.39-2.31,1.47-4.5,1.9-6.28,1.9h0c-4.31,0-8.69-2.62-11.73-7.01-3.3-4.77-4.31-10.48-2.65-14.9.68-1.82,2.2-4.38,5.56-6.14-.93-.49-1.77-1.06-2.52-1.73-2.51-2.22-3.83-5.32-3.83-8.94,0-7.87,6.77-17.37,15.17-17.37,1.77,0,3.97.43,6.29,1.91-.08-1.91.24-3.47.68-4.66,1.21-3.33,4.01-5.94,7.88-7.34,2-.73,4.27-1.12,6.54-1.12,4.73,0,9.03,1.6,11.79,4.4,2.18,2.21,3.32,5.07,3.29,8.28,0,.15,0,.3-.01.46,1.99-1.27,4.1-1.91,6.3-1.91,8.4,0,15.17,9.5,15.17,17.36,0,3.63-1.33,6.73-3.84,8.95-.75.66-1.59,1.24-2.52,1.73.93.49,1.77,1.06,2.52,1.73,2.51,2.23,3.83,5.32,3.83,8.95,0,7.87-6.77,17.37-15.17,17.37-1.77,0-3.96-.43-6.27-1.9.11,2.74-.61,4.85-1.5,6.39-2.4,4.15-7.61,6.73-13.6,6.73Z" fill="#5aaaba"/><path d="M131.08,13c6.58,0,13.15,3.56,13.09,10.65-.02,2.49-.85,5.41-2.78,8.75,1.66-2.87,3.46-4.89,5.3-6.22,1.92-1.38,3.88-1.97,5.77-1.97,12.52,0,22.3,26.04-.77,26.04,23.06,0,13.28,26.06.75,26.06-3.71,0-7.65-2.28-11.06-8.19,7.46,12.94-1.43,19.41-10.31,19.41s-17.78-6.47-10.31-19.41c-3.41,5.91-7.36,8.19-11.06,8.19-8.32,0-15.41-11.49-12.51-19.21,1.46-3.91,5.5-6.85,13.24-6.85-23.04,0-13.26-26.04-.74-26.04,3.71,0,7.65,2.28,11.06,8.19-5.77-10.01-1.77-16.14,4.47-18.41,1.83-.67,3.84-1,5.86-1M131.08,9c-2.51,0-5.01.43-7.23,1.25-4.42,1.61-7.65,4.64-9.07,8.53-.24.65-.45,1.4-.59,2.23-1.63-.59-3.16-.79-4.49-.79-4.46,0-8.95,2.35-12.31,6.45-3.09,3.76-4.86,8.47-4.86,12.92,0,4.16,1.6,7.86,4.5,10.44.08.08.17.15.26.22-2.12,1.8-3.25,3.87-3.84,5.45-1.89,5.02-.79,11.44,2.88,16.74,3.41,4.93,8.41,7.87,13.38,7.87,1.33,0,2.85-.2,4.48-.79.31,1.71.9,3.13,1.56,4.28,2.75,4.77,8.63,7.73,15.33,7.73s12.58-2.96,15.33-7.73c.66-1.15,1.26-2.57,1.56-4.28,1.63.58,3.15.78,4.48.78,4.46,0,8.95-2.35,12.31-6.45,3.09-3.77,4.86-8.48,4.86-12.92,0-4.16-1.6-7.87-4.51-10.45-.08-.07-.17-.15-.25-.22,3.38-2.85,4.77-6.84,4.77-10.69,0-8.95-7.5-19.36-17.16-19.36-1.55,0-3.05.27-4.51.8-.47-2.67-1.71-5.06-3.65-7.02-3.14-3.17-7.96-4.99-13.21-4.99h0Z"/><g mix-blend-mode="screen" opacity=".56"><path d="M111.81,50.04c-5.64,0-10.24-4.59-10.24-10.24s4.59-10.24,10.24-10.24,10.24,4.59,10.24,10.24-4.59,10.24-10.24,10.24Z" fill="#8069f8"/><path d="M111.81,31.56c4.55,0,8.24,3.69,8.24,8.24s-3.69,8.24-8.24,8.24-8.24-3.69-8.24-8.24,3.69-8.24,8.24-8.24M111.81,27.56c-6.75,0-12.24,5.49-12.24,12.24s5.49,12.24,12.24,12.24,12.24-5.49,12.24-12.24-5.49-12.24-12.24-12.24h0Z"/></g><g mix-blend-mode="multiply" opacity=".42"><path d="M141.39,68.12c14.93,25.88-35.56,25.88-20.63,0-11.07,19.17-27.77.13-23.57-11.02,2.18,1.82,4.69,3.21,7.43,3.93,5.5,1.46,11.96-.16,15.35-4.71.88,5.86,8.19,9.7,13.51,7.09,5.32-2.58,6.76-10.73,2.67-15.02,7.56.85,14.95-6.44,14.19-14.03-.29-3.1-1.68-5.81-3.66-8.17,14.57-10.46,31.56,24.06,5.01,24.06,29.88,0,4.62,43.75-10.3,17.87Z" fill="#5aaaba"/></g></g></g></svg>