<?xml version="1.0" encoding="UTF-8"?><svg xmlns="http://www.w3.org/2000/svg" viewBox="0 0 167.12 206.31"><g isolation="isolate"><g id="a"><path d="M47.98,199.81c-7.66,0-14.42-3.47-17.64-9.05-.44-.76-.85-1.61-1.19-2.56-.99.18-1.93.25-2.8.25h0c-5.83,0-11.64-3.37-15.56-9.02-4.16-6.01-5.39-13.38-3.19-19.21.44-1.17,1.26-2.88,2.74-4.62-2.49-2.92-3.83-6.69-3.83-10.82,0-10.2,8.66-22.06,19.84-22.06.87,0,1.82.07,2.81.25l.03-.09c1.69-4.63,5.47-8.22,10.65-10.11,2.51-.92,5.33-1.41,8.15-1.41,5.97,0,11.48,2.11,15.12,5.78,1.68,1.7,2.92,3.67,3.69,5.84.93-.17,1.87-.26,2.82-.26,11.17,0,19.83,11.85,19.83,22.05,0,4.12-1.34,7.89-3.82,10.81,2.48,2.92,3.82,6.69,3.82,10.81,0,10.2-8.66,22.06-19.83,22.06-.87,0-1.81-.07-2.8-.25-.34.95-.75,1.8-1.19,2.56-3.22,5.58-9.98,9.05-17.64,9.05Z" fill="#fff"/><path d="M48,117.86c6.66,0,13.32,3.6,13.25,10.78-.02,2.52-.86,5.48-2.82,8.86,1.68-2.91,3.5-4.95,5.36-6.29,1.94-1.39,3.92-2,5.84-2,12.67,0,22.57,26.36-.77,26.36,23.34,0,13.44,26.37.76,26.37-3.75,0-7.74-2.31-11.19-8.29,7.56,13.1-1.44,19.65-10.44,19.65s-18-6.55-10.44-19.65c-3.45,5.98-7.45,8.29-11.19,8.29-8.42,0-15.6-11.63-12.66-19.44,1.48-3.95,5.57-6.93,13.41-6.93-23.32,0-13.42-26.35-.75-26.35,3.75,0,7.75,2.31,11.2,8.29-5.84-10.13-1.8-16.34,4.52-18.63,1.85-.68,3.89-1.01,5.93-1.01M48,104.86c-3.57,0-7.17.62-10.4,1.81-5.3,1.93-9.56,5.25-12.33,9.58-6.83.34-13.44,3.86-18.3,9.77C2.54,131.4,0,138.24,0,144.78c0,3.89.88,7.57,2.55,10.81-.46.89-.8,1.69-1.05,2.37-2.97,7.89-1.5,17.31,3.94,25.17,4.89,7.07,12.24,11.42,19.82,11.8,4.55,7.05,13.15,11.39,22.71,11.39s18.16-4.34,22.71-11.39c6.83-.34,13.45-3.86,18.3-9.78,4.42-5.39,6.95-12.22,6.95-18.76,0-3.89-.88-7.57-2.55-10.81,1.67-3.24,2.55-6.92,2.55-10.81,0-6.53-2.53-13.37-6.95-18.75-4.86-5.92-11.49-9.44-18.32-9.77-.84-1.31-1.83-2.54-2.95-3.67-4.85-4.9-12.04-7.71-19.74-7.71h0Z" fill="#fff"/><path d="M36.35,144.18c0,4.6-3.73,8.34-8.34,8.34s-8.34-3.73-8.34-8.34,3.73-8.34,8.34-8.34,8.34,3.73,8.34,8.34Z" fill="#fff" mix-blend-mode="screen" opacity=".86" stroke="#fff" stroke-linecap="round" stroke-linejoin="round" stroke-width="13"/><path d="M58.42,173.66c15.11,26.2-35.99,26.2-20.88,0-11.2,19.4-28.11.14-23.86-11.16,2.2,1.84,4.75,3.25,7.52,3.98,5.57,1.48,12.11-.16,15.54-4.77.89,5.93,8.29,9.82,13.68,7.18,5.39-2.61,6.84-10.86,2.7-15.2,7.66.86,15.13-6.52,14.36-14.2-.3-3.14-1.7-5.88-3.7-8.27,14.75-10.59,31.95,24.36,5.07,24.36,30.24,0,4.68,44.28-10.43,18.09Z" fill="#fff" mix-blend-mode="multiply" opacity=".35" stroke="#fff" stroke-linecap="round" stroke-linejoin="round" stroke-width="13"/><path d="M47.98,195.31c-6.05,0-11.32-2.61-13.74-6.8-.9-1.56-1.64-3.71-1.51-6.5-2.35,1.5-4.58,1.94-6.38,1.94h0c-4.35,0-8.78-2.65-11.86-7.08-3.34-4.82-4.36-10.59-2.68-15.06.69-1.84,2.23-4.44,5.66-6.22-.96-.5-1.82-1.09-2.59-1.77-2.53-2.25-3.87-5.37-3.87-9.04,0-7.95,6.84-17.56,15.34-17.56,1.8,0,4.04.44,6.4,1.95-.09-1.95.24-3.54.68-4.75,1.23-3.36,4.05-6,7.96-7.42,2.03-.74,4.32-1.13,6.62-1.13,4.78,0,9.12,1.62,11.92,4.44,2.21,2.23,3.36,5.12,3.32,8.36,0,.17,0,.34-.01.51,2.02-1.3,4.17-1.96,6.4-1.96,8.49,0,15.33,9.6,15.33,17.55,0,3.67-1.34,6.79-3.87,9.04-.77.68-1.63,1.27-2.59,1.77.96.5,1.82,1.09,2.59,1.77,2.53,2.25,3.87,5.38,3.87,9.04,0,7.96-6.84,17.56-15.33,17.56-1.8,0-4.03-.44-6.38-1.94.13,2.79-.61,4.94-1.51,6.5-2.42,4.19-7.69,6.8-13.74,6.8Z" fill="#d35a78"/><path d="M48,117.86c6.66,0,13.32,3.6,13.25,10.78-.02,2.52-.86,5.48-2.82,8.86,1.68-2.91,3.5-4.95,5.36-6.29,1.94-1.39,3.92-2,5.84-2,12.67,0,22.57,26.36-.77,26.36,23.34,0,13.44,26.37.76,26.37-3.75,0-7.74-2.31-11.19-8.29,7.56,13.1-1.44,19.65-10.44,19.65s-18-6.55-10.44-19.65c-3.45,5.98-7.45,8.29-11.19,8.29-8.42,0-15.6-11.63-12.66-19.44,1.48-3.95,5.57-6.93,13.41-6.93-23.32,0-13.42-26.35-.75-26.35,3.75,0,7.75,2.31,11.2,8.29-5.84-10.13-1.8-16.34,4.52-18.63,1.85-.68,3.89-1.01,5.93-1.01M48,113.86c-2.53,0-5.06.44-7.31,1.26-4.46,1.62-7.72,4.68-9.15,8.61-.25.67-.46,1.44-.61,2.3-1.67-.61-3.23-.82-4.59-.82-4.5,0-9.03,2.37-12.42,6.51-3.12,3.8-4.91,8.56-4.91,13.04,0,4.19,1.61,7.93,4.54,10.53.1.09.2.18.31.26-2.17,1.82-3.32,3.92-3.92,5.53-1.91,5.07-.79,11.55,2.91,16.9,3.44,4.98,8.49,7.95,13.5,7.95,1.35,0,2.91-.21,4.57-.81.31,1.75.91,3.2,1.59,4.37,2.78,4.81,8.71,7.8,15.48,7.8s12.7-2.99,15.47-7.8c.68-1.17,1.28-2.63,1.59-4.37,1.66.61,3.22.81,4.57.81,4.5,0,9.03-2.37,12.42-6.51,3.12-3.8,4.91-8.56,4.91-13.05,0-4.2-1.61-7.94-4.55-10.54-.1-.09-.2-.18-.3-.26,3.44-2.87,4.85-6.92,4.85-10.82,0-9.04-7.57-19.55-17.32-19.55-1.58,0-3.11.28-4.6.82-.47-2.72-1.72-5.15-3.69-7.14-3.17-3.2-8.03-5.04-13.34-5.04h0Z"/><path d="M36.35,144.18c0,4.6-3.73,8.34-8.34,8.34s-8.34-3.73-8.34-8.34,3.73-8.34,8.34-8.34,8.34,3.73,8.34,8.34Z" fill="#ff4f89" mix-blend-mode="screen" opacity=".86" stroke="#000" stroke-linecap="round" stroke-linejoin="round" stroke-width="4"/><path d="M58.42,173.66c15.11,26.2-35.99,26.2-20.88,0-11.2,19.4-28.11.14-23.86-11.16,2.2,1.84,4.75,3.25,7.52,3.98,5.57,1.48,12.11-.16,15.54-4.77.89,5.93,8.29,9.82,13.68,7.18,5.39-2.61,6.84-10.86,2.7-15.2,7.66.86,15.13-6.52,14.36-14.2-.3-3.14-1.7-5.88-3.7-8.27,14.75-10.59,31.95,24.36,5.07,24.36,30.24,0,4.68,44.28-10.43,18.09Z" fill="#d35a78" mix-blend-mode="multiply" opacity=".35"/><path d="M118.54,96.27c-7.75,0-14.59-3.51-17.85-9.15-.45-.79-.88-1.68-1.24-2.68-1.04.19-2.02.27-2.93.27h0c-5.89,0-11.77-3.41-15.73-9.13-4.22-6.09-5.45-13.54-3.23-19.44.45-1.2,1.3-2.96,2.83-4.74-2.55-2.97-3.94-6.8-3.94-11.01,0-10.33,8.77-22.33,20.07-22.33.91,0,1.9.08,2.94.27.02-.06.04-.12.07-.19,1.71-4.68,5.53-8.31,10.77-10.21,2.54-.93,5.4-1.42,8.25-1.42,6.04,0,11.62,2.13,15.3,5.85,1.72,1.74,2.99,3.76,3.77,5.99.97-.19,1.96-.28,2.94-.28,11.3,0,20.06,12,20.06,22.32,0,4.2-1.38,8.03-3.93,11,2.54,2.97,3.92,6.8,3.92,11,0,10.33-8.77,22.33-20.07,22.33-.91,0-1.89-.08-2.93-.27-.35,1-.78,1.89-1.24,2.68-3.26,5.64-10.1,9.15-17.85,9.15Z" fill="#fff"/><path d="M118.55,13c6.78,0,13.55,3.66,13.48,10.97-.02,2.57-.88,5.57-2.87,9.02,1.71-2.96,3.56-5.04,5.46-6.4,1.97-1.42,3.99-2.03,5.94-2.03,12.89,0,22.96,26.82-.79,26.82,23.75,0,13.68,26.84.78,26.84-3.82,0-7.88-2.35-11.39-8.43,7.69,13.33-1.47,19.99-10.62,19.99s-18.31-6.66-10.62-19.99c-3.51,6.08-7.58,8.43-11.39,8.43-8.57,0-15.88-11.83-12.89-19.78,1.5-4.02,5.66-7.05,13.64-7.05-23.73,0-13.66-26.82-.76-26.82,3.82,0,7.88,2.35,11.39,8.44-5.94-10.31-1.83-16.62,4.6-18.96,1.88-.69,3.96-1.03,6.04-1.03M118.55,0c-3.61,0-7.24.63-10.5,1.82-5.39,1.96-9.7,5.35-12.5,9.75-6.92.31-13.64,3.86-18.57,9.87-4.47,5.44-7.03,12.34-7.03,18.94,0,3.97.91,7.71,2.62,11-.49.93-.85,1.78-1.11,2.49-2.99,7.96-1.51,17.46,3.98,25.4,4.96,7.17,12.42,11.57,20.11,11.91,4.57,7.17,13.28,11.58,22.98,11.58s18.41-4.41,22.98-11.58c6.92-.3,13.65-3.86,18.58-9.87,4.46-5.44,7.02-12.34,7.02-18.94,0-3.97-.91-7.71-2.62-11,1.72-3.29,2.62-7.03,2.62-11,0-6.6-2.56-13.5-7.02-18.93-4.93-6.01-11.67-9.57-18.6-9.87-.86-1.36-1.88-2.63-3.03-3.8-4.89-4.94-12.15-7.77-19.92-7.77h0Z" fill="#fff"/><path d="M107.18,40.6c0,4.69-3.8,8.48-8.48,8.48s-8.48-3.8-8.48-8.48,3.8-8.48,8.48-8.48,8.48,3.8,8.48,8.48Z" fill="#fff" mix-blend-mode="screen" opacity=".56" stroke="#fff" stroke-linecap="round" stroke-linejoin="round" stroke-width="13"/><path d="M129.16,69.77c15.37,26.66-36.62,26.66-21.25,0-11.4,19.74-28.6.14-24.28-11.35,2.24,1.87,4.83,3.31,7.65,4.05,5.66,1.5,12.32-.16,15.81-4.85.9,6.03,8.44,9.99,13.92,7.31,5.48-2.66,6.96-11.05,2.75-15.47,7.79.88,15.4-6.64,14.61-14.45-.3-3.19-1.73-5.99-3.77-8.42,15-10.77,32.51,24.78,5.16,24.78,30.77,0,4.76,45.06-10.61,18.4Z" fill="#fff" mix-blend-mode="multiply" stroke="#fff" stroke-linecap="round" stroke-linejoin="round" stroke-width="13"/><path d="M118.54,91.77c-6.15,0-11.49-2.64-13.95-6.9-.92-1.59-1.67-3.8-1.53-6.67-2.41,1.56-4.69,2.01-6.53,2.01h0c-4.42,0-8.92-2.69-12.03-7.19-3.39-4.89-4.43-10.75-2.72-15.29.7-1.88,2.28-4.54,5.8-6.34-1-.51-1.89-1.12-2.69-1.83-2.57-2.28-3.93-5.45-3.93-9.17,0-8.08,6.94-17.83,15.57-17.83,1.84,0,4.13.45,6.55,2.02-.1-2.01.23-3.64.69-4.89,1.25-3.41,4.11-6.09,8.08-7.53,2.06-.75,4.38-1.15,6.72-1.15,4.85,0,9.26,1.65,12.1,4.51,2.24,2.26,3.4,5.19,3.37,8.48,0,.19,0,.39-.02.58,2.07-1.34,4.27-2.03,6.55-2.03,8.62,0,15.56,9.75,15.56,17.82,0,3.72-1.36,6.89-3.93,9.17-.79.71-1.69,1.31-2.69,1.82.99.51,1.89,1.12,2.68,1.82,2.57,2.28,3.93,5.46,3.93,9.18,0,8.08-6.94,17.83-15.57,17.83-1.84,0-4.12-.45-6.53-2.01.14,2.86-.61,5.07-1.53,6.66-2.46,4.26-7.81,6.9-13.95,6.9Z" fill="#e8c86a"/><path d="M118.55,13c6.78,0,13.55,3.66,13.48,10.97-.02,2.57-.88,5.57-2.87,9.02,1.71-2.96,3.56-5.04,5.46-6.4,1.97-1.42,3.99-2.03,5.94-2.03,12.89,0,22.96,26.82-.79,26.82,23.75,0,13.68,26.84.78,26.84-3.82,0-7.88-2.35-11.39-8.43,7.69,13.33-1.47,19.99-10.62,19.99s-18.31-6.66-10.62-19.99c-3.51,6.08-7.58,8.43-11.39,8.43-8.57,0-15.88-11.83-12.89-19.78,1.5-4.02,5.66-7.05,13.64-7.05-23.73,0-13.66-26.82-.76-26.82,3.82,0,7.88,2.35,11.39,8.44-5.94-10.31-1.83-16.62,4.6-18.96,1.88-.69,3.96-1.03,6.04-1.03M118.55,9c-2.57,0-5.13.44-7.41,1.28-4.52,1.64-7.82,4.74-9.27,8.72-.26.7-.48,1.51-.63,2.42-1.72-.64-3.33-.86-4.72-.86-4.56,0-9.14,2.41-12.59,6.6-3.17,3.86-4.98,8.68-4.98,13.23,0,4.25,1.63,8.03,4.6,10.66.12.11.25.22.37.32-2.24,1.86-3.42,4.01-4.03,5.66-1.93,5.14-.8,11.7,2.95,17.13,3.49,5.04,8.61,8.06,13.68,8.06,1.39,0,3-.22,4.71-.85.31,1.8.92,3.3,1.62,4.51,2.82,4.87,8.83,7.9,15.69,7.9s12.87-3.03,15.69-7.9c.7-1.21,1.31-2.71,1.62-4.51,1.71.64,3.32.85,4.71.85,4.56,0,9.14-2.41,12.59-6.6,3.17-3.86,4.98-8.68,4.98-13.23,0-4.25-1.63-8.04-4.6-10.67-.12-.11-.25-.21-.37-.32,3.53-2.91,4.98-7.03,4.98-11,0-9.17-7.67-19.82-17.56-19.82-1.62,0-3.21.29-4.73.86-.47-2.78-1.74-5.28-3.75-7.31-3.21-3.24-8.14-5.11-13.53-5.11h0Z"/><path d="M107.18,40.6c0,4.69-3.8,8.48-8.48,8.48s-8.48-3.8-8.48-8.48,3.8-8.48,8.48-8.48,8.48,3.8,8.48,8.48Z" fill="#ffc9c7" mix-blend-mode="screen" opacity=".56" stroke="#000" stroke-linecap="round" stroke-linejoin="round" stroke-width="4"/><path d="M129.16,69.77c15.37,26.66-36.62,26.66-21.25,0-11.4,19.74-28.6.14-24.28-11.35,2.24,1.87,4.83,3.31,7.65,4.05,5.66,1.5,12.32-.16,15.81-4.85.9,6.03,8.44,9.99,13.92,7.31,5.48-2.66,6.96-11.05,2.75-15.47,7.79.88,15.4-6.64,14.61-14.45-.3-3.19-1.73-5.99-3.77-8.42,15-10.77,32.51,24.78,5.16,24.78,30.77,0,4.76,45.06-10.61,18.4Z" fill="#e8c86a" mix-blend-mode="multiply"/></g></g></svg>