<?xml version="1.0" encoding="UTF-8"?><svg id="b" xmlns="http://www.w3.org/2000/svg" viewBox="0 0 333.71 140.57"><path d="M326.71,70.29c-1.44,84.39-126.97,84.37-128.4,0,1.44-84.39,126.97-84.37,128.4,0Z" fill="#fff" stroke="#fff" stroke-miterlimit="10" stroke-width="14"/><path d="M326.71,70.29c-1.44,84.39-126.97,84.37-128.4,0,1.44-84.39,126.97-84.37,128.4,0Z" fill="#fff" stroke="#fff" stroke-miterlimit="10" stroke-width="14"/><path d="M221.85,81.43c10.06,40.66,71.27,40.64,81.32,0" fill="#fff" stroke="#fff" stroke-miterlimit="10" stroke-width="14"/><path d="M257.15,50.68c-.09,21.58-21.01,21.58-21.1,0,.09-21.58,21.01-21.58,21.1,0Z" fill="#fff" stroke="#fff" stroke-miterlimit="10" stroke-width="14"/><path d="M288.97,50.68c-.09,21.58-21.01,21.58-21.1,0,.09-21.58,21.01-21.58,21.1,0Z" fill="#fff" stroke="#fff" stroke-miterlimit="10" stroke-width="14"/><path d="M231.37,70.29c-1.44,84.39-126.97,84.37-128.4,0,1.44-84.39,126.97-84.37,128.4,0Z" fill="#fff" stroke="#fff" stroke-miterlimit="10" stroke-width="14"/><path d="M231.37,70.29c-1.44,84.39-126.97,84.37-128.4,0,1.44-84.39,126.97-84.37,128.4,0Z" fill="#fff" stroke="#fff" stroke-miterlimit="10" stroke-width="14"/><path d="M126.51,81.43c10.06,40.66,71.27,40.64,81.32,0" fill="#fff" stroke="#fff" stroke-miterlimit="10" stroke-width="14"/><path d="M161.81,50.68c-.09,21.58-21.01,21.58-21.1,0,.09-21.58,21.01-21.58,21.1,0Z" fill="#fff" stroke="#fff" stroke-miterlimit="10" stroke-width="14"/><path d="M193.63,50.68c-.09,21.58-21.01,21.58-21.1,0,.09-21.58,21.01-21.58,21.1,0Z" fill="#fff" stroke="#fff" stroke-miterlimit="10" stroke-width="14"/><path d="M135.4,70.29c-1.44,84.39-126.97,84.38-128.4,0,1.44-84.39,126.97-84.37,128.4,0Z" fill="#fff" stroke="#fff" stroke-miterlimit="10" stroke-width="14"/><path d="M135.4,70.29c-1.44,84.39-126.97,84.38-128.4,0,1.44-84.39,126.97-84.37,128.4,0Z" fill="#fff" stroke="#fff" stroke-miterlimit="10" stroke-width="14"/><path d="M30.54,81.43c10.06,40.66,71.27,40.64,81.32,0" fill="#fff" stroke="#fff" stroke-miterlimit="10" stroke-width="14"/><path d="M65.84,50.68c-.09,21.58-21.01,21.58-21.1,0,.09-21.58,21.01-21.58,21.1,0Z" fill="#fff" stroke="#fff" stroke-miterlimit="10" stroke-width="14"/><path d="M97.66,50.68c-.09,21.58-21.01,21.58-21.1,0,.09-21.58,21.01-21.58,21.1,0Z" fill="#fff" stroke="#fff" stroke-miterlimit="10" stroke-width="14"/><path d="M326.71,70.29c-1.44,84.39-126.97,84.37-128.4,0,1.44-84.39,126.97-84.37,128.4,0Z" fill="#fefbee" stroke="#0b0400" stroke-miterlimit="10" stroke-width="2"/><path d="M326.71,70.29c-1.44,84.39-126.97,84.37-128.4,0,1.44-84.39,126.97-84.37,128.4,0Z" fill="#e9a5b4" stroke="#0b0400" stroke-miterlimit="10" stroke-width="4"/><path d="M221.85,81.43c10.06,40.66,71.27,40.64,81.32,0" fill="none" stroke="#0b0400" stroke-miterlimit="10" stroke-width="2"/><path d="M257.15,50.68c-.09,21.58-21.01,21.58-21.1,0,.09-21.58,21.01-21.58,21.1,0Z" fill="#0b0400"/><path d="M288.97,50.68c-.09,21.58-21.01,21.58-21.1,0,.09-21.58,21.01-21.58,21.1,0Z" fill="#0b0400"/><path d="M231.37,70.29c-1.44,84.39-126.97,84.37-128.4,0,1.44-84.39,126.97-84.37,128.4,0Z" fill="#fefbee" stroke="#0b0400" stroke-miterlimit="10" stroke-width="2"/><path d="M231.37,70.29c-1.44,84.39-126.97,84.37-128.4,0,1.44-84.39,126.97-84.37,128.4,0Z" fill="#d35a78" stroke="#0b0400" stroke-miterlimit="10" stroke-width="4"/><path d="M126.51,81.43c10.06,40.66,71.27,40.64,81.32,0" fill="none" stroke="#0b0400" stroke-miterlimit="10" stroke-width="2"/><path d="M161.81,50.68c-.09,21.58-21.01,21.58-21.1,0,.09-21.58,21.01-21.58,21.1,0Z" fill="#0b0400"/><path d="M193.63,50.68c-.09,21.58-21.01,21.58-21.1,0,.09-21.58,21.01-21.58,21.1,0Z" fill="#0b0400"/><path d="M135.4,70.29c-1.44,84.39-126.97,84.38-128.4,0,1.44-84.39,126.97-84.37,128.4,0Z" fill="#fefbee" stroke="#0b0400" stroke-miterlimit="10" stroke-width="2"/><path d="M135.4,70.29c-1.44,84.39-126.97,84.38-128.4,0,1.44-84.39,126.97-84.37,128.4,0Z" fill="#fefbee" stroke="#0b0400" stroke-miterlimit="10" stroke-width="4"/><path d="M30.54,81.43c10.06,40.66,71.27,40.64,81.32,0" fill="none" stroke="#0b0400" stroke-miterlimit="10" stroke-width="2"/><path d="M65.84,50.68c-.09,21.58-21.01,21.58-21.1,0,.09-21.58,21.01-21.58,21.1,0Z" fill="#0b0400"/><path d="M97.66,50.68c-.09,21.58-21.01,21.58-21.1,0,.09-21.58,21.01-21.58,21.1,0Z" fill="#0b0400"/></svg>