<svg width="40" height="40" viewBox="0 0 40 40" fill="none" xmlns="http://www.w3.org/2000/svg">
<path d="M30.2271 7.05737C28.9486 7.05737 27.9116 8.09432 27.9116 9.3729C27.9116 10.6515 28.9486 11.6884 30.2271 11.6884C31.5057 11.6884 32.5426 10.6515 32.5426 9.3729C32.5426 8.09432 31.5057 7.05737 30.2271 7.05737Z" fill="white"/>
<path d="M19.9286 10.0322C14.5626 10.0322 10.1934 14.4015 10.1934 19.7675C10.1934 25.1335 14.5626 29.5028 19.9286 29.5028C25.2946 29.5028 29.6639 25.1335 29.6639 19.7675C29.6639 14.4015 25.2946 10.0322 19.9286 10.0322ZM19.9286 25.9993C16.4906 25.9993 13.6918 23.2005 13.6918 19.7625C13.6918 16.3244 16.4906 13.5256 19.9286 13.5256C23.3667 13.5256 26.1654 16.3244 26.1654 19.7625C26.1654 23.2005 23.3667 25.9993 19.9286 25.9993Z" fill="white"/>
<path d="M27.6554 39.53H11.8746C5.32569 39.53 0 34.2043 0 27.6554V11.8746C0 5.3257 5.32569 0 11.8746 0H27.6554C34.2043 0 39.53 5.3257 39.53 11.8746V27.6554C39.53 34.2043 34.2043 39.53 27.6554 39.53ZM11.8746 3.71994C7.37945 3.71994 3.71995 7.37947 3.71995 11.8746V27.6554C3.71995 32.1505 7.37945 35.8101 11.8746 35.8101H27.6554C32.1505 35.8101 35.8101 32.1505 35.8101 27.6554V11.8746C35.8101 7.37947 32.1505 3.71994 27.6554 3.71994H11.8746Z" fill="white"/>
</svg>
