<?xml version="1.0" encoding="UTF-8"?>
<svg id="Layer_1" data-name="Layer 1" xmlns="http://www.w3.org/2000/svg" viewBox="0 0 250 250">
  <defs>
    <style>
      .cls-1 {
        fill: #fff;
        stroke-width: 0px;
      }
    </style>
  </defs>
  <path class="cls-1" d="M125.19,12.8c15.63,0,31.25-.04,46.88,0,31.28.09,57.53,21.38,63.76,51.85.9,4.39,1.3,8.95,1.32,13.44.11,31.25.09,62.51.05,93.76-.04,33.49-24.05,60.7-57.23,64.86-2.6.33-5.24.46-7.86.46-31.39.03-62.78.07-94.17,0-31.28-.06-57.46-21.32-63.77-51.85-.88-4.26-1.3-8.68-1.32-13.03-.11-31.46-.14-62.91-.03-94.37.1-27.91,16.51-51.39,42.5-61.19,7.39-2.79,15.09-3.95,22.97-3.95,15.63,0,31.25,0,46.88,0ZM216.46,125.56c0-16.03,0-32.06,0-48.1,0-24.33-18.98-43.38-43.3-43.39-32.06-.02-64.13-.01-96.19,0-24.47,0-43.4,18.96-43.42,43.47-.02,32.06-.02,64.13,0,96.19.02,24.3,19.08,43.31,43.4,43.31,32.06,0,64.13,0,96.19,0,24.28,0,43.31-19.07,43.31-43.39,0-16.03,0-32.06,0-48.1Z"/>
  <path class="cls-1" d="M125.09,67.3c32.16.07,58.2,26.2,58.14,58.33-.06,32.2-26.16,58.22-58.3,58.14-32.21-.08-58.23-26.17-58.14-58.3.09-32.2,26.2-58.25,58.3-58.17ZM162.69,125.65c.05-20.74-16.73-37.73-37.34-37.8-20.99-.08-37.97,16.67-38.04,37.52-.07,20.92,16.76,37.87,37.65,37.92,20.76.05,37.68-16.83,37.72-37.63Z"/>
  <path class="cls-1" d="M198.71,65.27c-.05,7.53-6.19,13.53-13.74,13.43-7.44-.1-13.45-6.21-13.4-13.61.05-7.52,6.2-13.62,13.68-13.56,7.53.06,13.52,6.16,13.46,13.73Z"/>
</svg>