<?xml version="1.0" encoding="UTF-8"?><svg id="a" xmlns="http://www.w3.org/2000/svg" xmlns:xlink="http://www.w3.org/1999/xlink" viewBox="0 0 417.16 486.56"><defs><filter id="b" x="-1.44" y="-1.72" width="424" height="494" filterUnits="userSpaceOnUse"><feOffset dx="2" dy="2"/><feGaussianBlur result="c" stdDeviation="1"/><feFlood flood-color="#4a2600" flood-opacity=".25"/><feComposite in2="c" operator="in"/><feComposite in="SourceGraphic"/></filter></defs><g filter="url(#b)"><path d="M123.19,486.56c-18.09-.02-31.73-14.48-31.76-32.79C-23.96,457.57,7.51,380.76.32,314.9c-1.25-20.32.37-40.83,20.64-50.48,2.28-3.73,5.08-7.73,8.52-11.83l-.26-74.68c-31.14-11.36-32.41-65.2,1.14-75.14.17-.05,326.23-100.75,326.23-100.75,29.84-10.37,61.27,20.93,50.94,50.81,20.12,21.97,6.92,61.05-22.58,66.2l-.05-.26c-10.62,2.57-250.07,45.17-267.77,48.52l.16,45.81c2.57-.12,5.18-.18,7.8-.18,31.37-18.59,100.27-20.53,137.24,4.58,31.06-3.75,116.17,18.26,129.5,78.85-3.91,63.98,19.85,169.21-90.04,156.64.07,18.37-13.66,32.93-31.55,33.03,0,0-147.04.52-147.04.52Z" fill="#fafbf3"/><polygon points="60.93 266.94 60.46 132.95 85.59 133.39 86 250.45 60.93 266.94" fill="#ffbf6b" stroke="#380b08" stroke-linecap="round" stroke-linejoin="round" stroke-width="4"/><line x1="73.98" y1="132.9" x2="74.27" y2="217.07" fill="none" stroke="#380b08" stroke-linecap="round" stroke-linejoin="round" stroke-width="4"/><line x1="74.34" y1="235.27" x2="74.41" y2="255.58" fill="none" stroke="#380b08" stroke-linecap="round" stroke-linejoin="round" stroke-width="4"/><path d="M42.49,292.03s14.21-51.16,90.08-47.5c0,0,57.42-36.92,121.66,4.8,0,0,71.33-7.91,100.57,41.59l-312.32,1.11Z" fill="#ffbf6b" stroke="#380b08" stroke-linecap="round" stroke-linejoin="round" stroke-width="4"/><path d="M254.24,249.33s-57.54,3.66-95.33,42.29" fill="none" stroke="#380b08" stroke-linecap="round" stroke-linejoin="round" stroke-width="4"/><path d="M132.58,244.53s43.31,3.61,61.51,21.94" fill="none" stroke="#380b08" stroke-linecap="round" stroke-linejoin="round" stroke-width="4"/><path d="M196.02,291.48c2.03-6.38,58.7-35.57,97.51-19.02" fill="none" stroke="#380b08" stroke-linecap="round" stroke-linejoin="round" stroke-width="4"/><path d="M308.19,279.44s16.15,5.14,20.53,11.57" fill="none" stroke="#380b08" stroke-linecap="round" stroke-linejoin="round" stroke-width="4"/><path d="M163.31,250.46s30.67-13.56,60.64,4.6" fill="none" stroke="#380b08" stroke-linecap="round" stroke-linejoin="round" stroke-width="4"/><path d="M178.7,275.34s-33.68-25.63-86.37-8.52" fill="none" stroke="#380b08" stroke-linecap="round" stroke-linejoin="round" stroke-width="4"/><path d="M74.48,275.71s-12.18,8.93-13.46,16.25" fill="none" stroke="#380b08" stroke-linecap="round" stroke-linejoin="round" stroke-width="4"/><path d="M84.57,291.88s15.64-16.26,53.14-13.42" fill="none" stroke="#380b08" stroke-linecap="round" stroke-linejoin="round" stroke-width="4"/><path d="M246.61,435.91c28-.1,23.51,18.72,23.51,18.72-36.65.13-110.4.39-147.04.52,0,0-4.63-18.78,23.38-18.88l100.15-.36Z" fill="#25ae9f" stroke="#380b08" stroke-linecap="round" stroke-linejoin="round" stroke-width="4"/><path d="M331.35,436.1s-269.64.95-269.64.95c-16.25.06-29.6-13.19-29.66-29.45,1.26-1.33-2.86-115.8.9-115.54,1.54,1.37,327.54-3.73,327.43.15,0,0,.41,114.23.41,114.23.06,16.25-13.19,29.6-29.45,29.66Z" fill="#25ae9f" stroke="#380b08" stroke-linecap="round" stroke-linejoin="round" stroke-width="4"/><line x1="31.73" y1="314.79" x2="360.47" y2="313.62" fill="none" stroke="#380b08" stroke-linecap="round" stroke-linejoin="round" stroke-width="4"/><path d="M40.12,132.62L365.85,32.04c4.9-1.51,10.11,1.23,11.62,6.14s-1.23,10.11-6.14,11.62c-.11.04-328.61,91.08-328.77,91.13-5.24,1.41-7.89-6.52-2.43-8.3h0Z" fill="#fe4a4d" stroke="#380b08" stroke-linecap="round" stroke-linejoin="round" stroke-width="4"/><path d="M41.05,140.3l333.6-70.18c5.02-1.06,9.95,2.16,11.01,7.18,1.06,5.02-2.16,9.95-7.18,11.01-.11.03-335.59,60.45-335.76,60.49-5.35.92-7.26-7.21-1.66-8.49h0Z" fill="#fe4a4d" stroke="#380b08" stroke-linecap="round" stroke-linejoin="round" stroke-width="4"/></g></svg>