<?xml version="1.0" encoding="UTF-8"?><svg id="a" xmlns="http://www.w3.org/2000/svg" viewBox="0 0 99.69 96.45"><path d="M51.71,90.95c-2.82,0-5.2-2.15-5.47-4.98l-.64-6.82c-3.62,2.31-7.69,3.62-11.91,3.62h0c-5.18,0-13.02-1.94-21-11.21-.11-.13-.21-.26-.31-.4-8.42-11.82-9.13-27.27-1.89-41.32C18.1,15.05,32.87,5.5,48.1,5.5c.53,0,1.05.01,1.58.03h.04c13.22,0,24.54,4.54,32.71,13.12,7.29,7.65,11.45,17.9,11.74,28.88.51,19.84-12.47,41.88-42.17,43.41-.1,0-.19,0-.29,0ZM46.44,29.1c11.99,8.02,14.23,20.8,12.02,30.83-.54,2.44-1.34,4.77-2.35,6.93,7.69-1.76,14.77-7.06,14.66-17.76-.1-9.97-7.38-20.07-21.11-20.07-.12,0-.35,0-.47-.01-.32-.02-.63-.03-.95-.03-.61,0-1.21.04-1.8.11ZM32.51,58.47c.35.34.58.47.68.51.78-.28,2.32-2.47,2.11-4.88-.02-.19-.02-.38-.02-.57.04-2.65-1.21-4.6-3.7-5.79-.73-.35-1.34-.83-1.83-1.41-.9,4.63.05,8.96,2.77,12.14Z" fill="#d35a78"/><path d="M48.1,11c.49,0,.98.01,1.47.03.05,0,.1,0,.15,0,49.93,0,53.24,71.78,1.99,74.41l-1.17-12.4c36.38-.7,32.45-49.51-.88-49.51-.03,0-.06,0-.1,0-.44-.03-.88-.05-1.32-.05-17.92,0-31.92,24.85-19.77,38.72,1.56,1.61,3.18,2.29,4.71,2.29,4.4,0,8.07-5.62,7.6-10.88.07-4.97-2.53-8.79-6.84-10.84l5.27-11.43c25.47,11.83,13.36,45.92-5.53,45.92-5.3,0-11.14-2.68-16.83-9.3C.55,45.09,20.89,11,48.1,11M48.1,0C30.83,0,14.15,10.72,5.6,27.32c-8.2,15.92-7.35,33.5,2.3,47.03.19.27.4.54.62.79,9.33,10.84,18.84,13.12,25.17,13.12,2.43,0,4.84-.34,7.18-.99.88,5.28,5.47,9.18,10.84,9.18.19,0,.38,0,.57-.01,14.84-.76,27.26-6.41,35.91-16.33,7.72-8.84,11.79-20.46,11.48-32.71C99.07,23.87,81.74.07,49.79.03c-.56-.02-1.13-.03-1.7-.03h0ZM64.73,53.33c.05-4.58-.78-8.99-2.4-13.05,1.96,2.61,2.92,5.79,2.95,8.87.02,1.58-.18,2.96-.54,4.18h0Z" fill="#f8f9ee"/><path d="M51.71,87.45c-1.02,0-1.89-.78-1.99-1.81l-1.17-12.4c-.05-.55.13-1.1.5-1.52.37-.42.9-.66,1.45-.67,11.93-.23,23.91-7.11,23.77-21.98-.11-11.69-8.6-23.53-24.61-23.53-.05,0-.19,0-.23,0-.4-.03-.79-.04-1.19-.04-9.34,0-16.85,7.34-20.15,14.62-3.48,7.67-2.79,15.42,1.84,20.74,1.07,1.09,2.16,1.65,3.24,1.65h0c1.1,0,2.26-.6,3.26-1.7,1.64-1.79,2.56-4.55,2.34-7.01,0-.07,0-.14,0-.21.06-4.03-1.96-7.23-5.7-9-.99-.47-1.41-1.65-.96-2.64l5.27-11.43c.22-.48.63-.86,1.13-1.04.22-.08.46-.12.69-.12.29,0,.58.06.84.19,14.39,6.69,17.18,19.7,14.98,29.65-2.57,11.64-11.55,20.08-21.35,20.09h0c-6.37,0-12.72-3.46-18.34-9.99-.04-.05-.08-.09-.11-.14-7.65-10.73-8.26-24.82-1.63-37.69,7.02-13.63,20.57-22.44,34.5-22.44.52,0,1.04.01,1.56.04h.06c12.24,0,22.68,4.16,30.18,12.03,6.69,7.02,10.51,16.45,10.77,26.56.47,18.19-11.49,38.42-38.85,39.82-.04,0-.07,0-.1,0Z" fill="#d35a78"/><path d="M48.1,11c.49,0,.98.01,1.47.03.05,0,.1,0,.15,0,49.93,0,53.24,71.78,1.99,74.41l-1.17-12.4c36.38-.7,32.45-49.51-.88-49.51-.03,0-.06,0-.1,0-.44-.03-.88-.05-1.32-.05-17.92,0-31.92,24.85-19.77,38.72,1.56,1.61,3.18,2.29,4.71,2.29,4.4,0,8.07-5.62,7.6-10.88.07-4.97-2.53-8.79-6.84-10.84l5.27-11.43c25.47,11.83,13.36,45.92-5.53,45.92-5.3,0-11.14-2.68-16.83-9.3C.55,45.09,20.89,11,48.1,11M48.1,7c-14.67,0-28.91,9.23-36.28,23.52-6.98,13.54-6.32,28.41,1.77,39.76.07.1.15.2.23.29,7.6,8.83,15,10.69,19.86,10.69s9.31-1.78,13.16-4.85l.89,9.41c.19,2.06,1.93,3.62,3.98,3.62.07,0,.14,0,.21,0,28.7-1.48,41.24-22.74,40.75-41.87-.27-10.6-4.29-20.51-11.32-27.88-7.89-8.28-18.82-12.65-31.63-12.65h-.07c-.52-.02-1.04-.03-1.55-.03h0ZM42.55,28.53c1.79-.67,3.7-1.04,5.7-1.04.35,0,.7.01,1.05.04.09,0,.18,0,.27,0,0,0,0,0,.01,0h.09c14.71,0,22.51,10.84,22.61,21.55.08,8.46-4.9,18.34-18.92,19.79,1.64-2.76,2.89-5.89,3.64-9.26,2.28-10.32-.41-23.69-14.44-31.08h0ZM31.41,59.49c-4.07-4.71-4.63-11.64-1.49-18.55.63-1.39,1.42-2.78,2.36-4.12l-1.97,4.28c-.92,1.99-.07,4.35,1.91,5.29,2.11,1.01,4.62,3.07,4.56,7.17,0,.14,0,.28.02.41.17,1.9-.57,4.1-1.83,5.48-.61.67-1.26,1.05-1.79,1.05-.65,0-1.36-.6-1.77-1.01h0Z"/></svg>