<?xml version="1.0" encoding="UTF-8"?><svg id="a" xmlns="http://www.w3.org/2000/svg" xmlns:xlink="http://www.w3.org/1999/xlink" viewBox="0 0 264.96 244.62"><defs><filter id="b" x="-1.41" y="-1.72" width="272" height="252" filterUnits="userSpaceOnUse"><feOffset dx="2" dy="2"/><feGaussianBlur result="c" stdDeviation="1"/><feFlood flood-color="#4a2600" flood-opacity=".25"/><feComposite in2="c" operator="in"/><feComposite in="SourceGraphic"/></filter></defs><g filter="url(#b)"><path d="M97.62,244.48c-5.65,2.34-57.44-25.37-63.33-27.29-5-2.34-8.9-6.74-10.66-12.04-.43-1.46-22.69-67.34-22.97-68.72-3.16-11.49,5.44-24.19,17.41-25.28-7.45-16.29-24.23-39.78.19-50.8,8.62-4.88,41.39,7.66,50.38,8.87-3.19-16.05,15.87-29.52,29.99-21.11,0,0,69.82,38.48,69.82,38.48,0,0-10.02-57.91-10.02-57.91-1.89-10.98,5.48-21.55,16.42-23.57,7.58-.71,29.95-7.61,37.18-4.16,3.55.22,36.23,26.53,39.85,28.84,7.18,5.42,9.97,15.1,6.79,23.52-5.47,14.4-19.59,13.96-32.41,12.23,0,0,37.04,82.95,37.09,83.07,3.14,7.16,1.57,16-3.72,21.75-4.29,3.55-59.56,69.11-64.55,68.52.51,2.46-94.77,4.93-97.46,5.58Z" fill="#fafbf3"/><polygon points="197.79 124.63 207.37 168.42 241.85 155.48 192.26 44.41 183.76 43.52 197.79 124.63" fill="#ffabb1"/><polygon points="185.71 215.91 193.69 126.5 98.01 99.82 33.27 83.4 185.71 215.91" fill="#ffabb1"/><polygon points="203.83 170.96 196.66 138.18 190.63 205.71 203.83 170.96" fill="#ffabb1"/><polygon points="31.52 87.18 62.26 152.01 97.9 222.02 182.26 218.22 31.52 87.18" fill="#ffabb1"/><polygon points="86.61 208.67 58.96 154.36 28.44 137.98 86.61 208.67" fill="#ffabb1"/><polygon points="89.49 218.46 25.8 141.06 44.64 197.28 89.49 218.46" fill="#ffabb1"/><polygon points="179.82 118.48 92.17 70.17 100.11 96.25 179.82 118.48" fill="#ffabb1"/><polygon points="198.64 23.53 180.87 26.82 182.74 37.58 198.64 23.53" fill="#ffabb1"/><polygon points="207.46 172.66 193 210.74 237.56 161.37 207.46 172.66" fill="#ffabb1"/><polygon points="186.31 39.76 193.78 40.55 232.91 43.58 205.47 22.83 186.31 39.76" fill="#ffabb1"/><path d="M246.33,157.49s.02-.03.02-.04c.07-.15.12-.32.15-.48,0-.04.01-.08.02-.12.02-.15.02-.29,0-.44,0-.03,0-.05,0-.08-.02-.14-.05-.29-.11-.43,0-.02-.02-.04-.03-.07,0-.01,0-.03-.01-.05l-49.56-110.99,42.6,3.29c.87.06,1.71-.46,2.02-1.29.31-.83.04-1.77-.66-2.3l-34.2-25.85s0,0,0,0c-.11-.08-.23-.15-.35-.21-.01,0-.02,0-.03-.01-.11-.05-.23-.09-.35-.12-.03,0-.07,0-.1-.02-.1-.02-.2-.03-.29-.04-.04,0-.09,0-.14,0-.09,0-.17,0-.26.02-.02,0-.03,0-.05,0l-26.8,4.96c-1.08.2-1.79,1.23-1.61,2.31l16.55,95.71-103.36-56.97c-.71-.39-1.59-.31-2.23.2-.63.51-.89,1.36-.65,2.14l8.66,28.45-69.46-17.61s-.05,0-.07,0c-.14-.03-.29-.05-.44-.05-.03,0-.05,0-.08,0-.17,0-.33.04-.49.09-.03.01-.06.02-.1.04-.13.05-.25.11-.37.18-.03.02-.06.04-.1.06-.13.09-.25.19-.36.32,0,0-.01.02-.02.03,0,0-.01,0-.02.02-.02.02-.02.04-.04.06-.09.11-.16.24-.22.36-.02.04-.04.08-.05.12-.12.31-.16.65-.12.98,0,.04.01.08.02.13.03.15.07.3.14.45,0,0,0,.02,0,.03v.02s.01,0,.01,0l32.23,67.98-34.65-18.59s0,0,0,0c-.16-.08-.33-.14-.5-.18-.04,0-.08-.02-.12-.02-.17-.03-.34-.04-.52-.02-.01,0-.02,0-.03,0-.16.02-.32.06-.48.12-.04.01-.08.03-.11.05-.16.07-.31.16-.45.27,0,0,0,0-.01.01,0,0,0,0,0,0,0,0-.01.02-.02.03-.13.11-.24.24-.33.38-.02.03-.05.07-.07.1-.09.15-.16.31-.21.47,0,.02,0,.03,0,.05-.04.16-.06.31-.06.47,0,.04,0,.08,0,.12,0,.17.04.35.09.52,0,0,0,.02,0,.02l22.55,67.29c.17.52.55.94,1.04,1.17l53.69,25.35s0,0,0,0c.09.04.18.07.27.09.05.01.09.04.14.05.13.03.26.04.39.04.02,0,.03,0,.05,0h0s.06,0,.09,0l90.65-4.09s.09-.01.13-.02c.07,0,.14-.02.21-.03.04,0,.08-.02.12-.03.03,0,.06-.02.1-.03.04-.01.07-.02.11-.03.02,0,.03-.02.04-.02.09-.04.18-.09.27-.14.03-.02.06-.03.09-.05.02-.01.04-.03.06-.04.02-.02.04-.04.07-.06.07-.06.14-.12.21-.19l57.2-63.38s.02-.04.04-.05c.1-.12.2-.26.27-.4ZM97.9,222.02l-35.64-70.01-30.74-64.83,150.74,131.04-84.36,3.8ZM58.96,154.36l27.65,54.31-58.17-70.69,30.52,16.38ZM98.01,99.82l95.68,26.69-7.98,89.41L33.27,83.4l64.74,16.41ZM192.26,44.41l49.6,111.07-34.48,12.94-9.58-43.8-14.03-81.11,8.49.9ZM203.83,170.96l-13.2,34.76,6.03-67.53,7.17,32.77ZM207.46,172.66l30.09-11.3-44.55,49.38,14.46-38.08ZM193.78,40.55l-7.48-.79,19.16-16.94,27.45,20.75-39.13-3.02ZM198.64,23.53l-15.9,14.05-1.86-10.77,17.76-3.29ZM179.82,118.48l-79.71-22.23-7.94-26.08,87.65,48.31ZM89.49,218.46l-44.85-21.18-18.84-56.22,63.69,77.4Z" fill="#380b08"/></g></svg>