<?xml version="1.0" encoding="UTF-8"?><svg id="a" xmlns="http://www.w3.org/2000/svg" xmlns:xlink="http://www.w3.org/1999/xlink" viewBox="0 0 455.77 501.58"><defs><filter id="b" x="-1.71" y="-1.23" width="463" height="508" filterUnits="userSpaceOnUse"><feOffset dx="2" dy="2"/><feGaussianBlur result="c" stdDeviation="1"/><feFlood flood-color="#4a2600" flood-opacity=".25"/><feComposite in2="c" operator="in"/><feComposite in="SourceGraphic"/></filter></defs><g filter="url(#b)"><path d="M104.82,501.57c-79.1,1.4-96.91-88.07-84.91-158.1-22.82-15.46-22-59.23-17.07-73.23,1.11-63.42,42.25-102.17,81.62-118.43,1.26-2.17,2.67-4.35,4.27-6.25,2.29-30.33,11.56-55.88,27.62-76.12,8.78-43.72,52.41-100.77,101.57-48.62,13.82-.64,22.25-.65,35.67-.1,19.89-24.65,60.42-30.19,80.74,1.67,44.35-24.37,90.27,8.78,88.01,52.38,7.54,17.77,24.51,70.34,15.23,167.64,29.27,97.37,44,317.87-124.09,244.08-44.26,8.15-106.7,8.3-149.89-1.14-11.54,6.25-33.74,16.15-58.78,16.22Z" fill="#fafbf3"/><path d="M252.08,468.71c18.52-.68,36.7-3.07,53.78-6.96l-130.7-.61c23.75,5.93,49.9,8.56,76.92,7.57Z" fill="none"/><path d="M178.24,25.85c-1.08,0-2.16.1-3.23.3-14,2.59-27.24,21.72-33.9,48.38,2.46-2.5,5.07-4.86,7.81-7.11,3.13-11.1,12.54-32.42,26.07-34.63,6.99-1.14,13.89,2.86,20.52,11.89,2.46-.61,4.95-1.15,7.46-1.64-7.96-11.31-16.41-17.19-24.73-17.19Z" fill="#fafbf3"/><path d="M141.11,74.53c6.65-26.66,19.89-45.79,33.9-48.38,1.08-.2,2.15-.3,3.23-.3,8.32,0,16.76,5.87,24.73,17.19,1.44-.28,2.88-.53,4.33-.77-7.46-11.08-18.89-22.66-33.02-20.05-19.23,3.56-33.19,31.55-38.49,57.71-.03.16-.03.32-.03.48,1.7-2.03,3.49-3.98,5.35-5.87Z"/><path d="M296.54,25.81c-9.61-1.72-19.44,4.53-28.56,18.06,2.49.52,4.95,1.08,7.38,1.7,6.82-9.84,13.96-14.27,21.24-13.13,13.59,2.14,23.14,23.58,26.3,34.62.02.08.02.16.03.24,2.71,1.99,5.27,4.07,7.66,6.23-6.84-26.38-20.11-45.22-34.04-47.72Z" fill="#fafbf3"/><path d="M267.97,43.88c9.13-13.54,18.96-19.78,28.56-18.06,13.93,2.5,27.21,21.35,34.04,47.72.23.21.47.41.7.62-.38-4.15-.24-7.84.26-11.12-7.05-20.37-19.06-38.43-34.3-41.16-14.55-2.61-26.14,9.78-33.53,21.17.67.12,1.34.23,2.01.36.76.15,1.5.32,2.25.47Z"/><path d="M177.27,36.6c-.55,0-1.1.04-1.65.13-9.07,1.48-16.97,15.26-21.09,26.37,7.53-5.37,15.93-9.89,25.2-13.47,3.76-1.45,7.64-2.72,11.6-3.84-4.77-6.11-9.48-9.19-14.06-9.19Z" fill="#ffabb1"/><path d="M174.98,32.79c-13.52,2.21-22.93,23.53-26.07,34.63,1.82-1.49,3.69-2.93,5.62-4.31,4.12-11.11,12.01-24.89,21.09-26.37.55-.09,1.1-.13,1.65-.13,4.58,0,9.29,3.08,14.06,9.19,1.38-.39,2.77-.77,4.17-1.12-6.63-9.03-13.53-13.03-20.52-11.89Z"/><path d="M295.97,36.4c-5.37-.85-10.92,2.61-16.51,10.28l.1.04c14.12,4.03,27.07,9.8,37.99,16.87-4.08-11.23-12.24-25.72-21.58-27.19Z" fill="#ffabb1"/><path d="M296.6,32.45c-7.28-1.14-14.42,3.28-21.24,13.13,1.41.36,2.81.75,4.21,1.15l-.1-.04c5.59-7.67,11.14-11.13,16.51-10.28,9.34,1.47,17.5,15.96,21.58,27.19,1.85,1.2,3.64,2.44,5.37,3.72-.01-.08,0-.16-.03-.24-3.15-11.04-12.71-32.48-26.3-34.62Z"/><path d="M54.83,247.66c.05,0,.17,0,.25.02,4.11.51,7.69,1.47,10.82,2.73,13.59-41.2,35.96-69.78,41.78-76.78-1.43-.59-2.74-1.18-3.94-1.8-3.61,1.06-20.74,6.57-37.63,20.02-22.83,18.18-35.44,42.3-37.58,71.81.68-1.1,1.45-2.25,2.32-3.39,6.24-8.22,14.53-12.58,23.98-12.6Z" fill="#fafbf3"/><path d="M372.45,439.71c-14.44,9.09-31.78,16.56-50.87,22.1,36.29,17.49,63.9,18.63,82.09,3.36,25.45-21.36,28.45-71.24,26.48-109.33-.47-9.18-1.26-18.28-2.24-27.13-.43,21.73-4.51,41.52-12.17,58.87-9.27,21-23.83,38.54-43.28,52.13Z" fill="#fafbf3"/><path d="M295.32,209.76c1.3,7.28,2.64,14.8,5.3,19.51.05.08.09.17.12.26,1.51,3.88,4.9,7.15,8.91,8.99.48-.66,1.1-1.23,1.85-1.67,2.11-1.24,4.95-1.25,7.07-.02,1.05.61,1.85,1.48,2.37,2.52,2.35-.92,4.81-2.88,6.01-6.99.31-1.06,1.42-1.66,2.48-1.35,1.06.31,1.67,1.42,1.35,2.48-1.48,5.03-4.77,8.48-9.26,9.9-.26,1.89-1.29,3.48-2.93,4.45-1.06.62-2.31.94-3.55.94s-2.46-.31-3.52-.92c-1.94-1.13-3.05-3.12-3.04-5.47-5.1-2.18-9.43-6.26-11.42-11.26-2.95-5.3-4.34-13.11-5.69-20.65-1.66-9.28-3.37-18.82-7.77-23.24-3.11.19-6.31.35-9.57.5,2.66,4.63,4.3,10.3,4.44,17.09v.07c-.32,22.74-17.58,33.14-33.48,33.18-.03,0-.07,0-.1,0-15.87,0-33.11-10.31-33.56-33,.09-6.62,1.62-12.19,4.13-16.78-3.12-.08-6.21-.18-9.27-.29-6.06,4.4-10.89,12.7-11.61,20.63,0,.05-.01.11-.02.16-.47,2.68-.86,5.5-1.24,8.23-1.49,10.71-3.11,22.29-10.02,29.22.13.53.19,1.09.19,1.68.03,2.36-1.06,4.37-3.01,5.51-1.06.62-2.31.94-3.55.94-1.23,0-2.46-.31-3.52-.92-.65-.38-1.2-.86-1.65-1.41-1.8.32-3.76.49-5.9.49-.97,0-1.99-.04-3.04-.11-1.1-.08-1.93-1.03-1.86-2.13s1.03-1.94,2.13-1.86c2.73.19,5.14.1,7.29-.22,0-.1-.02-.19-.01-.29-.04-2.32,1.06-4.34,3.01-5.48,2.11-1.24,4.95-1.25,7.07-.02.23.13.44.28.65.43,5.42-5.88,6.78-15.7,8.27-26.38.38-2.74.77-5.56,1.24-8.28.69-7.4,4.57-15.11,9.8-20.43-38.41-1.74-70.39-6.25-88.75-12.62-3.5,4.07-27.82,33.37-42.1,76.99,8.12,4.4,12.5,11.05,14.86,16.74,4.64,11.23,4.09,25.28-.88,37.56,0,.05.02.1.02.15.02.67-.29,1.27-.79,1.64-1.7,3.79-3.8,7.4-6.34,10.65-4.86,6.23-10.69,10.47-17.07,12.55.29,48.36,23.39,86.68,66.93,110.89,14.5,8.06,31.01,14.39,48.89,18.85l130.7.61c24.48-5.58,46.69-14.24,64.38-25.37,35.61-24.88,53.71-62.41,53.71-111.49,0-30.71-7.56-65.8-21.3-98.82-11.88-28.56-24.92-47.44-32.65-53.78-13.37,5.91-40.16,11.84-81.54,14.62,3.77,5.67,5.33,14.35,6.85,22.85ZM317.96,342.64c-.73,51.4-39.74,74.92-75.68,75.02-.08,0-.16,0-.23,0-35.88,0-74.85-23.31-75.87-74.6.73-51.47,39.74-74.99,75.68-75.09h.23c35.88,0,74.86,23.31,75.87,74.6v.07Z" fill="#fafbf3"/><path d="M55.86,328.2c.37-.4.89-.66,1.47-.66h.01c.2,0,.38.04.56.09,5.72-1.82,10.97-5.61,15.36-11.24,1.85-2.38,3.47-4.98,4.84-7.72-.26,0-.52.01-.78.01-3.79,0-7.6-.15-11.36-.45-1.1-.09-1.92-1.05-1.83-2.15.09-1.1,1.06-1.93,2.15-1.83,4.5.36,9.06.49,13.59.4,1.2-3.04,2.11-6.19,2.72-9.39-3.88-.42-7.79-.49-11.68-.17-1.09.09-2.07-.73-2.16-1.83-.09-1.1.73-2.07,1.83-2.16,4.2-.35,8.44-.27,12.63.2.42-3.69.43-7.36.01-10.89-4.31-.11-8.65.14-12.91.78-.1.02-.2.02-.3.02-.97,0-1.83-.71-1.98-1.7-.16-1.09.59-2.11,1.68-2.28,4.24-.64,8.55-.9,12.85-.83-.46-2.09-1.06-4.11-1.85-6.02-3.07-7.42-10.07-16.69-26-18.72-19.53.14-26.23,20.96-26.59,22.13-.11.41-7.4,27.13,2.15,43.39,3.45,5.88,8.78,9.72,15.83,11.42,3.34.48,6.61.33,9.76-.4Z" fill="#fafbf3"/><path d="M380.06,55.01c-.32.77-1.06,1.24-1.85,1.24-.25,0-.51-.05-.76-.15-1.02-.42-1.51-1.59-1.09-2.61,1.43-3.47,1.82-7.33,1.15-11.01-3.42-1.4-7.02-2.25-10.64-2.52.52,3.79.45,9.13-.19,12.68-.17.97-1.02,1.65-1.97,1.65-.12,0-.24-.01-.36-.03-1.09-.2-1.81-1.24-1.61-2.32.59-3.27.64-8.47.11-11.84-.01-.07,0-.13-.01-.2-4.04.15-7.99,1.02-11.57,2.59,0,.07,0,.13,0,.2-.3,3.41.25,6.88,1.58,10.03.43,1.02-.05,2.19-1.06,2.62-.25.11-.52.16-.78.16-.78,0-1.52-.46-1.84-1.22-1.28-3.03-1.94-6.31-1.97-9.59-.15.1-.31.19-.46.29-9.75,6.7-13.56,18.74-10.77,33.93,2.59,2.95,4.98,6.07,7.2,9.34.02.02.05.04.07.07,3.79,4.6,13.11,7.72,22.73,7.58,9.55-.13,17.55-3.46,21.94-9.11.68-.87,1.94-1.03,2.81-.35.87.68,1.03,1.93.35,2.81-5.14,6.62-14.27,10.51-25.04,10.66-.22,0-.45,0-.67,0-6.26,0-12.31-1.25-17.16-3.38,8.94,16.47,13.78,36.36,14.42,59.41,1.39-.3,2.18-.48,2.25-.49.27-.06.55-.07.83-.01,7.32,1.43,8.81,9.56,8.58,13.66-.03.46-.22.88-.52,1.21,10.49,9.64,26.6,35.96,38.52,69.64,3.12-32.92,4.79-79.03-3.38-120.79-5.13-26.23-11.8-38.43-11.87-38.55-.21-.38-.29-.83-.23-1.26,2.16-14.8-3.03-27.29-14.23-34.26-.27-.17-.55-.31-.83-.47.22,3.55-.35,7.13-1.71,10.43Z" fill="#fafbf3"/><path d="M47.21,332.74c-5.61,21.22-7.03,47.9-3.77,71.79,5.02,36.72,18.72,54.2,29.32,62.4,20.25,15.66,48.49,13.29,83.93-7.01-11.58-3.89-22.44-8.61-32.37-14.14-44.58-24.79-68.37-63.95-68.97-113.38-1.74.31-3.51.48-5.31.48-.94,0-1.88-.06-2.83-.14Z" fill="#fafbf3"/><path d="M332.63,81.12c-15.02-16.02-39.68-28.33-67.67-33.79-29.22-5.7-58.98-3.55-83.78,6.03-20.08,7.76-36.07,19.94-47.54,36.21-12.67,17.97-19.39,40.53-20.02,67.05,12.77,2.69,75.59,15.35,124.51,15.19,45.07-.12,101.9-11.16,120.54-15.05-.75-31.6-9.5-57.06-26.04-75.64ZM235.89,110.21c7.57-1.2,11.04,1.69,11.72,4.55.76,3.2-1.65,7.63-8.72,9.82-.19.06-.39.09-.59.09-.07,0-.13,0-.2,0-4.93-.49-9.68-5.31-9.41-9.56.07-1.18.84-4.99,7.19-4.88ZM212.69,97.99c-.39.39-.9.58-1.41.58s-1.03-.2-1.42-.59c-7.74-7.79-20.67-6.37-30.05-1.5-.98.51-2.19.13-2.7-.85-.51-.98-.13-2.19.85-2.7,10.68-5.54,25.56-7,34.73,2.23.78.78.77,2.05,0,2.83ZM137.43,111.34c.33-1.05,1.45-1.64,2.51-1.31,6.65,2.08,13.2,4.67,19.48,7.69,1,.48,1.41,1.67.94,2.67-.34.72-1.06,1.13-1.8,1.13-.29,0-.59-.06-.87-.2-6.1-2.94-12.48-5.45-18.94-7.48-1.05-.33-1.64-1.45-1.31-2.51ZM135,130.7c-1.1,0-2-.89-2-1.99,0-1.1.89-2,1.99-2.01l22.96-.06h0c1.1,0,2,.89,2,1.99,0,1.1-.89,2-1.99,2.01l-22.96.06h0ZM159.65,140.44l-18.61,6.23c-.21.07-.42.1-.64.1-.84,0-1.62-.53-1.9-1.37-.35-1.05.21-2.18,1.26-2.53l18.61-6.23c1.04-.35,2.18.21,2.53,1.26.35,1.05-.21,2.18-1.26,2.53ZM303.02,137.09c-.15.99-1,1.7-1.97,1.7-.1,0-.2,0-.3-.02-1.09-.17-2.16-.47-3.18-.88-5.46,7.17-11.41,9.67-17.48,9.67-7.45,0-15.08-3.77-22.21-7.29-9.73-4.81-18.92-9.35-27.38-5.76l-1.54.64c-15.4,6.42-40.85,17.02-51.62-.74-.45.35-.91.68-1.39.97-.32.19-.68.29-1.03.29-.68,0-1.34-.34-1.71-.97-.57-.95-.27-2.18.68-2.75,1.92-1.16,3.48-2.92,4.4-4.96.45-1.01,1.64-1.46,2.65-1,1.01.45,1.46,1.64,1,2.65-.45.99-1.01,1.93-1.66,2.8,8.74,16.01,32.73,6.03,47.15.02l1.53-.64c10.13-4.3,20.58.86,30.7,5.86,13.01,6.43,24.33,12,34.41-.81-.63-.49-1.21-1.03-1.75-1.63-.74-.82-.68-2.08.14-2.83.82-.74,2.08-.68,2.83.14.62.68,1.34,1.27,2.12,1.77.25.05.5.16.73.31.11.07.2.16.29.25.93.45,1.92.77,2.93.93,1.09.17,1.84,1.18,1.68,2.28ZM305.38,95.27c-.5.98-1.71,1.37-2.69.87-9.4-4.81-22.34-6.17-30.04,1.67-.39.4-.91.6-1.43.6s-1.01-.19-1.4-.57c-.79-.77-.8-2.04-.03-2.83,9.12-9.28,24.01-7.91,34.71-2.42.98.5,1.37,1.71.87,2.69ZM336.93,144.43c-.28.84-1.06,1.38-1.9,1.38-.21,0-.42-.03-.62-.1l-18.65-6.13c-1.05-.34-1.62-1.48-1.28-2.52.35-1.05,1.47-1.62,2.53-1.28l18.65,6.13c1.05.34,1.62,1.48,1.28,2.52ZM340.34,125.7c1.1,0,2,.89,2,1.99,0,1.1-.89,2-1.99,2.01l-22.96.06h0c-1.1,0-2-.89-2-1.99,0-1.1.89-2,1.99-2.01l22.96-.06h0ZM337.82,110.35c.34,1.05-.24,2.18-1.3,2.51-6.45,2.06-12.81,4.61-18.9,7.58-.28.14-.58.2-.88.2-.74,0-1.45-.41-1.8-1.12-.48-.99-.07-2.19.92-2.67,6.26-3.05,12.8-5.68,19.44-7.8,1.05-.34,2.18.24,2.51,1.3Z" fill="#fafbf3"/><path d="M111.29,156.13c.07.02.89.19,2.33.5.63-26.52,7.36-49.08,20.02-67.05,11.46-16.26,27.46-28.45,47.54-36.21,24.8-9.58,54.56-11.73,83.78-6.03,27.99,5.45,52.65,17.77,67.67,33.79,0,0-.01-.01-.02-.02-.73-.82-.66-2.09.16-2.82.83-.73,2.09-.66,2.82.16.13.15.26.31.39.46-2.79-15.19,1.02-27.23,10.77-33.93.15-.1.31-.19.46-.29,0-.78.01-1.57.08-2.35.09-1.1,1.06-1.91,2.17-1.82,1.03.09,1.8.95,1.82,1.97,3.58-1.57,7.53-2.44,11.57-2.59-.06-1.01.65-1.93,1.68-2.09,1.08-.17,2.11.58,2.28,1.67.02.15.04.33.06.49,3.61.28,7.22,1.13,10.64,2.52-.09-.5-.2-.99-.33-1.48-.28-1.04.32-2.1,1.34-2.42-11.35-4.44-24.55-3.42-34.03,3.08-4.63,3.18-11.15,9.63-12.95,21.37-.5,3.28-.64,6.97-.26,11.12-.23-.21-.47-.41-.7-.62-2.39-2.16-4.95-4.23-7.66-6.23-1.73-1.27-3.52-2.52-5.37-3.72-10.92-7.07-23.87-12.84-37.99-16.87-1.39-.4-2.79-.78-4.21-1.15-2.43-.62-4.9-1.18-7.38-1.7-.75-.16-1.49-.33-2.25-.47-.67-.13-1.34-.23-2.01-.36-19.11-3.49-38.4-3.72-56.42-.78-1.45.24-2.9.49-4.33.77-2.52.49-5.01,1.03-7.46,1.64-1.4.35-2.79.73-4.17,1.12-3.96,1.12-7.84,2.38-11.6,3.84-9.27,3.58-17.67,8.1-25.2,13.47-1.93,1.38-3.81,2.82-5.62,4.31-2.73,2.25-5.34,4.61-7.81,7.11-1.86,1.89-3.65,3.85-5.35,5.87-16.35,19.46-25.37,45.25-26.15,75.95.28-.08.55-.17.85-.23.27-.05.55-.05.83,0Z"/><path d="M434.15,355.63c-2.45-47.34-12.98-92.89-18.31-110.76,11.32-110.47-11.76-159.48-14.96-165.64,2.15-16.16-3.72-29.83-16.16-37.57-1.23-.76-2.5-1.43-3.8-2.04.05.11.1.23.14.36.4,1.51.63,3.06.73,4.61.27.16.56.31.83.47,11.2,6.97,16.39,19.46,14.23,34.26-.06.43.02.88.23,1.26.07.12,6.74,12.32,11.87,38.55,8.16,41.76,6.5,87.87,3.38,120.79,9.02,25.46,15.65,55.13,15.65,84.97,0,1.28-.02,2.55-.04,3.82.99,8.85,1.77,17.95,2.24,27.13,1.97,38.08-1.03,87.97-26.48,109.33-18.19,15.27-45.8,14.13-82.09-3.36-1.9.55-3.81,1.08-5.74,1.59.09.07.19.13.3.19,39.66,19.98,69.97,21.54,90.11,4.65,26.71-22.42,29.92-73.61,27.9-112.6Z"/><path d="M156.71,459.93c-35.45,20.3-63.68,22.67-83.93,7.01-10.6-8.2-24.3-25.68-29.32-62.4-3.27-23.89-1.85-50.57,3.77-71.79-.59-.05-1.19-.11-1.79-.2-1.09-.16-1.85-1.18-1.69-2.27.16-1.09,1.17-1.85,2.27-1.69.03,0,.06,0,.09.01-7.05-1.7-12.37-5.54-15.83-11.42-9.56-16.26-2.27-42.98-2.15-43.39,0,0,0,.03,0,.03-.32,1.06-1.44,1.66-2.49,1.33-1.06-.32-1.65-1.43-1.33-2.49.06-.21,1.3-4.23,4.24-9,2.14-29.51,14.76-53.63,37.58-71.81,16.89-13.45,34.02-18.96,37.63-20.02-.24-.12-.51-.25-.74-.37-.61-.33-1.01-.95-1.05-1.64-.14-2.27.25-5.79,1.87-8.72-1.32,1.84-2.2,4.19-2.05,7.14-5.2,1.59-21.52,7.27-38.03,20.38-18.07,14.35-39.58,40.62-39.55,84.35-.84,3.13-7.39,29.17,2.62,46.22,3.71,6.31,9.23,10.6,16.44,12.78-10.86,41.51-7.58,111.34,27.06,138.12,9.55,7.39,20.67,11.08,33.29,11.08,16.27,0,35.03-6.13,56.14-18.38.59-.34.94-.95.99-1.58-1.35-.42-2.71-.84-4.04-1.28Z"/><path d="M365.33,159.43c-5.35,1.18-57.38,12.5-105.41,15.6,3.68,1.68,7.09,4.02,9.96,7.07,5.12-1.88,9.4-1.98,12.96-.3.72.34,1.39.77,2.02,1.24,35.73-2.25,67.03-7.04,83.38-14.33.02-.04.04-.08.07-.12.45-.65,1.21-.94,1.94-.82.01,0,.03-.01.04-.02-.1-2.25-.79-7.22-4.97-8.31Z" fill="#fe4a4d"/><path d="M220.32,181.7c2.42-2.48,5.21-4.48,8.21-6.01-50.99-1.42-111.85-14.3-117.66-15.56-4.17,1.12-4.84,6.1-4.93,8.35,17.43,8.7,56.1,13.85,99.06,15.48,1.02-.66,2.06-1.23,3.11-1.69,3.1-1.34,7.41-2.24,12.2-.57Z" fill="#fe4a4d"/><path d="M281.14,185.42c-2.24-1.06-5.11-1.06-8.57,0,.52.74,1,1.5,1.46,2.3,3.27-.15,6.46-.31,9.57-.5-.74-.75-1.56-1.37-2.47-1.8Z"/><path d="M101.95,169.82c.04.69.44,1.31,1.05,1.64.23.13.5.25.74.37,1.2.61,2.51,1.21,3.94,1.8.88-1.06,1.39-1.63,1.42-1.67.74-.82,2-.89,2.82-.15.82.74.89,2,.15,2.82-.02.02-.17.2-.43.5,18.35,6.38,50.34,10.89,88.75,12.62,1.44-1.47,2.99-2.75,4.61-3.8-42.96-1.64-81.63-6.78-99.06-15.48.08-2.25.75-7.23,4.93-8.35,5.81,1.25,66.67,14.14,117.66,15.56,5.08-2.59,10.76-3.86,16.27-3.88h.1c5.06,0,10.26,1.05,15.02,3.22,48.03-3.1,100.06-14.42,105.41-15.6,4.18,1.09,4.87,6.06,4.97,8.31-.01,0-.03.01-.04.02.29.04.58.15.84.33.84.59,1.74,1.32,2.68,2.19.3-.33.49-.75.52-1.21.23-4.1-1.27-12.23-8.58-13.66-.27-.05-.55-.05-.83.01-.07.02-.86.19-2.25.49.01.48.04.95.05,1.43.02,1.1-.86,2.02-1.96,2.04-.01,0-.03,0-.04,0-1.09,0-1.98-.87-2-1.96,0-.23-.02-.44-.02-.67-18.64,3.89-75.47,14.93-120.54,15.05-48.93.15-111.75-12.5-124.51-15.19-1.44-.3-2.26-.48-2.33-.5-.27-.06-.55-.06-.83,0-.3.06-.57.15-.85.23-2.76.81-4.61,2.62-5.79,4.75-1.62,2.93-2.01,6.45-1.87,8.72Z"/><path d="M217.49,185.05c-2.54-.54-5.14-.25-7.79.9-1.21.52-2.38,1.22-3.52,2.05,3.05.11,6.14.21,9.27.29.62-1.14,1.31-2.22,2.04-3.23Z"/><path d="M288.47,186.91c41.38-2.78,68.16-8.71,81.54-14.62-.41-.34-.81-.65-1.2-.92-.87-.61-1.1-1.77-.56-2.66-16.35,7.29-47.65,12.08-83.38,14.33,1.39,1.03,2.58,2.33,3.6,3.87Z"/><path d="M69.55,252.12c14.29-43.62,38.6-72.91,42.1-76.99.26-.3.41-.48.43-.5.74-.82.67-2.09-.15-2.82-.82-.74-2.09-.67-2.82.15-.04.04-.55.61-1.42,1.67-5.82,6.99-28.19,35.58-41.78,76.78,1.29.52,2.51,1.09,3.65,1.71Z"/><path d="M57.33,327.55c-.58,0-1.11.26-1.47.66.69-.16,1.37-.35,2.04-.56-.18-.05-.36-.09-.56-.09h-.01Z"/><path d="M321.58,461.81c19.09-5.54,36.43-13.01,50.87-22.1,19.45-13.59,34.01-31.13,43.28-52.13,7.66-17.35,11.75-37.14,12.17-58.87.02-1.27.04-2.54.04-3.82,0-29.84-6.63-59.51-15.65-84.97-11.92-33.68-28.03-60-38.52-69.64-.94-.86-1.84-1.6-2.68-2.19-.26-.18-.55-.29-.84-.33-.73-.11-1.49.18-1.94.82-.03.04-.04.08-.07.12-.54.89-.31,2.06.56,2.66.38.27.78.58,1.2.92,7.73,6.34,20.77,25.23,32.65,53.78,13.74,33.01,21.3,68.11,21.3,98.82,0,49.07-18.1,86.6-53.71,111.49-17.68,11.13-39.9,19.79-64.38,25.37-17.08,3.89-35.26,6.28-53.78,6.96-27.03.99-53.18-1.64-76.92-7.57-17.87-4.46-34.39-10.79-48.89-18.85-43.54-24.21-66.64-62.53-66.93-110.89-1.31.43-2.64.76-3.99,1,.6,49.42,24.39,88.59,68.97,113.38,9.94,5.52,20.8,10.25,32.37,14.14,1.33.45,2.69.86,4.04,1.28,24.36,7.66,51.69,11.7,80.25,11.7,3.73,0,7.48-.07,11.24-.21,22.08-.81,43.7-4.03,63.61-9.31,1.93-.51,3.85-1.04,5.74-1.59Z"/><path d="M54.72,251.66c15.93,2.03,22.93,11.3,26,18.72.79,1.91,1.39,3.93,1.85,6.02.62.01,1.24,0,1.87.03,1.1.04,1.96.98,1.92,2.08-.05,1.1-.97,1.96-2.08,1.92-.35-.01-.7,0-1.04-.02.41,3.54.41,7.21-.01,10.89.61.07,1.23.12,1.84.21,1.09.15,1.86,1.17,1.7,2.26-.14,1-1,1.72-1.98,1.72-.09,0-.19,0-.28-.02-.63-.09-1.26-.14-1.89-.21-.61,3.19-1.52,6.35-2.72,9.39.54,0,1.07-.01,1.61-.03,1.05-.05,1.93.76,2.04,1.79,4.97-12.28,5.53-26.33.88-37.56-2.35-5.69-6.74-12.34-14.86-16.74-1.14-.62-2.35-1.19-3.65-1.71-3.13-1.26-6.71-2.21-10.82-2.73-.08-.01-.2-.02-.25-.02-9.45.03-17.74,4.38-23.98,12.6-.87,1.15-1.64,2.29-2.32,3.39-2.94,4.77-4.18,8.8-4.24,9-.32,1.06.28,2.17,1.33,2.49,1.05.32,2.17-.28,2.49-1.33,0,0,0-.02,0-.03.36-1.17,7.07-21.99,26.59-22.13Z"/><path d="M76.42,318.86c2.54-3.25,4.65-6.86,6.34-10.65-.32.25-.72.4-1.15.42-1.16.04-2.33.05-3.5.05-1.37,2.74-2.98,5.35-4.84,7.72-4.39,5.63-9.64,9.42-15.36,11.24-.67.21-1.36.4-2.04.56-3.15.73-6.42.87-9.76.4-.03,0-.06,0-.09-.01-1.1-.17-2.11.59-2.27,1.69-.16,1.09.59,2.11,1.69,2.27.6.09,1.19.14,1.79.2.95.09,1.9.14,2.83.14,1.8,0,3.57-.16,5.31-.48,1.35-.24,2.68-.58,3.99-1,6.38-2.08,12.21-6.32,17.07-12.55Z"/><path d="M340.17,90.85c-.7-.85-.58-2.11.27-2.82.83-.68,2.03-.58,2.74.2-2.22-3.27-4.61-6.39-7.2-9.34-.13-.15-.25-.31-.39-.46-.74-.83-2-.9-2.82-.16-.83.73-.9,2-.16,2.82,0,0,.01.01.02.02,16.54,18.59,25.29,44.04,26.04,75.64,0,.22.02.44.02.67.02,1.09.91,1.96,2,1.96.01,0,.03,0,.04,0,1.1-.02,1.98-.94,1.96-2.04,0-.48-.04-.95-.05-1.43-.64-23.05-5.48-42.94-14.42-59.41-3.4-1.49-6.2-3.42-8.05-5.66Z"/><path d="M138.74,113.85c6.47,2.03,12.84,4.54,18.94,7.48.28.13.58.2.87.2.74,0,1.46-.42,1.8-1.13.48-1,.06-2.19-.94-2.67-6.28-3.02-12.83-5.61-19.48-7.69-1.05-.33-2.18.26-2.51,1.31-.33,1.05.26,2.18,1.31,2.51Z"/><path d="M159.96,128.63c0-1.1-.9-1.99-2-1.99h0l-22.96.06c-1.1,0-2,.9-1.99,2.01,0,1.1.9,1.99,2,1.99h0l22.96-.06c1.1,0,2-.9,1.99-2.01Z"/><path d="M158.38,136.64l-18.61,6.23c-1.05.35-1.61,1.48-1.26,2.53.28.84,1.06,1.37,1.9,1.37.21,0,.42-.03.64-.1l18.61-6.23c1.05-.35,1.61-1.48,1.26-2.53-.35-1.05-1.49-1.61-2.53-1.26Z"/><path d="M314.95,119.53c.35.71,1.06,1.12,1.8,1.12.29,0,.59-.07.88-.2,6.09-2.97,12.45-5.52,18.9-7.58,1.05-.34,1.63-1.46,1.3-2.51-.34-1.05-1.47-1.63-2.51-1.3-6.64,2.12-13.18,4.74-19.44,7.8-.99.48-1.41,1.68-.92,2.67Z"/><path d="M315.38,127.77c0,1.1.9,1.99,2,1.99h0l22.96-.06c1.1,0,2-.9,1.99-2.01,0-1.1-.9-1.99-2-1.99h0l-22.96.06c-1.1,0-2,.9-1.99,2.01Z"/><path d="M335.65,141.9l-18.65-6.13c-1.05-.35-2.18.23-2.53,1.28-.34,1.05.23,2.18,1.28,2.52l18.65,6.13c.21.07.42.1.62.1.84,0,1.62-.53,1.9-1.38.34-1.05-.23-2.18-1.28-2.52Z"/><path d="M177.97,92.92c-.98.51-1.36,1.72-.85,2.7.51.98,1.72,1.36,2.7.85,9.38-4.86,22.31-6.29,30.05,1.5.39.39.9.59,1.42.59s1.02-.19,1.41-.58c.78-.78.79-2.04,0-2.83-9.17-9.23-24.05-7.77-34.73-2.23Z"/><path d="M304.51,92.58c-10.71-5.48-25.6-6.86-34.71,2.42-.77.79-.76,2.05.03,2.83.39.38.9.57,1.4.57s1.04-.2,1.43-.6c7.7-7.83,20.63-6.48,30.04-1.67.98.5,2.19.11,2.69-.87.5-.98.11-2.19-.87-2.69Z"/><path d="M340.44,88.03c-.85.7-.98,1.96-.27,2.82,1.85,2.25,4.65,4.17,8.05,5.66,4.84,2.13,10.89,3.38,17.16,3.38.22,0,.44,0,.67,0,10.77-.15,19.9-4.04,25.04-10.66.68-.87.52-2.13-.35-2.81-.87-.68-2.13-.52-2.81.35-4.39,5.66-12.39,8.98-21.94,9.11-9.62.14-18.94-2.98-22.73-7.58-.02-.03-.05-.05-.07-.07-.71-.78-1.92-.88-2.74-.2Z"/><path d="M362.75,51.92c-.2,1.09.53,2.13,1.61,2.32.12.02.24.03.36.03.95,0,1.79-.68,1.97-1.65.64-3.55.71-8.89.19-12.68-.02-.16-.04-.33-.06-.49-.17-1.09-1.2-1.83-2.28-1.67-1.03.16-1.74,1.07-1.68,2.09,0,.07,0,.13.01.2.53,3.37.48,8.57-.11,11.84Z"/><path d="M377.18,41c.13.49.24.98.33,1.48.68,3.68.29,7.54-1.15,11.01-.42,1.02.06,2.19,1.09,2.61.25.1.51.15.76.15.79,0,1.53-.47,1.85-1.24,1.36-3.3,1.93-6.89,1.71-10.43-.09-1.55-.32-3.1-.73-4.61-.03-.13-.08-.24-.14-.36-.41-.85-1.37-1.31-2.31-1.06-.03,0-.05.02-.08.03-1.02.32-1.62,1.38-1.34,2.42Z"/><path d="M351.03,55.49c.26,0,.52-.05.78-.16,1.02-.43,1.49-1.6,1.06-2.62-1.33-3.15-1.88-6.62-1.58-10.03,0-.07,0-.13,0-.2-.01-1.02-.78-1.88-1.82-1.97-1.1-.09-2.07.72-2.17,1.82-.07.78-.09,1.56-.08,2.35.03,3.29.69,6.56,1.97,9.59.32.76,1.06,1.22,1.84,1.22Z"/><path d="M190.59,208.19c-.47,2.72-.86,5.55-1.24,8.28-1.48,10.68-2.84,20.5-8.27,26.38,1.11.85,1.87,2.02,2.2,3.39,6.92-6.93,8.54-18.51,10.02-29.22.38-2.73.77-5.55,1.24-8.23,0-.05.02-.11.02-.16.72-7.94,5.55-16.24,11.61-20.63,1.14-.83,2.31-1.53,3.52-2.05,2.65-1.14,5.25-1.44,7.79-.9.87-1.2,1.82-2.32,2.83-3.35-4.79-1.67-9.1-.76-12.2.57-1.06.46-2.1,1.03-3.11,1.69-1.61,1.05-3.16,2.33-4.61,3.8-5.24,5.32-9.11,13.02-9.8,20.43Z"/><path d="M163.08,248.43c-1.1-.08-2.06.76-2.13,1.86s.76,2.06,1.86,2.13c1.05.07,2.06.11,3.04.11,2.14,0,4.1-.17,5.9-.49-.85-1.04-1.33-2.36-1.37-3.82-2.15.32-4.56.41-7.29.22Z"/><path d="M321.53,243.38c4.49-1.42,7.78-4.87,9.26-9.9.31-1.06-.29-2.17-1.35-2.48-1.06-.31-2.17.3-2.48,1.35-1.21,4.11-3.66,6.07-6.01,6.99.44.88.68,1.89.67,2.97,0,.37-.03.72-.07,1.07Z"/><path d="M272.57,185.41c3.45-1.05,6.32-1.06,8.57,0,.91.43,1.72,1.05,2.47,1.8,4.4,4.43,6.12,13.96,7.77,23.24,1.35,7.55,2.74,15.35,5.69,20.65,2,5,6.32,9.08,11.42,11.26,0-.02,0-.04,0-.05-.03-1.43.38-2.74,1.16-3.81-4-1.84-7.39-5.1-8.91-8.99-.03-.09-.08-.17-.12-.26-2.66-4.71-4-12.24-5.3-19.51-1.52-8.5-3.08-17.18-6.85-22.85-1.02-1.54-2.21-2.85-3.6-3.87-.63-.47-1.3-.9-2.02-1.24-3.56-1.68-7.84-1.58-12.96.3.96,1.02,1.86,2.13,2.69,3.31Z"/><path d="M81.48,304.63c-.54.02-1.07.02-1.61.03-4.53.08-9.09-.04-13.59-.4-1.1-.1-2.07.73-2.15,1.83-.09,1.1.73,2.07,1.83,2.15,3.76.3,7.57.45,11.36.45.26,0,.52-.01.78-.01,1.17,0,2.34-.02,3.5-.05.44-.01.83-.17,1.15-.42.49-.38.81-.98.79-1.64,0-.05-.01-.1-.02-.15-.11-1.03-.99-1.84-2.04-1.79Z"/><path d="M84.77,295.5c.98,0,1.84-.72,1.98-1.72.15-1.09-.61-2.11-1.7-2.26-.61-.09-1.23-.14-1.84-.21-4.19-.47-8.42-.55-12.63-.2-1.1.09-1.92,1.06-1.83,2.16.09,1.1,1.07,1.92,2.16,1.83,3.88-.33,7.8-.26,11.68.17.63.07,1.27.12,1.89.21.09.01.19.02.28.02Z"/><path d="M86.34,278.52c.04-1.1-.81-2.03-1.92-2.08-.62-.03-1.24-.02-1.87-.03-4.3-.07-8.61.19-12.85.83-1.09.16-1.84,1.18-1.68,2.28.15.99,1,1.7,1.98,1.7.1,0,.2,0,.3-.02,4.26-.64,8.6-.89,12.91-.78.35,0,.7,0,1.04.02,1.11.04,2.03-.81,2.08-1.92Z"/><path d="M313.96,342.62c-.98-48.57-37.9-70.65-71.88-70.65h-.22c-34.05.1-71,22.38-71.69,71.08.96,48.52,37.89,70.61,71.87,70.61h.22c34.04-.1,70.99-22.37,71.69-71.04Z" fill="#fe4a4d"/><path d="M242.08,267.97h-.23c-35.94.1-74.95,23.62-75.68,75.09,1.02,51.29,40,74.6,75.87,74.6.08,0,.16,0,.23,0,35.94-.1,74.95-23.62,75.68-75.02v-.07c-1.02-51.29-40-74.6-75.87-74.6ZM242.04,413.66c-33.99,0-70.91-22.09-71.87-70.61.69-48.7,37.65-70.98,71.69-71.08h.22c33.98,0,70.89,22.08,71.88,70.65-.71,48.67-37.66,70.95-71.69,71.04h-.22Z"/><path d="M241.12,217.64c-2.1-1.22-3.29-3.38-3.26-5.93-.04-2.49,1.13-4.66,3.23-5.89,2.27-1.34,5.33-1.35,7.62-.02,2.09,1.21,3.28,3.36,3.26,5.9.04,2.54-1.14,4.69-3.22,5.92-.59.35-1.24.6-1.91.77l-.19,15.62c13.51-.73,27.55-9.93,27.83-29.15-.41-19.97-15.59-29.04-29.57-29.04h-.09c-14,.04-29.21,9.21-29.49,29.24.37,18.86,14,28,27.31,28.93l.19-15.64c-.6-.16-1.17-.39-1.7-.7Z" fill="#ffbf6b"/><path d="M246.7,209.26c-.52-.3-1.15-.45-1.78-.45s-1.28.15-1.8.46c-.85.5-1.27,1.32-1.25,2.43-.01,1.17.41,1.99,1.27,2.48.05.03.11.05.16.08.38-.48.96-.79,1.59-.79.65,0,1.23.33,1.59.82.08-.04.16-.07.24-.12.85-.5,1.27-1.32,1.25-2.43v-.06c.01-1.11-.41-1.93-1.27-2.42Z" fill="#ffbf6b"/><path d="M220.32,181.7c-1.01,1.03-1.95,2.15-2.83,3.35-.74,1.02-1.42,2.09-2.04,3.23-2.5,4.58-4.03,10.15-4.13,16.78.45,22.69,17.69,33,33.56,33,.03,0,.07,0,.1,0,15.9-.04,33.16-10.45,33.48-33.18v-.07c-.13-6.79-1.78-12.46-4.44-17.09-.46-.8-.94-1.57-1.46-2.3-.83-1.18-1.73-2.29-2.69-3.31-2.87-3.05-6.28-5.39-9.96-7.07-4.75-2.17-9.95-3.22-15.02-3.22h-.1c-5.52.02-11.19,1.28-16.27,3.88-3,1.53-5.79,3.53-8.21,6.01ZM244.62,237.44h-.03c-1.1-.01-1.99-.92-1.98-2.02l.02-1.44c-13.31-.93-26.94-10.07-27.31-28.93.28-20.03,15.49-29.2,29.49-29.24h.09c13.97,0,29.15,9.08,29.57,29.04-.29,19.22-14.32,28.42-27.83,29.15l-.02,1.46c-.01,1.1-.91,1.98-2,1.98Z"/><path d="M244.89,213.46c-.63,0-1.22.32-1.59.79.95.48,2.22.49,3.18.03-.36-.49-.93-.82-1.59-.82Z"/><path d="M246.62,235.46l.02-1.46.19-15.62c-.62.16-1.27.24-1.91.24-.71,0-1.41-.1-2.09-.29l-.19,15.64-.02,1.44c-.01,1.1.87,2.01,1.98,2.02h.03c1.09,0,1.99-.88,2-1.98Z"/><path d="M251.96,211.7c.02-2.54-1.17-4.69-3.26-5.9-2.28-1.32-5.34-1.31-7.62.02-2.09,1.23-3.27,3.4-3.23,5.89-.03,2.55,1.16,4.71,3.26,5.93.53.31,1.11.54,1.7.7.68.19,1.38.29,2.09.29.65,0,1.29-.08,1.91-.24.67-.17,1.32-.42,1.91-.77,2.09-1.23,3.26-3.38,3.22-5.92ZM247.96,211.74c.02,1.11-.4,1.93-1.25,2.43-.08.04-.16.08-.24.12-.96.46-2.23.45-3.18-.03-.05-.03-.11-.05-.16-.08-.85-.5-1.28-1.31-1.27-2.48-.02-1.11.4-1.93,1.25-2.43.52-.31,1.16-.46,1.8-.46s1.26.15,1.78.45c.85.5,1.28,1.31,1.27,2.42v.06Z"/><path d="M179.48,247.95s0-.04,0-.06c.01-.93-.34-1.61-1.05-2.02-.44-.25-.97-.38-1.51-.38s-1.09.13-1.53.39c-.7.41-1.05,1.09-1.04,2.02-.01.99.34,1.67,1.05,2.08.88.51,2.16.51,3.04,0,.7-.41,1.05-1.09,1.04-2.02Z" fill="#fe4a4d"/><path d="M181.08,242.85c-.2-.16-.42-.3-.65-.43-2.12-1.23-4.96-1.22-7.07.02-1.95,1.15-3.05,3.17-3.01,5.48,0,.1.01.19.01.29.04,1.47.52,2.78,1.37,3.82.45.55,1,1.03,1.65,1.41,1.05.61,2.29.92,3.52.92,1.25,0,2.49-.31,3.55-.94,1.95-1.14,3.04-3.15,3.01-5.51,0-.58-.06-1.15-.19-1.68-.33-1.37-1.09-2.54-2.2-3.39ZM178.44,249.98c-.88.52-2.16.52-3.04,0-.71-.41-1.06-1.09-1.05-2.08-.02-.93.33-1.61,1.04-2.02.44-.26.98-.39,1.53-.39s1.07.13,1.51.38c.71.41,1.06,1.09,1.05,2.02,0,.02,0,.04,0,.06.02.93-.33,1.61-1.04,2.02Z"/><path d="M313.52,240.29c-.7.41-1.05,1.09-1.04,2.02-.01.99.34,1.67,1.05,2.08.88.51,2.16.51,3.04,0,.7-.41,1.05-1.09,1.04-2.02v-.06c.01-.93-.34-1.61-1.05-2.02-.44-.25-.97-.38-1.51-.38s-1.08.13-1.53.39Z" fill="#fe4a4d"/><path d="M308.49,242.38c-.01,2.35,1.09,4.34,3.04,5.47,1.05.61,2.29.92,3.52.92s2.49-.31,3.55-.94c1.64-.97,2.67-2.55,2.93-4.45.05-.35.08-.7.07-1.07,0-1.09-.23-2.09-.67-2.97-.52-1.04-1.31-1.91-2.37-2.52-2.12-1.23-4.96-1.22-7.07.02-.75.44-1.37,1.01-1.85,1.67-.77,1.07-1.18,2.38-1.16,3.81,0,.02,0,.04,0,.05ZM316.56,240.28c.71.41,1.06,1.09,1.05,2.02v.06c.02.93-.33,1.61-1.04,2.02-.88.52-2.16.52-3.04,0-.71-.41-1.06-1.09-1.05-2.08-.02-.93.33-1.61,1.04-2.02.44-.26.98-.39,1.53-.39s1.07.13,1.51.38Z"/><path d="M259.65,136.69c-10.11-5-20.57-10.16-30.7-5.86l-1.53.64c-14.42,6.01-38.41,15.99-47.15-.02-.83,1.12-1.82,2.12-2.93,2.97,10.77,17.76,36.22,7.16,51.62.74l1.54-.64c8.46-3.59,17.65.95,27.38,5.76,7.12,3.52,14.76,7.29,22.21,7.29,6.07,0,12.02-2.5,17.48-9.67-1.26-.51-2.44-1.18-3.51-2.02-10.09,12.82-21.4,7.24-34.41.81Z"/><path d="M298.12,133.64c-.23-.16-.47-.26-.73-.31.33.21.67.39,1.02.56-.09-.09-.18-.17-.29-.25Z"/><path d="M301.34,134.81c-1.01-.15-2-.47-2.93-.93-.35-.17-.69-.35-1.02-.56-.79-.49-1.51-1.09-2.12-1.77-.74-.82-2.01-.88-2.83-.14-.82.74-.88,2.01-.14,2.83.54.59,1.13,1.14,1.75,1.63,1.07.84,2.25,1.51,3.51,2.02,1.02.41,2.08.71,3.18.88.1.02.2.02.3.02.97,0,1.83-.71,1.97-1.7.17-1.09-.59-2.11-1.68-2.28Z"/><path d="M180.26,131.45c.65-.87,1.21-1.81,1.66-2.8.45-1.01,0-2.19-1-2.65-1.01-.45-2.19,0-2.65,1-.92,2.04-2.48,3.8-4.4,4.96-.95.57-1.25,1.8-.68,2.75.38.62,1.04.97,1.71.97.35,0,.71-.09,1.03-.29.48-.29.95-.62,1.39-.97,1.1-.85,2.09-1.85,2.93-2.97Z"/><path d="M238.12,120.62c4.27-1.43,5.87-3.77,5.59-4.94-.3-1.27-2.98-2.22-7.36-1.49-.13.02-.26.03-.38.03-.08,0-.18,0-.29,0-.96,0-2.93.12-3,1.14-.11,1.67,2.49,4.76,5.43,5.28Z" fill="#ffabb1"/><path d="M238.11,124.65c.07,0,.13,0,.2,0,.2,0,.4-.03.59-.09,7.07-2.18,9.47-6.62,8.72-9.82-.68-2.86-4.15-5.75-11.72-4.55-6.35-.1-7.12,3.71-7.19,4.88-.27,4.25,4.48,9.08,9.41,9.56ZM235.69,114.21c.11,0,.21,0,.29,0,.13,0,.26,0,.38-.03,4.38-.73,7.06.23,7.36,1.49.28,1.17-1.32,3.51-5.59,4.94-2.94-.52-5.54-3.61-5.43-5.28.06-1.01,2.04-1.14,3-1.14Z"/></g></svg>