<?xml version="1.0" encoding="UTF-8"?><svg id="a" xmlns="http://www.w3.org/2000/svg" viewBox="0 0 458.54 122.18"><path d="M115.72,61.09c-1.21,70.8-106.52,70.78-107.71,0,1.21-70.79,106.52-70.78,107.71,0Z" fill="#fff" stroke="#fff" stroke-miterlimit="10" stroke-width="16"/><path d="M227.95,61.09c-1.21,70.8-106.52,70.78-107.71,0,1.21-70.79,106.52-70.78,107.71,0Z" fill="#fff" stroke="#fff" stroke-miterlimit="10" stroke-width="16"/><path d="M340.18,61.09c-1.21,70.8-106.52,70.78-107.71,0,1.21-70.79,106.52-70.78,107.71,0Z" fill="#fff" stroke="#fff" stroke-miterlimit="10" stroke-width="16"/><path d="M450.54,61.09c-1.21,70.8-106.52,70.78-107.71,0,1.21-70.79,106.52-70.78,107.71,0Z" fill="#fff" stroke="#fff" stroke-miterlimit="10" stroke-width="16"/><path d="M115.72,61.09c-1.21,70.8-106.52,70.78-107.71,0,1.21-70.79,106.52-70.78,107.71,0Z" fill="#fff" stroke="#000" stroke-miterlimit="10" stroke-width="5.78"/><path d="M227.95,61.09c-1.21,70.8-106.52,70.78-107.71,0,1.21-70.79,106.52-70.78,107.71,0Z" fill="#fff" stroke="#000" stroke-miterlimit="10" stroke-width="5.78"/><path d="M340.18,61.09c-1.21,70.8-106.52,70.78-107.71,0,1.21-70.79,106.52-70.78,107.71,0Z" fill="#fff" stroke="#000" stroke-miterlimit="10" stroke-width="5.78"/><path d="M450.54,61.09c-1.21,70.8-106.52,70.78-107.71,0,1.21-70.79,106.52-70.78,107.71,0Z" fill="#fff" stroke="#000" stroke-miterlimit="10" stroke-width="5.78"/><text transform="translate(27.76 87.08)" font-family="DelaGothicOne-Regular, &apos;Dela Gothic One&apos;" font-size="66.69" letter-spacing=".05em"><tspan x="0" y="0">ラ</tspan></text><text transform="translate(141.09 87.08)" font-family="DelaGothicOne-Regular, &apos;Dela Gothic One&apos;" font-size="66.69" letter-spacing=".05em"><tspan x="0" y="0">ー</tspan></text><text transform="translate(254.08 87.08)" font-family="DelaGothicOne-Regular, &apos;Dela Gothic One&apos;" font-size="66.69" letter-spacing=".05em"><tspan x="0" y="0">メ</tspan></text><text transform="translate(365.96 87.08)" font-family="DelaGothicOne-Regular, &apos;Dela Gothic One&apos;" font-size="66.69" letter-spacing=".05em"><tspan x="0" y="0">ン</tspan></text></svg>