<?xml version="1.0" encoding="UTF-8"?><svg id="a" xmlns="http://www.w3.org/2000/svg" viewBox="0 0 94.18 92.73"><path d="M45.95,87.23c-11.93,0-25.63-4.24-36.65-11.34-2.27-1.47-3.15-4.37-2.05-6.84l5.08-11.52c.65-1.47,1.91-2.59,3.45-3.05.52-.16,1.05-.23,1.58-.23.12,0,.25,0,.37.01-6.88-3.6-11.14-9.28-12.04-16.08-1.06-7.98,2.61-16.51,9.81-22.81,7.65-6.48,17.97-9.87,29.92-9.87,13.13,0,28.28,4.22,40.52,11.3,2.41,1.39,3.4,4.37,2.3,6.93l-4.98,11.62c-.61,1.43-1.81,2.54-3.28,3.04-.58.2-1.18.29-1.77.29-.93,0-1.85-.24-2.68-.7-10.47-5.85-21.75-8.99-32.61-9.07-.15,0-.3,0-.45-.02-.44-.04-.89-.06-1.34-.06-4.37,0-8.12,1.83-9.89,3.64-.83.84-.99,1.42-.99,1.53.08.31,1.23,1.78,5.47,3.11.68.21,2.93.71,5.32,1.25,21.41,4.79,29.46,7.66,32.47,11.75,3.6,3.84,5.26,8.92,4.68,14.39-.72,6.76-4.77,13.29-10.57,17.04-.04.02-.08.05-.12.07-6.08,3.72-13.32,5.61-21.54,5.61h0ZM22.69,56.57c10.47,6.13,19.08,7.1,23.45,7.1.94,0,1.79-.04,2.55-.11-5.04-1-18.06-3.94-26-6.98Z" fill="#e8c86a"/><path d="M45.41,11c13.17,0,27.17,4.43,37.76,10.56l-4.98,11.62c-10.82-6.05-22.97-9.67-35.25-9.77-.61-.05-1.22-.08-1.83-.08-13.63,0-25.17,13.33-7.06,19.03,4.14,1.27,32.37,6.38,35.16,11.23,6.93,6.93,2.95,18.46-4.59,23.34-5.5,3.37-11.96,4.8-18.67,4.8-11.76,0-24.26-4.4-33.68-10.46l5.08-11.52c10.84,7,21.15,9.42,28.79,9.42,13.61,0,18.82-7.69,3.73-10.99-9.6-1.89-25-5.91-29-8.5-13.93-6.81-11.8-21.4-1.76-30.18,7.14-6.05,16.49-8.51,26.3-8.51M45.41,0c-13.27,0-24.82,3.84-33.41,11.11-.04.04-.09.08-.13.11C3.28,18.74-1.08,29.09.23,38.9c.78,5.84,3.45,11.01,7.74,15.11-.25.41-.48.85-.68,1.29l-5.08,11.52c-2.18,4.95-.44,10.75,4.11,13.68,12.05,7.76,26.5,12.22,39.64,12.22,9.24,0,17.46-2.16,24.41-6.42.08-.05.15-.1.23-.14,7.16-4.63,12.17-12.71,13.06-21.08.74-6.96-1.34-13.47-5.88-18.45-.83-1.1-1.85-2.1-3.1-3.03,1.14.39,2.33.58,3.53.58s2.39-.19,3.54-.59c2.95-1,5.34-3.21,6.57-6.08l4.98-11.62c2.19-5.12.22-11.07-4.61-13.86C75.44,4.39,59.67,0,45.41,0h0ZM63.6,38.46c-3.27-1.06-7.15-2.11-11.77-3.24,3.93.67,7.88,1.76,11.77,3.24h0Z" fill="#f8f9ee"/><path d="M45.95,83.73c-11.29,0-24.28-4.03-34.76-10.78-.83-.53-1.14-1.59-.75-2.49l5.08-11.52c.24-.54.7-.94,1.26-1.11.19-.06.38-.08.57-.08.38,0,.76.11,1.08.32,12.28,7.92,22.63,9.1,27.71,9.1,7.39,0,10.78-2.36,10.88-3.3.04-.4-1.17-2.33-7.58-3.73-9.24-1.82-24.98-5.84-29.56-8.7-7.89-3.89-10.19-9.6-10.74-13.71-.91-6.82,2.33-14.19,8.65-19.71,6.96-5.9,16.5-9,27.62-9,12.54,0,27.03,4.05,38.76,10.83.88.51,1.24,1.59.84,2.52l-4.98,11.62c-.22.52-.66.92-1.19,1.1-.21.07-.43.11-.64.11-.34,0-.67-.09-.98-.25-10.98-6.14-22.84-9.43-34.29-9.51-.05,0-.11,0-.16,0-.54-.05-1.1-.07-1.65-.07-7.49,0-13.75,4.28-14.33,8.11-.42,2.75,2.45,5.3,7.87,7.01.83.25,2.94.73,5.61,1.32,17.38,3.89,28.01,6.88,30.52,10.56,3.01,3.1,4.4,7.28,3.92,11.8-.6,5.65-4.13,11.33-8.99,14.47-5.56,3.41-12.19,5.12-19.75,5.12h0Z" fill="#e8c86a"/><path d="M45.41,11c13.17,0,27.17,4.43,37.76,10.56l-4.98,11.62c-10.82-6.05-22.97-9.67-35.25-9.77-.61-.05-1.22-.08-1.83-.08-13.63,0-25.17,13.33-7.06,19.03,4.14,1.27,32.37,6.38,35.16,11.23,6.93,6.93,2.95,18.46-4.59,23.34-5.5,3.37-11.96,4.8-18.67,4.8-11.76,0-24.26-4.4-33.68-10.46l5.08-11.52c10.84,7,21.15,9.42,28.79,9.42,13.61,0,18.82-7.69,3.73-10.99-9.6-1.89-25-5.91-29-8.5-13.93-6.81-11.8-21.4-1.76-30.18,7.14-6.05,16.49-8.51,26.3-8.51M45.41,7c-11.59,0-21.58,3.27-28.88,9.46-.02.01-.03.03-.05.04-6.83,5.97-10.31,14-9.31,21.48.86,6.46,5.03,11.85,11.75,15.2,5.41,3.31,22.53,7.41,30.14,8.91,2.54.56,4.14,1.19,5.08,1.7-1.4.65-4.05,1.37-7.99,1.37-4.86,0-14.78-1.14-26.62-8.79-.65-.42-1.41-.64-2.17-.64-.39,0-.77.06-1.15.17-1.12.34-2.04,1.15-2.51,2.22l-5.08,11.52c-.79,1.8-.16,3.91,1.49,4.98,10.79,6.95,24.19,11.1,35.84,11.1,7.93,0,14.92-1.81,20.75-5.39.03-.02.06-.03.08-.05,5.43-3.51,9.23-9.62,9.9-15.94.54-5.06-1.01-9.75-4.35-13.28-2.68-3.74-10.71-6.56-31.64-11.25-2.52-.56-4.7-1.05-5.47-1.29-4.16-1.31-6.71-3.19-6.47-4.79.4-2.58,5.76-6.41,12.36-6.41.49,0,.99.02,1.47.06.11,0,.22.01.33.02,11.12.08,22.64,3.28,33.33,9.26.6.34,1.28.51,1.95.51.43,0,.87-.07,1.29-.21,1.07-.37,1.94-1.17,2.39-2.21l4.98-11.62c.8-1.86.08-4.03-1.68-5.04-12.02-6.95-26.89-11.1-39.77-11.1h0Z"/></svg>