<svg xmlns="http://www.w3.org/2000/svg" viewBox="0 0 559.57 565.26"><path fill="#e8718f" d="M370.75 245.2c16.42 37.01 6.69 81.44-16.87 113.17 25.69-1.26 39.95-1.45 68.61 11.61.43-1.17.84-2.35 1.24-3.53l-31.11-98.53c-5.77-.24-9.21 1.47-11.16-3.83l-12.69-53.7c-.63-2.71 1.04-5.32 3.77-6.04l-1.88-5.96-4.85-.06c.4 12.37-7.68 15.27-20.37 19.01 11.64 5.57 20.06 16.23 25.3 27.86ZM172.43 305.93c-7.22-31.77-.46-71.56 30.15-88.53-19.31-2.78-24.42-4.07-24.56-21.47l-11.28-.14c-.39 2.05-.92 4.81-1.58 8.19 3.65 1.04 5.83 2.75 5.35 6.41l-11.39 59.29c-.94 4-4.3 4.37-8.09 3.89-7.08 33.29-15.55 70.82-23.61 100.54 30.05-14.44 44.53-17.33 69.44-16.04-12.55-14.88-21.2-32.87-24.42-52.13ZM266.55 231.13c13.86 16.08 4.19 9.97 22.05-6.07-9.32.39-18.87.43-28.22.05 2.13 1.93 4.14 3.99 6.17 6.02Z"/><path fill="#eef0d7" d="M347.07 358.35c20.95-26.64 31.98-62.75 23.75-96.21-4.14-18.28-15.35-37.06-34.23-42.66-10.39 2.2-23.04 3.93-36.51 4.92-8.18 2.28-13.54 10.73-18.58 17.2-5.19 8.46-12.09 3.52-15.53-3.37-4.56-4.9-9.4-9.7-14.82-13.65-13.45-.75-26.26-3.67-38.6-5.71-55.07 22.76-42.31 103.75-8.11 140.06 1.17.19 2.34.4 3.5.64 16.58-15.82 33.74-31.06 55.11-31.43-4.59-6.48-7.79-14.25-8.32-22.25.06.08.11.17.17.24-3.31-9.23-9.53-24.48 4.72-27.15 10.92-3.22 21.96-3.46 33.01-.71 12.15 1.95 8.98 16.58 5.6 24.85l.45-1.09c-.29 9.39-2.73 18.6-8.38 26.08 21.75.06 39.05 15.42 55.82 31.4.32-.39.64-.78.96-1.18Zm-118.98-91.92c9.17-.47 16.95 15.74 6.47 18.42-2.59.33-5.3-1.54-6.05-4.18-.58-1.26-.24-3.38-1.77-3.9-2.72-.27-3.32 3.34-4.66 5.06-2.55 5.4-10.47 2.56-9.96-2.93.26-7.99 7.43-13.6 15.96-12.48Zm12.6 45.94c-2.95 23.4-37.09 18.64-34.53-4.89 3.18-22.64 37.67-19.55 34.53 4.89Zm75.74-36.99c1.31-15.28 28.26-14.86 27.23 1.54.19 8.2-11.36 6.72-11.58-.37-1.01-4.5-4.71.09-5.51 2.26-2.91 6.57-11.62 3.6-10.14-3.42Zm12.17 49.59c-22.99-3.41-18.54-38.55 4.43-35.92 22.2 2.62 18.42 38.51-4.43 35.92Z"/><path fill="#fff" d="M181.34 319.74c-11.6-34.88-8.9-86.5 31.21-100.87-3.71-.58-6.67-1-9.97-1.47-48.17 29.14-37.84 102.83-5.73 140.66 2.55.17 5.08.46 7.58.87-9.91-11.59-18.46-24.53-23.1-39.19ZM265.97 238.23c12.13 21.98 19.26-8.94 32.64-13.73-3.29.23-6.63.41-10.01.56-21.08 21.2-6.49 19.68-28.22.05-3.11-.13-6.19-.3-9.23-.53 5.42 3.95 10.26 8.76 14.82 13.65ZM358.19 234.62c27.11 37.35 15.6 91.06-12.08 124.9l.09.09c2.54-.54 5.1-.95 7.68-1.25 30-39.12 39.81-112.29-8.43-141.03-2.72.75-5.68 1.47-8.86 2.14 8.51 2.52 16.15 8.2 21.6 15.14Z"/><path fill="#e798ad" d="M333.03 289.05c-22.97-2.62-27.41 32.52-4.43 35.92 22.85 2.58 26.62-33.3 4.43-35.92ZM225.7 291.92c-23.23-1.83-26.81 32.45-4.11 36.01 23.6 1.85 25.84-33.49 4.11-36.01Z"/><path fill="#ebd087" d="M298.68 302.04c-10.19 26.76-30.93 31.56-43.94 3.85.52 8 3.73 15.76 8.32 22.25 10.47-.19 16.79-.2 27.25-.01 5.65-7.48 8.09-16.7 8.38-26.08Z"/><path fill="#3b3b39" d="M319.72 282.11c6.47 3.65 9.3-13.08 12.37-5.56.44 3.68 3.54 6.76 7.49 5.91 9.25-3.51 1.98-17.89-6.55-18.09-10.12-3.35-23.38 11.68-13.3 17.75ZM216.2 284.52c6.51 3.31 9.35-16.05 12.31-3.85 1.67 6.18 11.29 5.18 10.86-1.54 1.03-17.4-27.45-16.29-27.24-.22-.09 2.84 1.37 4.86 4.07 5.61Z"/><path fill="#5e5b6e" d="M262.41 317.54c17.5 21.12 39.45-9.72 38.76-28.37 1.05-17.09-30.92-13.24-41.55-10.2-8.67 2.15-10.24 7.57-8.4 15.79 2.11 7.8 5.42 16.93 11.19 22.77Z"/><path fill="#e40013" d="M115.43 494.63c-8.57 8.55-21.16 16.37-33.02 7.78.13 11.06 2.7 20.08 9.5 27.84 14.49 4.53 30.05 8.52 46.45 11.91-2.8-25.29 1.57-48.32 10.06-76.84-14.92 12.58-26.24 22.79-32.98 29.31ZM462.11 507.98c-5.51-.12-14.78-9.66-22.38-16.88-9.77-9.23-20.36-19.3-36.64-33.68 10.26 31.4 15.63 57.06 12.65 84.74 16.4-3.39 31.96-7.37 46.45-11.91 5.98-6.74 8.79-14.93 9.38-24.4-3.33 1.86-6.17 2.62-9.46 2.13ZM269.32 403.85c-20.26 9.34-38.14 23.65-46.77 34.77 17.19-5.97 38.7-23.41 49.56-35.98-.84.35-1.77.75-2.79 1.21ZM275.1 469.59c-44.24-.42-87.25-7.53-106.6-20.83-1.88 1.52-3.72 3.02-5.53 4.49-2.86 7.67-5.36 15.33-7.48 22.87 44.87 28.63 194.04 27.15 244.01 3.28-2.57-9.62-5.77-19.47-9.56-29.3-24.43 13.58-70.34 19.91-114.84 19.49Z"/><path fill="#e40013" d="M344.07 371.81c-19.86-21.58-39.01-37.08-67.02-33.93-26.87-3.03-45.41 11.08-64.71 31.38 16.73 12.13 30.26 22.41 23.84 28.2-23.82 16.95-45.73 33.68-64.18 48.5 42.38 26.43 172.95 25.26 216.38.17-15.58-17.19-38.39-31.75-61.2-49.15-6.31-5.57 3.63-13.48 16.9-25.15Zm-83.17-12c2.18-3.61 11.14 5.9 16.98 4.29 9.56.46 13.02-7.89 15.91-5.74 4.12 5.92-10.54 10.5-15.78 10.43-3.29.46-19.12-3.37-17.11-8.99Zm80.57 73.29c10.97 12.03 4.17 22.68-11.94 15.6-17.79-7.12-40.45-25.17-51.49-38.35-62.48 66.65-107.41 35.17-12.65-15.21 9.28-3.69 13.99-5.89 19.06-.94 21.73 6.79 47.66 27.27 57.02 38.9Z"/><path fill="#e40013" d="M288.47 405.86c-1.03-.46-1.95-.86-2.78-1.21 10.85 12.55 32.37 30 49.55 35.96-8.62-11.09-26.59-25.5-46.76-34.75ZM274.4 535.81c50.52.4 102.41-5.22 131.99-17.27-.75-10.81-2.74-22.65-5.8-34.94-51.62 24.03-199.48 25.34-246.26-3.19-3.21 12.2-5.37 24-6.36 34.87 22.17 13.1 73.44 20.12 126.43 20.54Z"/><path fill="#e40013" d="M274.36 540.08c-52.25-.41-103.04-7.27-126.75-20.09-.49 8.21-.37 16.43 1.05 24.18 82.5 15.17 174.26 15.18 256.77 0 1.24-6.78 1.49-13.9 1.2-21.13-30.38 11.89-82.06 17.43-132.26 17.04Z"/><path fill="#92000e" d="M381.78 413.26c4.33 3.69 8.99 7.64 13.83 11.7 12.04-5.06 31.95-29.43 36.94-35.7-.79-1.65-1.52-3.24-2.19-4.76-3.71-1.85-7.37-3.59-10.95-5.19-4.26 3.57-29.93 24.68-44.83 28.62 3.52 2.52 6.31 4.56 7.19 5.32ZM456.89 474.72c9.69 7.47 17.2 12.93 20.67 14.81 19.03-13.75 41.74-37.99 18.58-59.33-6.6 9.51-25.12 35.14-39.25 44.52ZM423.68 448.1c11.94-8.8 24.57-29.42 26.4-32.47-6.32-6.46-11.47-14.58-15.42-22.14-6.28 7.76-23.37 28.03-35.46 34.5 7.91 6.63 16.22 13.51 24.39 20.19.03-.02.05-.05.09-.08Z"/><path fill="#92000e" d="M474.07 492.16c-33.76-22.84-64.51-50.37-95.88-76.3-5.57-4.18-14.98-10.73-20.94-14.95-3.85-3.53-8.79-3.95-7.31-7.83 1.62-3.9 16.58 10.06 20.57 11.96 12.43-3.08 36.7-20.63 44.51-27.63-34.49-17.54-59.83-7.67-77.93 14.52 32.43 23.37 63.2 49.01 92.5 76.13 9.31 7.64 25.5 26.22 33.94 30.14 4.13-.35 7.12-3.84 10.53-6.04Z"/><path fill="#92000e" d="M453.29 471.94c13.92-8.27 33.69-35.98 39.85-44.92-.34-.34-.69-.68-1.03-1.03-15.2 2.81-28.62 2.36-38.84-7.36-3 4.89-14.71 23.36-26.27 32.31 9.39 7.64 17.74 14.34 26.3 20.99ZM63.99 428.82a74.134 74.134 0 0 0-4.3 4.97c12.53 21.02 36.83 36.23 42.13 39.38 6.75-4.91 14.3-10.6 22.19-16.68-6.77-3.95-25.03-15.22-34.52-27.14-7.37 1.45-16.81.94-25.5-.53ZM56.99 437.55c-13.5 18.94 7.84 39.24 22.35 50.5 4.29-2.21 10.82-6.52 18.72-12.16-7.49-4.63-28.82-18.93-41.07-38.34ZM180.39 411.62c-5.73-1.97-28.16-10.41-49.43-28.33-2.27 1.11-4.55 2.25-6.85 3.44-1.19 4.6-2.67 9.77-4.75 14.9 20.45 16.59 37.68 25.94 40.85 26.31 7.19-5.77 14.04-11.32 20.18-16.33ZM117.77 405.27c-4.47 9.67-12.12 19.08-23.71 22.91 10.22 11.86 29.09 22.93 33.61 25.49 9.48-7.35 19.31-15.13 28.71-22.65-6.08-2.55-20.29-9.67-38.6-25.75Z"/><path fill="#2e0700" d="M292.39 397.15c-3.1-1.4-5.72-2.35-7.94-2.95-5.08-4.95-9.78-2.75-19.06.95-95.03 50.62-49.49 81.64 12.65 15.2 60.15 67.45 112.56 39.93 14.36-13.2Zm-21.36 6.73c-10.54 11.8-31.97 29.13-48.49 34.73 8.63-11.11 26.52-25.44 46.77-34.77 1.02-.47 1.95-.87 2.79-1.22-.34.4-.69.82-1.07 1.25Zm63.04 35.24c.43.52.81 1.02 1.16 1.49-17.18-5.96-38.7-23.4-49.55-35.96 19.46 7.96 40.24 24.32 48.38 34.47Z"/><path fill="#ed1c24" d="M97.46 390.17c-.14.32-.29.63-.43.95.15-.31.29-.63.43-.95ZM456.42 388.99c-.43-.77-.86-1.54-1.29-2.33.42.78.86 1.56 1.29 2.33ZM330.7 154.78c22.06-11.18 40.98-37.82 47.1-64.79-11.97-3.26-24.05-5.35-36.08-6.63 9.09 24.18 2.28 54.1-15.29 71.99 1.47-.19 2.9-.38 4.27-.58ZM403.14 148.85a244.684 244.684 0 0 1-41.86 19.77c1.34 6.78 1.92 13.6 3.33 20.33 35.83 1.13 67.74-29.26 82.93-58.36-2.81-3.77-5.73-7.15-8.78-10.07-9.81 10.17-21.57 19.98-35.62 28.33Z"/><path fill="#ed1c24" d="M420.09 171.85c-11.75 9.64-25.58 17.18-40.91 20.9l2.52 7.98c17.33-7.32 53.86-25.17 76.34-53.47-2.42-4.46-4.92-8.62-7.51-12.46-7.14 13.33-17.53 26.45-30.44 37.04ZM215.96 153.55c.72.13 1.46.28 2.2.4-16.23-17.47-22.62-45.67-14.59-68.92-10.06 1.27-20.46 3.45-30.92 6.83 5.96 25.18 23.11 50.11 43.31 61.68ZM441.74 357.13c.06.15.12.3.18.46-.11-.29-.23-.58-.34-.87.05.14.1.28.16.42ZM155.84 200.2c1.62-7.83 1.43-8.71 2.29-10.98-24.42-7.29-45.21-27.31-56.42-48.92-4.22 5.08-8.3 10.58-12.21 16.55 21.57 22.08 50.56 36.55 66.34 43.36Z"/><path fill="#ed1c24" d="M130.51 168.85c12.94 10.9 30.19 19.26 47.76 17.73.37-7.54 1.03-15.72 2.13-20.56-21.92-8.6-48.08-23.76-64.66-40.62a160.52 160.52 0 0 0-10.78 11.11c5.75 11.59 14.51 23.14 25.56 32.35ZM108.21 359.92c.42-1.44.83-2.92 1.25-4.43-.42 1.51-.84 2.99-1.25 4.43ZM433.58 334.13c-.06-.2-.13-.39-.19-.59.06.2.13.39.19.59ZM437.58 345.88c-.1-.28-.2-.57-.3-.85.1.28.2.57.3.85ZM435.54 339.99c-.05-.15-.1-.31-.16-.46.05.15.1.31.16.46ZM105.51 352.48c3.15-11.48 6.47-25.2 9.37-37.85-24.35-.27-54.46-9.64-73.63-25.51-4.07 12.84-8.01 24.31-11.63 34.59 17.91 18.06 50.75 28.72 75.89 28.77Z"/><path fill="#ed1c24" d="M50.99 256.32c-2.76 9.98-5.53 19.31-8.24 28.02 18.47 16.16 49.17 25.69 73.18 25.68 3.55-15.69 6.55-30 8.34-38.72-21.68-2.35-51.04-6.82-73.28-14.99ZM491.74 351.02c-13.77 4.79-28.92 7.36-44.6 7.53 11.58 29.22 26.04 54.41 43.27 58.22 10.44-1.96 20.89-5.61 27.6-8.15 24.1-9.12 29.63-14.35 30.89-16.23-2.67-6.31-12.24-29.16-23.74-59.78-9.6 7.88-20.94 14.06-33.42 18.41Z"/><path fill="#ed1c24" d="M432.46 314.96c3.71 12.7 8.02 26.15 12.89 38.99 28.53-.03 56.84-7.96 78.09-25.92-4.11-11.03-8.42-22.97-12.73-35.43-22 17.9-49.45 22.3-78.25 22.36Z"/><path fill="#ed1c24" d="M497.35 252.07c-21.44 9.36-53.52 13.22-77.7 14.79 3.5 13.67 6.51 26.07 11.48 43.49 28.81.06 56.36-4.05 77.98-22.42-4.22-12.32-7.4-22.2-11.75-35.86ZM424.24 302.84l-.57-2.07.57 2.07ZM137.81 287.83c-6.44 29.43-13.29 59.49-21.17 88.13-4.66 22.55-14.19 49.19-42.94 44.29.05-.02.09-.05.14-.08-.26.13-.53.25-.8.37 27.06 5.14 38.5-19.24 42.34-39.38 8.83-32.19 17.97-71.54 25.72-108.29h-.07c-1.05 4.96-2.12 9.9-3.22 14.96Z"/><path fill="#ed1c24" d="M113.22 341.29c-.37 1.46-.74 2.9-1.11 4.33.37-1.43.75-2.88 1.11-4.33ZM109.58 355.06c.8-2.9 1.61-5.9 2.42-9-.81 3.09-1.61 6.1-2.42 9ZM116.64 327.36l-.48 2.01.48-2.01ZM114.88 334.65c-.05.19-.09.38-.14.56.05-.19.09-.38.14-.56ZM480.74 417.68c-32.84 3.02-44.39-45.7-52.36-69.48-6.48-20.53-18.96-60.03-25.37-80.35 3.59-.12 7.63-.29 11.99-.53.12.47.25.96.38 1.46-.14-.56-.28-1.1-.42-1.63-4.42.25-8.5.42-12.12.54 14.58 29.26 31.22 157.24 78.43 150.32-.41-.24-.81-.5-1.22-.76.23.15.45.3.68.44Z"/><path fill="#ed1c24" d="M460.6 395.95c-.35-.55-.7-1.11-1.05-1.68.35.56.69 1.13 1.05 1.68ZM469.33 407.73c-.23-.26-.46-.53-.7-.8.22.28.46.54.7.8ZM96 393.31c-.16.33-.32.67-.48 1 .17-.33.32-.66.48-1ZM93.36 398.49c-.18.33-.35.66-.53.98.19-.32.36-.65.53-.98ZM60.93 418.24c26.69-1.19 34.37-34.69 43.29-61.16-25.51-.41-57.54-10.9-76.31-28.58-25.47 66.39-26.58 77.26 31.87 89.96.35-.16.74-.25 1.15-.22ZM85.53 410.36Z"/><path fill="#2e0700" d="M558.83 389.58c-.32-.74-23.9-55.67-44.82-119.07-2.91-8.81-5.27-16.15-7.52-23.21 34.15-6.84 9.1-166.54-22.19-151.28-3.73 2.21-6.88 7.69-9.12 17.25-2.09 8.91-5.79 17.16-10.58 24.77-5.74-9.99-11.96-18.57-18.82-25.23 28.1-35.24 46.29-74.54 31.55-73.08s-42.99 8.05-42.99 8.05c-4.98-20.56-22.86-34.85-45.84-31.16-5.49 1.17-9.36 5.05-8.56 10.51 2.91 19.35 2.68 36.89.06 52.46-14.43-3.9-28.95-6.16-43.33-7.38-9.42-16.67-25.1-28.96-43.78-34.2-4.86-50.1-33.04-51.09-38.2-.47-20.03 5.12-36.8 18.32-46.35 36.33-12.22 1.15-25.02 3.52-37.91 7.63-2.76-15.73-3.05-33.48-.09-53.13.78-5.44-3.06-9.31-8.54-10.47-22.88-3.67-40.69 10.58-45.64 31.03l-42.81-8.02c-14.95-1.67 4.3 40.87 35.17 77-9.23 8.7-18.01 18.95-26.1 31.01-8.53-10.38-15.21-22.2-18.32-35.46-2.24-9.56-5.4-15.04-9.12-17.25-15.58-7.06-22.62 19.6-27.7 33.85-11.12 47.51-25.62 107.18 14.29 122.33-9.44 34.19-18.95 60.73-26.4 81.53-18.53 51.75-25.22 70.43 10.26 83.94 8.23 3.14 17.88 6.33 27.61 8.69-23.41 24.29-1.68 53.34 19.98 69.04-1.02 16.11 2.05 34.29 15 44.02 33.87 10.68 71.22 17.77 108.33 21.79 52.74 5.17 109.27 5.11 162-.05 37.09-4.01 74.47-11.11 108.32-21.79 12.1-9.09 15.59-25.54 15.14-40.85 25-17.57 50.01-47.68 21.36-75.3 26.99-6.34 61.98-26.55 55.69-33.84Zm-35.39-61.55c-21.26 17.96-49.56 25.88-78.09 25.92-4.87-12.84-9.17-26.29-12.89-38.99 28.79-.07 56.25-4.47 78.25-22.36 4.31 12.47 8.62 24.4 12.73 35.43Zm-196.27 68.93c22.81 17.4 45.62 31.95 61.2 49.15-43.4 25.09-174.04 26.27-216.38-.17 18.45-14.82 40.36-31.55 64.18-48.5 6.43-5.79-7.11-16.06-23.83-28.2 19.31-20.3 37.83-34.41 64.71-31.38 28-3.14 47.18 12.36 67.02 33.93-13.28 11.66-23.19 19.62-16.9 25.16Zm-211.01-67.59c4.34-17.98 9.19-40.37 12.71-57.61 4.37.43 8.11.77 12.15 1.09v.02h.07c-7.76 36.76-16.89 76.09-25.72 108.29-3.83 20.13-15.3 44.53-42.34 39.38 28.43-16.88 34.57-61.52 43.13-91.17Zm-.23-19.35c-24.01 0-54.71-9.52-73.18-25.68 2.71-8.71 5.48-18.04 8.24-28.02 22.24 8.17 51.6 12.63 73.28 14.99-1.79 8.72-4.79 23.04-8.34 38.72Zm4.74 92.13c-.38-.33-.85-.5-1.31-.52 2.09-5.13 3.56-10.3 4.75-14.9 2.29-1.19 4.58-2.34 6.85-3.44 21.27 17.92 43.7 26.36 49.43 28.33-6.14 5-12.99 10.55-20.18 16.33-3.61-1.29-18.38-7.32-39.53-25.79Zm35.7 28.87c-9.39 7.52-19.23 15.3-28.71 22.65-4.52-2.56-23.39-13.63-33.61-25.49 11.59-3.83 19.24-13.24 23.71-22.91 18.31 16.09 32.52 23.2 38.6 25.75Zm-66.88-1.67c9.49 11.93 27.75 23.2 34.52 27.14-7.89 6.08-15.44 11.77-22.19 16.68-5.3-3.15-29.6-18.36-42.13-39.38 1.28-1.63 2.72-3.29 4.3-4.97 8.69 1.48 18.13 1.99 25.5.53Zm10.4 50.31c32.73-23.34 81.89-63.5 110.07-86.82 2.12-1.71-.6-5.11-2.73-3.28-.09.08-9.46 7.88-23.19 19.09-1.65-1.45-24.06-7.2-48.83-27.38 40.61-21.51 65.8-14.38 90.44 11.58-3.06 2.2-6.08 4.38-9.06 6.56-27.24 19.9-53.82 40.7-79.44 62.54-8.96 7.66-17.7 15.32-26.2 23.33-8.33 8.65-17.62 15.88-27.94 5.52 5.84-3.38 11.38-7.24 16.89-11.13Zm54.43.75c46.85 28.53 194.58 27.22 246.26 3.19 3.06 12.29 5.05 24.12 5.8 34.94-54.23 22.92-209.49 24.27-258.42-3.26.98-10.86 3.15-22.67 6.36-34.87Zm120.37 17.01c-50.53-.45-98.76-7.61-119.2-21.3a289.86 289.86 0 0 1 7.48-22.87c1.81-1.48 3.65-2.97 5.53-4.49 42.69 28.19 176.46 26.99 221.45 1.34 3.79 9.83 6.99 19.68 9.56 29.3-27.25 12.57-76.7 18.43-124.81 18.02Zm25.04-168.82c-42.75-2.81-59.32-1.9-91.8 30.96-29.98-4.44-46.72-1.57-80.52 14.53 8.06-29.72 16.53-67.25 23.61-100.54 3.79.48 7.16.11 8.09-3.89l11.39-59.29c.48-3.66-1.69-5.36-5.35-6.41.66-3.38 1.19-6.15 1.58-8.19l11.28.14c-2.16 21.35 16.16 19.85 34.53 22.94 27.96 5.97 58.64 7.98 87.53 5.53 18.28-2.55 68.39-3.43 65.74-26.08l4.85.06 1.88 5.96c-2.73.72-4.4 3.33-3.77 6.04l12.69 53.7c1.96 5.3 5.38 3.58 11.16 3.83l31.11 98.53c.03.1 1.53 4.85 1.52 4.76-30.85-14.38-50.24-15.6-79.05-11.59-14.07-14.55-29.76-25.63-46.47-31.01ZM188.25 184.85c2.14-28.37.91-25.77 27.81-21.25 42.45 8.43 93.78 5.19 128.99-1.03 7.95-.76 7.14 15.78 8.8 22.27.84 5.53 3.69 16.14 1.01 18.19-30.41 16.93-111.29 13.9-148.96 4.87-16.72-2.4-18.82-2.7-17.64-23.05Zm242.12 199.66c.67 1.52 1.4 3.11 2.19 4.76-4.99 6.27-24.91 30.63-36.94 35.7-8.37-6.86-11.71-10.47-21.02-17.02 14.9-3.95 40.56-25.06 44.83-28.62 3.58 1.6 7.25 3.34 10.95 5.19Zm4.3 8.97c3.95 7.57 9.1 15.69 15.42 22.14-1.82 3.06-14.55 23.77-26.49 32.55a2625.47 2625.47 0 0 1-24.39-20.19c12.09-6.46 29.18-26.74 35.46-34.5Zm18.6 25.15c10.21 9.72 23.64 10.18 38.84 7.36.35.34.7.68 1.03 1.03-6.16 8.93-25.93 36.64-39.85 44.92-8.55-6.65-16.91-13.35-26.3-20.99 11.56-8.95 23.28-27.42 26.27-32.31Zm11.61-3.18c-37.35-29.24-45.44-109.71-62.03-147.77 3.62-.12 7.7-.29 12.12-.54 12.46 44.37 27.76 123.34 66.31 150.85-6.43.46-12.28-.12-16.39-2.54Zm44.23-127.52c-21.63 18.38-49.16 22.48-77.98 22.42-4.96-17.43-7.98-29.81-11.48-43.49 24.18-1.58 56.25-5.43 77.7-14.79 4.36 13.66 7.54 23.55 11.75 35.86Zm-6.15-153.33c37.57 129.69-20.62 116.95-112.67 123.54l-7.94-33.6c18.82-1.65 112.76-46.87 120.62-89.94Zm-18.05-18.89c1.56-6.68 3.07-10.09 4.47-10.92 4.6 4.83 8.23 13.72 11.37 22.78-6.83 45.22-98 90.02-119.45 92.53l-1.79-7.55c18.49-7.21 91.89-39.17 105.4-96.84Zm-26.86 31.55c-22.49 28.3-59.02 46.15-76.34 53.47l-2.52-7.98c30.81-7.35 57.14-31.33 71.35-57.95 2.59 3.83 5.09 8 7.51 12.46Zm-10.52-16.67c-15.19 29.1-47.09 59.49-82.93 58.36-1.41-6.73-1.99-13.55-3.33-20.33 25.8-8.88 58.74-27.41 77.48-48.1 3.04 2.92 5.96 6.3 8.78 10.07Zm-33.67-98.9c8.62 6.37 12.17 22.85 12.18 22.9h.01c.56 2.63 3.13 4.34 5.79 3.85l39.23-7.35c-8.21 32.42-56.49 92.57-112.92 108.13a14.81 14.81 0 0 0-2-2.85c40.84-27.78 57.3-85.93 51.74-127.8 2.26.86 4.32 1.91 5.96 3.12Zm-34.04 83.23c12.66-27.53 14.69-58.87 10.3-88.58 3.7-.51 8.97-.35 13.03.78 5.88 46.82-11.04 98.89-50.84 126.45-.01 0-.02 0-.03-.01-.4-.17-.82-.32-1.24-.45 12.4-10.28 22.05-23.6 28.78-38.19Zm-38.1-31.55c12.03 1.28 24.11 3.37 36.08 6.63-6.91 27.29-25.97 58.33-51.36 65.36 17.57-17.89 24.38-47.82 15.29-71.99Zm-74.11-60.62c6.93-29.2 12.69-.1 14.92 13.15-5.71-.77-11.78-.85-17.53-.21.69-4.79 1.57-9.15 2.61-12.94Zm-39.12 40.58c59.43-55.49 146.12 26.7 88.91 87.03-6.41 8.26-15.31 7.73-25.25 8.1-16.91.81-36.09.61-56.1-1.79-30.58-19.84-34.62-68.88-7.55-93.34Zm-24.92 21.71c-8.03 23.25-1.64 51.44 14.59 68.92-22.06-9.39-39.06-36.83-45.51-62.08 10.45-3.39 20.85-5.56 30.92-6.83Zm-54.52-36.55c.09-7.04.61-14.07 1.58-20.99 3.38-.75 7.52-.52 10.34-.22-6.73 43.3 1.74 92.35 35.01 123.18-.05-.03-.09-.06-.14-.1.04.03.07.07.11.11-33.06-22.3-47.83-63.25-46.9-101.98ZM80 52.03l39.23 7.35c2.66.5 5.23-1.22 5.8-3.85-.04-3.08 7.68-25.79 20.89-26.94-6 40.5 5.09 95.66 44.59 123.51-2.54.88-4.77 2.5-6.37 4.68-53.43-16.91-97.27-77.05-104.13-104.74Zm35.74 73.36c16.58 16.86 42.75 32.02 64.66 40.62-1.09 4.83-1.75 13.04-2.13 20.56-31.78 2.22-60.22-23.95-73.32-50.08 3.51-3.98 7.11-7.67 10.78-11.11Zm-14.02 14.9c11.21 21.61 31.99 41.63 56.42 48.92-.86 2.26-.67 3.17-2.29 10.98-15.78-6.81-44.77-21.28-66.34-43.36 3.91-5.97 7.99-11.47 12.21-16.55Zm-55.3-30.81c1.91-3.06 3.18-4.85 3.45-4.69 13.4 62.41 84.41 99.35 110.04 107.82l-.82 4.24c-56.72-7.82-109.86-62.55-115.18-102.81.83-1.7 1.67-3.23 2.5-4.57ZM32.25 234.4c-14.09-15.05-4.3-79.89 8.59-113.3 10.99 43.85 59.43 90.47 117.37 100.3l-8.09 42.1c-19.2-1.16-97.18-7.17-117.88-29.1Zm9 54.71c19.17 15.87 49.28 25.24 73.63 25.51-2.9 12.65-6.22 26.37-9.37 37.85-25.14-.05-57.99-10.72-75.89-28.77 3.62-10.28 7.56-21.75 11.63-34.59ZM28.96 409.14c-30.31-7.52-15.39-40.89-1.04-80.64 18.78 17.68 50.8 28.16 76.31 28.58-9.28 27.4-16.49 60.19-44.44 61.39-10.68-2.27-21.65-5.83-30.83-9.33Zm29.52 57.78c-6.64-9.69-8.14-20.03-1.49-29.38 12.24 19.4 33.57 33.7 41.07 38.34-7.9 5.64-14.43 9.95-18.72 12.16-7.56-5.84-15.55-13.14-20.86-21.12Zm79.55 72.51c.1.93.21 1.84.32 2.73-16.4-3.38-31.96-7.37-46.45-11.91-6.8-7.76-9.37-16.77-9.5-27.84 22.21 15.03 42.91-21.24 66.01-37.09-8.24 27.46-12.43 50.03-10.38 74.11Zm268.22-1c-.21 1.99-.48 3.9-.82 5.75-82.51 15.18-174.26 15.17-256.77 0-1.42-7.76-1.54-15.98-1.05-24.18 51.78 26.86 202.6 25.73 259.02 3.05.22 5.04.11 10.8-.38 15.38Zm62.69-19.47c-1.61 4.32-3.89 8.06-6.76 11.28-14.49 4.53-30.04 8.52-46.45 11.91 2.99-27.67-2.39-53.35-12.65-84.74 16.29 14.39 26.86 24.45 36.64 33.68 11.66 10.37 19.27 22.04 31.84 14.75-.31 4.92-1.2 9.28-2.63 13.12Zm2.48-24.83c-2.43 1.57-4.86 4.03-7.88 4.06-4.46-.89-18.05-15.76-24.29-21.12-32.22-30.44-66.15-59.21-102.16-85.15 18.17-22.24 43.42-32.04 77.93-14.52-7.82 7.01-32.06 24.55-44.51 27.63-4.36-2.12-18.64-15.69-20.57-11.96-4.48 2.23 25.72 19.68 28.25 22.78 31.37 25.93 62.13 53.46 95.88 76.3-.96.72-1.84 1.38-2.65 1.97Zm33.95-49.47c4.7 18.69-14.55 34.39-27.81 44.87-3.47-1.88-10.98-7.34-20.67-14.81 14.13-9.38 32.65-35.01 39.25-44.52 4.6 5.11 7.85 10.01 9.23 14.46Zm12.64-36.03c-6.71 2.54-17.16 6.19-27.6 8.15-17.23-3.81-31.7-29-43.27-58.22 28.45-.36 56.5-8.38 78.03-25.94 11.5 30.63 21.07 53.47 23.74 59.78-1.27 1.88-6.8 7.11-30.89 16.23Z"/><path fill="#e8c86a" d="M282.53 35.9c-5.51-33.66-11.92-34.25-17.53-.21 5.75-.64 11.82-.56 17.53.21ZM152.82 141.19c10.69 6.36 21.31 11.5 31.31 15.59 1.6-2.18 3.83-3.8 6.37-4.68-39.49-27.82-50.6-83.04-44.59-123.51-13.38 1.28-20.86 23.81-20.89 26.94a5 5 0 0 1-5.8 3.85l-39.23-7.35c6.51 17.7 26.58 61.67 72.82 89.16ZM398.01 101.93c-8.12 20.3-21.44 39.8-41.86 54.45.75.84 1.41 1.79 2 2.85C415.03 143.34 462.6 83.78 471.07 51.1l-39.23 7.35c-2.66.5-5.23-1.22-5.79-3.85h-.01c.46-1.03-7.01-24.4-18.14-26.01 2.42 20.11.5 47.4-9.88 73.35Z"/><path fill="#e8c86a" d="M375.73 122.93c-6.3 11.46-14.65 21.81-24.7 30.18.42.13.85.28 1.24.45.01 0 .02 0 .03.01 39.79-27.57 56.71-79.64 50.84-126.45-4.07-1.13-9.34-1.29-13.03-.78 4.84 32.6 1.88 67.43-14.38 96.59ZM83.57 179.81c17.46 15.85 41.89 29.96 75.52 37.05l.82-4.24c-25.89-8.64-96.5-45.3-110.04-107.83-.74.15-4.93 6.84-5.95 9.26 2.32 12.94 12.72 41.32 39.65 65.76Z"/><path fill="#e8c86a" d="M158.22 221.4c-57.87-9.76-106.46-56.53-117.37-100.3-44.05 134.79 3.91 131.49 109.28 142.39l8.09-42.1ZM465.15 183.15c-32.81 25.33-74.81 39.98-82.8 41.4l7.94 33.6c92.38-6.58 150.15 6.01 112.67-123.54-5.92 18.94-20.59 35.23-37.81 48.55Z"/><path fill="#e8c86a" d="m379.51 212.55 1.79 7.55c21.62-2.6 112.53-47.23 119.45-92.53-26.56-65.49 13.82 34.37-121.24 84.98Z"/><path fill="#fffad0" d="M236.04 156.67c26.54 3.06 48.92 2.7 72.9.63 31.3-19.54 35.85-69.21 8.45-93.97-64.87-59.23-152.02 37.99-81.35 93.34Zm3.91-83.58c47.62-45.76 110.73 24.01 67.84 70.41-47.62 45.76-110.75-24.02-67.84-70.41Z"/><path fill="#e8c86a" d="M227.76 211.58c30.65 6.93 105.59 4.75 127.09-8.55 3.28-5.49-2.42-21.41-2.63-29.19-1.08-6.61-2.6-12.02-7.17-11.27-11.39 1.85-29.93 4.66-52.44 5.74-22.6 1.08-49.24.42-76.55-4.72-26.9-4.51-25.67-7.12-27.81 21.25-1.18 20.35.92 20.66 17.64 23.05 5.72.82 12.83 1.84 21.88 3.68Zm-27.4-13.69c-5.79-6.19-3.63-23.14.81-28.41 1.65-1.88 10.52-.97 23.58.37 13.3 1.36 31.18 3.19 49.16 3.68 17.03.6 39.3-1.58 53.62-4.14 8.43-1.9 15.97.36 16.85 10.15 1.31 5.65 3.18 14.77-2.85 20.13-14.4 14.6-127.78 9.8-141.15-1.77Z"/><path fill="#2e0700" d="M341.51 199.66c7.48-6.01 4.25-28.08-3.98-30.21-12.35-1.71-21.95 3-37.68 3.36-8.13.63-16.98.97-25.95.72-17.97-.49-35.86-2.32-49.16-3.68-13.06-1.34-21.93-2.25-23.58-.37-2.26 2.59-4.12 8.97-4.32 15.13-.15 5.23.78 10.38 3.72 13.5 13.51 11.14 126.6 16.22 140.95 1.55Zm-77.4 4.47c-19.11-1.19-38.78-1.73-57.21-7.19-8.47-3.05-5.69-16.26-3.23-22.79.93-3.02 7.43-.25 20.61.5 16.62 1.72 35.21 3.46 52.27 3.75 14.2.21 28.49-.88 42.54-2.83 6.01-.13 14.54-4.43 19.18.03 2.35 6.18 5.62 16.87-.68 21.68-22.65 10.04-49.22 6.77-73.48 6.85Z"/><path fill="#e8c86a" d="M273.87 153.61c57.28-1.64 57.27-88.99 0-90.63-57.3 1.64-57.29 88.99 0 90.63Z"/><path fill="#2e0700" d="M273.87 158.14c63.26-1.82 63.25-97.89 0-99.7-63.27 1.81-63.26 97.9 0 99.7Zm-30.66-81.92c43.36-41.54 100.17 22.17 61.32 64.14-43.36 41.54-100.18-22.18-61.32-64.14Z"/><path fill="#92000e" d="M114.77 335.08c-8.37 28.59-14.18 68.14-41.08 85.17 28.77 4.87 38.27-21.73 42.94-44.29 9.2-33.52 17.04-68.78 24.39-103.11-4.04-.32-7.79-.65-12.15-1.09-3.95 19.31-9.19 43.4-14.1 63.32ZM403.01 267.85c6.4 20.28 18.9 59.85 25.37 80.35 7.98 23.78 19.49 72.48 52.36 69.48-38.15-28.18-53.24-105.78-65.73-150.36-4.37.24-8.41.41-11.99.53ZM97.47 481.37c-4.73 3.29-9.49 6.55-14.47 9.42 10.4 10.34 19.54 3.18 27.94-5.52 8.5-8.01 17.24-15.67 26.2-23.33 25.63-21.84 52.2-42.64 79.44-62.54 2.98-2.18 6-4.36 9.06-6.56-24.72-26.01-49.82-33.07-90.44-11.58 24.77 20.18 47.18 25.93 48.83 27.38 13.73-11.21 23.1-19.01 23.19-19.09 2.06-1.77 4.91 1.52 2.73 3.28-29.25 24.17-78.63 64.62-112.49 88.53Z"/><path fill="#e8c86a" d="M149.13 55.9c.75 36.35 15.97 73.74 46.82 94.57-.04-.03-.07-.07-.11-.11.05.03.09.06.14.1-33.27-30.84-41.73-79.88-35.01-123.18-2.82-.3-6.97-.53-10.34.22-1.31 9.36-1.81 18.91-1.5 28.4ZM271.79 204.4c14.79-.33 61.29 2.59 68.67-10.74 1.75-5.55-.13-11.84-1.66-17.19-2.38-4.58-8.55-2.44-13.18-1.88-33.22 5.96-68.16 3.79-101.33.06-11.68-1.19-19.62-2-19.72-1.89-3.62 6.37-5.18 16.77-.37 22.83 21.15 8.17 45.15 7.3 67.59 8.81Z"/><path fill="#2e0700" d="M261.56 363.06c9.98 7.77 25.06 7.75 32.76-1.43a2.34 2.34 0 0 0-.54-3.27c-2.72-2.21-6.47 6.22-15.91 5.74-4.89.14-8.83-1.7-13.72-4.96-2.51-1.72-5.17 2.28-2.6 3.92Z"/></svg>