<?xml version="1.0" encoding="UTF-8"?><svg id="a" xmlns="http://www.w3.org/2000/svg" xmlns:xlink="http://www.w3.org/1999/xlink" viewBox="0 0 408.43 396.4"><defs><filter id="b" x="-1.03" y="-1.87" width="415" height="404" filterUnits="userSpaceOnUse"><feOffset dx="2" dy="2"/><feGaussianBlur result="c" stdDeviation="1"/><feFlood flood-color="#4a2600" flood-opacity=".25"/><feComposite in2="c" operator="in"/><feComposite in="SourceGraphic"/></filter></defs><g filter="url(#b)"><path d="M402.02,196.33c33.75-78.17-73.63-150.65-141.17-117.42C245.59,5.56,123.31-34.49,81.87,39.04c-23.26,52.5-146.36,208.9-37.7,263.91,30.53,17.49,68.5,31.61,101.05,13.21,5.93,37.38,39.68,57.95,72.58,71.49,110.48,51.49,155.3-139.03,184.22-191.32Z" fill="#fafbf3"/><path d="M230.68,114.94c10.64-26.42-1.06-56.89-26.63-69.37l-.14-.08c-20.77-12.29-38.75-18.44-54.1-18.44-18.31,0-32.89,8.75-44.04,26.26-10.99,18.48-24.56,42.62-38.6,70.83,12.15-21.34,29.77-41.74,54.86-51.05,21.64-8.02,38.65-4.09,40.32-3.67,1.67-2.28,4.09-3.59,7.03-3.74,5.27-.27,11.41,3.44,13.98,8.44l.14.34c.59,1.97.56,3.85.09,5.65,3.54,3.05,14.78,13.87,20.93,33.21,6.61,20.77,8.23,55.68-21.58,104.03l-.08.13c-1.41,1.93-5.69,7.36-9.53,7.36-.76,0-1.51-.21-2.21-.71l-.26-.18c-3.94-2.78-6.01-5.65.78-19.58l.05-.1c15.71-28.1,5.66-62.04-1.67-86.82-2.54-8.59-4.73-15.99-5.6-22-1.12-.5-1.96-1.23-2.56-1.94-.08-.09-.14-.2-.22-.3-5.34,3.2-12.83,6.15-21.61,9.61-24.04,9.47-56.97,22.45-69.45,52.12l-.05.1c-5.2,10.65-8.49,13.23-11.82,13.23-1.02,0-2.05-.24-3.13-.57l-.31-.09c-4.97-1.48-2.78-10.58-1.99-13.34l.05-.14c.84-2.27,1.75-4.6,2.72-6.97-9.1,19.43-18.18,40.37-26.67,62.39-4.9,12.71-4.83,26.71.2,39.42,5.03,12.69,14.55,22.98,26.83,28.97l.14.08c46.15,27.26,78.52,24.67,98.94-7.92,34.06-58.42,59.71-116.63,75.22-155.16ZM130.12,53.81l-.45-.22,2.86-5.86.45.22-2.86,5.86ZM148.05,42.76l-.45-.22,2.34-4.8.45.22-2.34,4.8ZM207.29,78.26l-.45-.22,5.2-10.66.45.22-5.2,10.66ZM46.27,253.13l-.45-.22,2.6-5.33.45.22-2.6,5.33ZM107.15,199.67l-.45-.22,5.72-11.73.45.22-5.72,11.73ZM116.39,249.72l-.45-.22,5.98-12.26.45.22-5.98,12.26ZM128.56,246.42l-.45-.22,5.98-12.26.45.22-5.98,12.26Z" fill="#873f29"/><path d="M205.87,42.01c-20.95-12.38-38.86-18.56-54.73-18.89-20.22-.4-36.64,9.02-48.78,28.1-21.05,35.4-51.46,91.36-76.73,156.9-5.26,13.65-5.19,28.68.22,42.33,5.39,13.6,15.58,24.62,28.72,31.05,21.22,12.52,39.28,18.79,55.23,19.15.48.01.95.02,1.42.02,19.79,0,35.82-9.57,47.68-28.5,34.21-58.68,59.94-117.08,75.51-155.74,11.41-28.34-1.12-61.01-28.52-74.42ZM56.52,278.02l-.14-.08c-12.27-5.99-21.8-16.27-26.83-28.97-5.03-12.71-5.1-26.71-.2-39.42,8.49-22.03,17.57-42.96,26.67-62.39,3.06-7.48,6.73-15.31,11.13-23.03,14.05-28.2,27.61-52.34,38.6-70.83,11.15-17.52,25.73-26.26,44.04-26.26,15.35,0,33.33,6.15,54.1,18.44l.14.08c25.57,12.48,37.27,42.95,26.63,69.37-15.52,38.54-41.17,96.75-75.22,155.16-20.42,32.59-52.78,35.18-98.94,7.92Z" fill="#380b08"/><path d="M160.53,73.13c-3.75-.75-18.94-3.09-37.36,3.8-28.06,10.5-50.91,37.66-66.09,78.52-1,3.54-1.31,7.67-.62,8.37l.25.05c2.45.74,4.38,1.32,10.17-10.54,13.15-31.19,46.96-44.51,71.65-54.24,8.41-3.31,16.14-6.36,21.3-9.5-1.6-5.42-.48-12.77.69-16.47Z" fill="#fff0c9"/><path d="M53.26,154.28c-.79,2.76-2.98,11.86,1.99,13.34l.31.09c1.08.33,2.11.57,3.13.57,3.33,0,6.62-2.58,11.82-13.23l.05-.1c12.48-29.68,45.41-42.65,69.45-52.12,8.78-3.46,16.27-6.41,21.61-9.61-.79-1.02-1.37-2.25-1.78-3.61-5.16,3.14-12.89,6.19-21.3,9.5-24.69,9.73-58.5,23.05-71.65,54.24-5.79,11.86-7.73,11.28-10.17,10.54l-.25-.05c-.69-.71-.38-4.84.62-8.37,15.18-40.86,38.03-68.02,66.09-78.52,18.42-6.89,33.61-4.56,37.36-3.8.13-.4.25-.77.38-1.08.38-.98.86-1.86,1.42-2.62-1.67-.42-18.68-4.36-40.32,3.67-25.09,9.3-42.71,29.71-54.86,51.05-4.39,7.72-8.07,15.55-11.13,23.03-.96,2.36-1.88,4.69-2.72,6.97l-.05.14Z" fill="#380b08"/><path d="M175.18,206.18c-5.78,11.86-4.13,13.03-2.04,14.51l.27.19c.88.04,3.96-2.71,6.14-5.68,22.86-37.11,30.19-71.84,21.2-100.42-5.31-16.89-14.91-27.1-18.89-30.79-2.27,3.73-6.03,6.98-9.14,9.67-.69.59-1.34,1.16-1.93,1.69l-.39.35-.51.12c-.47.11-.91.17-1.34.22.96,5.66,3.03,12.7,5.27,20.27,7.53,25.45,17.85,60.29,1.36,89.86Z" fill="#fff0c9"/><path d="M181.86,83.99c3.98,3.69,13.58,13.9,18.89,30.79,8.99,28.58,1.66,63.3-21.2,100.42-2.17,2.96-5.25,5.72-6.14,5.68l-.27-.19c-2.09-1.47-3.74-2.64,2.04-14.51,16.49-29.56,6.18-64.41-1.36-89.86-2.24-7.58-4.32-14.61-5.27-20.27-.35.04-.7.06-1.02.06-1.24,0-2.27-.26-3.14-.66.87,6.01,3.06,13.41,5.6,22,7.33,24.78,17.38,58.72,1.67,86.82l-.05.1c-6.79,13.93-4.72,16.79-.78,19.58l.26.18c.7.5,1.45.71,2.21.71,3.83,0,8.12-5.42,9.53-7.36l.08-.13c29.8-48.35,28.18-83.26,21.58-104.03-6.15-19.34-17.39-30.16-20.93-33.21-.35,1.34-.94,2.63-1.7,3.87Z" fill="#380b08"/><path d="M164.62,73.54c-1.66,4.07-2.66,13.95.26,17.39.55.65,1.52,1.44,3.65,1.09.5-.44,1.03-.9,1.58-1.38,4.65-4.03,11.01-9.54,9.59-14.84-1.84-3.4-6.2-6.12-9.78-6.12-.12,0-.23,0-.35,0-2.33.12-3.99,1.41-4.94,3.85Z" fill="#fff0c9"/><path d="M160.91,72.06c-.12.31-.25.68-.38,1.08-1.18,3.69-2.3,11.05-.69,16.47.4,1.36.99,2.59,1.78,3.61.08.1.14.21.22.3.6.71,1.45,1.43,2.56,1.94.87.39,1.9.66,3.14.66.33,0,.67-.02,1.02-.06.43-.05.87-.11,1.34-.22l.51-.12.39-.35c.59-.53,1.25-1.1,1.93-1.69,3.11-2.69,6.87-5.95,9.14-9.67.76-1.24,1.35-2.53,1.7-3.87.47-1.8.5-3.68-.09-5.65l-.14-.34c-2.57-5-8.71-8.71-13.98-8.44-2.94.15-5.36,1.46-7.03,3.74-.56.77-1.04,1.64-1.42,2.62ZM169.56,69.69c.12,0,.23,0,.35,0,3.58,0,7.94,2.72,9.78,6.12,1.42,5.31-4.93,10.81-9.59,14.84-.55.48-1.08.94-1.58,1.38-2.12.35-3.1-.44-3.65-1.09-2.91-3.43-1.92-13.31-.26-17.39.95-2.43,2.61-3.73,4.94-3.85Z" fill="#380b08"/><rect x="124.5" y="239.93" width="13.64" height=".5" transform="translate(-142.11 253.1) rotate(-64.04)" fill="#380b08"/><rect x="112.33" y="243.23" width="13.64" height=".5" transform="translate(-151.92 244.01) rotate(-64.04)" fill="#380b08"/><rect x="103.26" y="193.45" width="13.05" height=".5" transform="translate(-112.43 207.6) rotate(-64.04)" fill="#380b08"/><rect x="128.07" y="50.52" width="6.52" height=".5" transform="translate(28.02 146.44) rotate(-63.94)" fill="#380b08"/><rect x="203.74" y="72.57" width="11.86" height=".5" transform="translate(52.29 229.33) rotate(-63.99)" fill="#380b08"/><rect x="146.33" y="40" width="5.34" height=".5" transform="translate(47.58 156.59) rotate(-64.04)" fill="#380b08"/><rect x="44.38" y="250.11" width="5.93" height=".5" transform="translate(-198.47 183.32) rotate(-64.04)" fill="#380b08"/><path d="M300.99,341.1c34.06-58.43,59.71-116.63,75.22-155.16,10.64-26.42-1.06-56.89-26.63-69.37l-.14-.08c-20.77-12.29-38.75-18.44-54.1-18.44-18.31,0-32.89,8.75-44.04,26.26-10.99,18.48-24.55,42.62-38.6,70.82,12.15-21.33,29.77-41.74,54.85-51.04,21.63-8.02,38.64-4.09,40.32-3.67,1.67-2.28,4.09-3.59,7.03-3.74,5.23-.28,11.41,3.44,13.98,8.44l.14.34c.59,1.97.56,3.85.09,5.65,3.54,3.05,14.78,13.87,20.93,33.21,6.61,20.77,8.23,55.68-21.58,104.03l-.08.13c-1.41,1.93-5.69,7.36-9.53,7.36-.76,0-1.51-.21-2.21-.71l-.26-.18c-3.94-2.78-6.01-5.65.78-19.58l.05-.1c15.71-28.1,5.66-62.04-1.67-86.82-2.54-8.59-4.73-15.99-5.6-22-1.12-.5-1.96-1.23-2.56-1.94-.08-.09-.14-.2-.22-.3-5.34,3.2-12.83,6.15-21.61,9.61-24.04,9.47-56.97,22.45-69.45,52.12l-.05.1c-5.2,10.66-8.49,13.23-11.82,13.23-1.02,0-2.05-.24-3.13-.57l-.3-.09c-4.97-1.48-2.78-10.58-1.99-13.34l.05-.14c.84-2.27,1.75-4.6,2.72-6.97-9.1,19.43-18.18,40.37-26.67,62.39-4.9,12.71-4.83,26.71.2,39.42,5.03,12.69,14.55,22.98,26.83,28.97l.14.08c21.05,12.43,39.23,18.66,54.72,18.66,18.47,0,33.11-8.85,44.22-26.58ZM275.66,124.81l-.45-.22,2.86-5.86.45.22-2.86,5.86ZM293.59,113.76l-.45-.22,2.34-4.8.45.22-2.34,4.8ZM352.83,149.26l-.45-.22,5.2-10.66.45.22-5.2,10.66ZM191.81,324.13l-.45-.22,2.6-5.33.45.22-2.6,5.33ZM252.68,270.67l-.45-.22,5.72-11.73.45.22-5.72,11.73ZM261.92,320.72l-.45-.22,5.98-12.26.45.22-5.98,12.26ZM274.09,317.41l-.45-.22,5.98-12.26.45.22-5.98,12.26Z" fill="#873f29"/><path d="M351.4,113.01c-20.95-12.38-38.86-18.56-54.73-18.89-20.2-.41-36.64,9.02-48.78,28.1-21.05,35.4-51.46,91.36-76.73,156.9-5.26,13.65-5.19,28.68.22,42.33,5.39,13.6,15.58,24.62,28.72,31.05,21.21,12.52,39.28,18.79,55.23,19.15.48.01.95.02,1.42.02,19.79,0,35.82-9.57,47.68-28.5,34.21-58.69,59.95-117.08,75.51-155.74,11.41-28.34-1.12-61.01-28.52-74.42ZM202.05,349.02l-.14-.08c-12.27-5.99-21.8-16.27-26.83-28.97-5.03-12.71-5.11-26.71-.2-39.42,8.49-22.03,17.57-42.96,26.67-62.39,3.06-7.48,6.74-15.31,11.13-23.03,14.05-28.2,27.61-52.34,38.6-70.82,11.15-17.52,25.73-26.26,44.04-26.26,15.35,0,33.33,6.15,54.1,18.44l.14.08c25.57,12.48,37.27,42.95,26.63,69.37-15.51,38.53-41.16,96.73-75.22,155.16-11.11,17.73-25.74,26.58-44.22,26.58-15.49,0-33.67-6.23-54.72-18.66Z" fill="#380b08"/><path d="M306.06,144.13c-3.75-.75-18.94-3.09-37.35,3.8-28.06,10.5-50.91,37.66-66.09,78.52-1,3.54-1.31,7.67-.62,8.37l.25.05c2.45.74,4.38,1.32,10.17-10.54,13.15-31.19,46.96-44.52,71.65-54.24,8.41-3.31,16.14-6.36,21.3-9.5-1.6-5.42-.48-12.77.69-16.47Z" fill="#fff0c9"/><path d="M198.79,225.28c-.79,2.75-2.98,11.86,1.99,13.34l.3.09c1.08.33,2.11.57,3.13.57,3.33,0,6.62-2.58,11.82-13.23l.05-.1c12.48-29.68,45.41-42.65,69.45-52.12,8.78-3.46,16.27-6.41,21.61-9.61-.79-1.02-1.37-2.25-1.78-3.61-5.16,3.14-12.89,6.19-21.3,9.5-24.69,9.73-58.5,23.05-71.65,54.24-5.79,11.86-7.73,11.28-10.17,10.54l-.25-.05c-.69-.71-.38-4.84.62-8.37,15.18-40.86,38.03-68.02,66.09-78.52,18.42-6.89,33.6-4.56,37.35-3.8.13-.4.25-.77.38-1.08.38-.98.86-1.86,1.42-2.62-1.68-.42-18.69-4.35-40.32,3.67-25.09,9.3-42.7,29.71-54.85,51.04-4.4,7.72-8.07,15.55-11.13,23.03-.96,2.36-1.88,4.69-2.72,6.97l-.05.14Z" fill="#380b08"/><path d="M320.72,277.17c-5.78,11.86-4.13,13.03-2.04,14.51l.27.19c.91.06,3.97-2.72,6.14-5.68,22.86-37.11,30.19-71.84,21.2-100.42-5.31-16.89-14.91-27.1-18.89-30.79-2.27,3.73-6.03,6.98-9.14,9.67-.69.59-1.34,1.16-1.93,1.69l-.39.35-.51.12c-.47.11-.91.17-1.34.22.96,5.66,3.03,12.7,5.27,20.27,7.53,25.45,17.84,60.29,1.36,89.86Z" fill="#fff0c9"/><path d="M327.4,154.99c3.98,3.69,13.58,13.9,18.89,30.79,8.99,28.58,1.66,63.3-21.2,100.42-2.17,2.96-5.23,5.73-6.14,5.68l-.27-.19c-2.09-1.48-3.74-2.64,2.04-14.51,16.49-29.56,6.18-64.41-1.36-89.86-2.24-7.58-4.32-14.61-5.27-20.27-.35.04-.7.06-1.02.06-1.24,0-2.27-.26-3.14-.66.87,6.01,3.06,13.41,5.6,22,7.33,24.78,17.38,58.72,1.67,86.82l-.05.1c-6.79,13.93-4.72,16.79-.78,19.58l.26.18c.7.5,1.45.71,2.21.71,3.83,0,8.12-5.42,9.53-7.36l.08-.13c29.8-48.35,28.18-83.26,21.58-104.03-6.15-19.34-17.39-30.16-20.93-33.21-.35,1.34-.94,2.63-1.7,3.87Z" fill="#380b08"/><path d="M310.15,144.53c-1.66,4.07-2.66,13.95.26,17.39.55.65,1.53,1.44,3.65,1.09.5-.44,1.03-.9,1.58-1.38,4.65-4.03,11.01-9.54,9.59-14.84-1.84-3.4-6.2-6.12-9.78-6.12-.12,0-.23,0-.35,0-2.33.12-3.99,1.41-4.94,3.85Z" fill="#fff0c9"/><path d="M306.44,143.05c-.12.31-.25.68-.38,1.08-1.18,3.69-2.3,11.05-.69,16.47.4,1.36.99,2.59,1.78,3.61.08.1.14.21.22.3.6.71,1.45,1.43,2.56,1.94.87.39,1.9.66,3.14.66.33,0,.67-.02,1.02-.06.43-.05.87-.11,1.34-.22l.51-.12.39-.35c.59-.53,1.25-1.1,1.93-1.69,3.11-2.69,6.87-5.95,9.14-9.67.76-1.24,1.35-2.53,1.7-3.87.47-1.8.5-3.68-.09-5.65l-.14-.34c-2.57-5-8.75-8.72-13.98-8.44-2.94.15-5.36,1.46-7.03,3.74-.56.77-1.04,1.64-1.42,2.62ZM315.1,140.68c.12,0,.23,0,.35,0,3.58,0,7.94,2.72,9.78,6.12,1.42,5.31-4.93,10.81-9.59,14.84-.55.48-1.08.94-1.58,1.38-2.12.35-3.09-.44-3.65-1.09-2.91-3.43-1.92-13.31-.26-17.39.95-2.44,2.61-3.73,4.94-3.85Z" fill="#380b08"/><rect x="270.04" y="310.92" width="13.64" height=".5" transform="translate(-124.12 423.86) rotate(-64.04)" fill="#380b08"/><rect x="257.87" y="314.23" width="13.64" height=".5" transform="translate(-133.93 414.77) rotate(-64.04)" fill="#380b08"/><rect x="248.79" y="264.45" width="13.05" height=".5" transform="translate(-94.44 378.36) rotate(-64.04)" fill="#380b08"/><rect x="273.6" y="121.52" width="6.52" height=".5" transform="translate(45.83 316.97) rotate(-63.94)" fill="#380b08"/><rect x="349.27" y="143.56" width="11.86" height=".5" transform="translate(70.21 400) rotate(-63.99)" fill="#380b08"/><rect x="291.87" y="111" width="5.34" height=".5" transform="translate(65.56 327.35) rotate(-64.04)" fill="#380b08"/><rect x="189.92" y="321.1" width="5.93" height=".5" transform="translate(-180.48 354.08) rotate(-64.04)" fill="#380b08"/></g></svg>