<?xml version="1.0" encoding="UTF-8"?>
<svg id="Layer_1" data-name="Layer 1" xmlns="http://www.w3.org/2000/svg" viewBox="0 0 500 500">
  <defs>
    <style>
      .cls-1 {
        fill: #aeb6ba;
        stroke-width: 0px;
      }
    </style>
  </defs>
  <path class="cls-1" d="M298.52,379.25c-37.61,0-75.22-.03-112.84.01-17.41.02-32.14-9-36.78-23.3-4.31-13.28-2.71-25.65,7.32-36.17.62-.65,1.13-1.42,1.82-1.97,3.79-2.96,4.14-6.24,2.67-10.91-22.08-69.97-43.97-140.01-65.77-210.06-1.31-4.22-3.79-6.35-7.8-7.67-17.87-5.84-35.7-11.79-53.5-17.84-7.6-2.58-10.94-8.32-9.17-15.08,2-7.65,7.97-10.94,15.9-8.36,18.58,6.04,37.09,12.27,55.64,18.4,3.97,1.31,7.91,2.75,11.96,3.73,4.14,1.01,6.16,3.54,7.38,7.47,4.68,15.1,9.67,30.1,14.31,45.2,1.15,3.73,2.91,4.91,6.91,4.91,105.83-.13,211.65-.11,317.48-.1,2.69,0,5.38-.04,8.06.09,10.11.49,16,8.49,13.21,18.25-2.46,8.6-5.24,17.12-7.9,25.66-12.82,41.15-25.73,82.27-38.4,123.46-2.57,8.35-7.72,12.6-16.31,13.46-66.22,6.63-132.44,13.35-198.65,20.04-10.39,1.05-20.8,1.98-31.16,3.28-7.43.93-11.08,5.53-10.48,12.41.59,6.8,4.62,10.12,12.22,10.12,75.38,0,150.75,0,226.13.04,2.96,0,6,.18,8.88.82,6.56,1.45,9.63,5.72,9.27,12.26-.34,6.11-4.01,10.06-10.4,10.88-2.8.36-5.66.45-8.49.45-37.17.03-74.33.02-111.5.02,0,.16,0,.32,0,.49ZM139.1,152.61c.23,1.2.29,1.93.5,2.61,15.33,49.43,30.7,98.85,45.96,148.3.87,2.83,2.18,3.12,4.85,2.85,39.48-4.12,78.98-8.09,118.46-12.15,30.88-3.17,61.74-6.43,92.62-9.56,2.5-.25,3.96-.91,4.79-3.57,11.58-36.85,23.31-73.66,34.93-110.49,1.82-5.78,3.3-11.67,5.06-17.98H139.1Z"/>
  <path class="cls-1" d="M201.7,452.88c-20.32.07-34.83-13.79-34.87-33.33-.05-19.24,14.82-33.82,34.63-33.95,18.94-.12,34.87,15.51,34.81,34.15-.05,18.29-15.47,33.07-34.57,33.13ZM211.47,419.48c.07-5.1-4.77-9.86-10.07-9.93-5.1-.06-9.48,4.43-9.55,9.79-.07,5.23,4.4,9.99,9.39,9.99,5.22,0,10.17-4.76,10.24-9.85Z"/>
  <path class="cls-1" d="M385.47,452.96c-19.67-.06-34.28-14.51-34.14-33.75.14-19.59,14.99-33.77,35.28-33.7,18.85.06,33.45,14.96,33.43,34.13-.01,19.13-14.8,33.38-34.57,33.32ZM395.48,419.63c.08-5.28-4.68-10.1-9.93-10.07-5,.03-9.38,4.32-9.56,9.37-.19,5.24,4.45,10.25,9.62,10.39,4.87.13,9.79-4.7,9.86-9.69Z"/>
</svg>