<?xml version="1.0" encoding="UTF-8"?><svg xmlns="http://www.w3.org/2000/svg" viewBox="0 0 310.46 192.5"><g isolation="isolate"><g id="a"><path d="M24.92,149.06c-6.92-3.56-25.31-13.01-22.66-28.76L18.45,24.22c16.32-51.95,234.68.89,267.17,20.14,6.9,3.55,25.22,12.96,22.57,28.69,0,0-16.19,96.08-16.19,96.08-2.42,14.36-18.55,20.74-53.92,21.33-59.71.86-162.3-16.26-213.17-41.41Z" fill="none" stroke="#fff" stroke-linecap="round" stroke-linejoin="round" stroke-width="4"/><path d="M237.29,180.07c-59.02,0-170.23-20.28-198.56-36.2-18.66-8.01-27.19-15.15-26.07-21.82L29.19,24l268.94,45.32-16.55,98.17c-1.95,8.46-16.43,12.58-44.29,12.58Z" fill="#5aaaba"/><path d="M30.83,26.31l264.99,44.66-16.19,96.08c-1.81,7.87-18.47,11.03-42.34,11.03-61.56,0-171.1-20.97-197.68-35.99-16.56-7.1-25.94-14.01-24.98-19.69L30.83,26.31M27.55,21.7l-.66,3.94L10.69,121.73c-1.31,7.8,7.31,15.41,27.15,23.94,13.24,7.39,45.63,16.35,86.77,23.97,41.98,7.78,84.1,12.43,112.68,12.43s44.02-4.49,46.23-14.13l.03-.12.02-.12,16.19-96.08.66-3.94-3.94-.66L31.49,22.36l-3.94-.66h0Z"/><g mix-blend-mode="multiply" opacity=".42"><path d="M295.82,70.97l-16.19,96.08c-6.45,28.19-203.16-4.13-240.01-24.96,31.98,5.79,102.66,26.6,128.01,3.74,21.7-27.75-2.38-60.62-29-73.05-11.35-6.81-9.12-18.24-2.64-28.75l159.84,26.94Z" fill="#8069f8"/></g><path d="M249.43,83.56c-68.09,0-208.02-23.88-220.48-56.54l-.13-.34v-.36c-.02-2.46-.04-6.57,4.72-8.84,6.54-3.13,18.57-4.72,35.75-4.72,34.05,0,86.83,6.47,134.47,16.48,23.94,5.03,44.95,10.62,60.76,16.17,17.91,6.28,28.9,12.41,32.67,18.2,2.13,3.27,1.74,6.02,1,7.8-2.29,8.07-18.69,12.16-48.77,12.16Z" fill="#efeaff"/><path d="M69.3,14.76c77.06,0,237.48,32.33,227.01,55.98-1.95,7.53-20.46,10.82-46.88,10.82-73.18,0-207.15-25.21-218.61-55.25-.01-2.68.12-5.37,3.59-7.03,6.55-3.14,18.94-4.52,34.89-4.52M69.31,10.76v4-4c-17.49,0-29.81,1.65-36.62,4.91-5.9,2.82-5.87,8.11-5.86,10.66v.73s.26.68.26.68c3.16,8.28,13.25,15.98,30.86,23.56,14.7,6.33,34.81,12.48,58.15,17.81,43.81,10,96.15,16.46,133.34,16.46,13.97,0,25.23-.9,33.46-2.68,10.06-2.17,15.69-5.71,17.2-10.82.9-2.23,1.35-5.61-1.21-9.55-10.06-15.45-63.65-28.71-94.69-35.23-47.76-10.04-100.7-16.52-134.88-16.52h0Z"/><path d="M232.66,63.65c-10.56,7.67-155.32-15.12-143.17-30.76,23.84,8.11,49.16,16.7,74.49,16.61,6.76-1.46,7.63-9.84,1.55-12.9-8.83-3.95-15.71-3.02-27.02-7.6,22.81,2.41,46.37,3.87,68.15,11.45,6.18,2.16,42.61,18.1,25.99,23.21Z" fill="#ff4f89" mix-blend-mode="multiply" opacity=".35"/><path d="M76.12,30c-6.81,15.79,176.73,47.55,175.6,30.39,6.81-15.79-176.73-47.55-175.6-30.39Z" fill="#d35a78" stroke="#000" stroke-linecap="round" stroke-linejoin="round" stroke-width="4"/></g></g></svg>