<svg width="32" height="38" viewBox="0 0 32 38" fill="none" xmlns="http://www.w3.org/2000/svg">
<path d="M32 15.3764H31.9956C31.6916 15.4077 31.3833 15.4211 31.0749 15.4256C27.7093 15.4256 24.5683 13.7022 22.7225 10.8373V26.4554C22.7225 32.8298 17.6344 38 11.3612 38C5.08812 38 0 32.8298 0 26.4554C0 20.081 5.08812 14.9108 11.3612 14.9108C11.5991 14.9108 11.8282 14.9332 12.0617 14.9466V20.6361C11.8282 20.6093 11.5991 20.5645 11.3612 20.5645C8.15861 20.5645 5.56388 23.2011 5.56388 26.4554C5.56388 29.7097 8.15861 32.3463 11.3612 32.3463C14.5639 32.3463 17.3921 29.7814 17.3921 26.527L17.4494 0H22.8062C23.3128 4.87926 27.185 8.69313 32 9.05124V15.3719V15.3764Z" fill="white"/>
</svg>
