<?xml version="1.0" encoding="UTF-8"?>
<svg id="Layer_1" data-name="Layer 1" xmlns="http://www.w3.org/2000/svg" viewBox="0 0 250 250">
  <defs>
    <style>
      .cls-1 {
        fill: #fff;
        stroke-width: 0px;
      }
    </style>
  </defs>
  <path class="cls-1" d="M107.28,95.01v38.98c-6.28.35-12.56-.19-18.38,1.2-16.49,3.94-26.59,19.92-24.17,36.98,2.3,16.14,16.89,28.47,33.37,28.19,16.64-.28,30.63-13.14,32.35-29.82.23-2.25.3-4.53.3-6.8.05-49.34.08-98.69.11-148.03,0-1.8,0-3.6,0-5.68h39.1c6.01,35.81,17.35,47.15,55.33,55.25v38.81c-9.83.54-19.36-.94-28.39-4.35-8.96-3.38-17.55-7.74-26.57-11.8,0,1.13,0,2.72,0,4.31,0,24.82.1,49.65-.03,74.47-.19,36.46-25.14,65.86-61.06,72.18-38.22,6.73-76.3-19.91-83.34-58.31-8.48-46.26,27.7-88.06,74.74-86.31,2.1.08,4.18.44,6.62.71Z"/>
</svg>