<?xml version="1.0" encoding="UTF-8"?>
<svg id="Layer_1" data-name="Layer 1" xmlns="http://www.w3.org/2000/svg" viewBox="0 0 500 500">
  <defs>
    <style>
      .cls-1 {
        fill: #aeb6ba;
        stroke-width: 0px;
      }
    </style>
  </defs>
  <path class="cls-1" d="M451.79,164.75c-11.03-26.08-26.82-49.5-46.93-69.61-20.11-20.11-43.53-35.9-69.61-46.93-27.01-11.42-55.69-17.21-85.25-17.21s-58.24,5.79-85.25,17.21c-26.08,11.03-49.5,26.82-69.61,46.93-20.11,20.11-35.9,43.53-46.93,69.61-11.42,27.01-17.21,55.69-17.21,85.25s5.79,58.24,17.21,85.25c11.03,26.08,26.82,49.5,46.93,69.61,5.39,5.39,11.17,10.6,17.12,15.41l.15.12c15.89,12.86,33.5,23.43,52.35,31.4,27.01,11.42,55.69,17.21,85.25,17.21s58.24-5.79,85.25-17.21c18.85-7.97,36.46-18.54,52.42-31.46,6.01-4.87,11.79-10.07,17.19-15.47,20.11-20.11,35.9-43.53,46.93-69.61,11.42-27,17.21-55.69,17.21-85.25s-5.79-58.24-17.21-85.25ZM445.77,250c0,26.43-5.17,52.07-15.38,76.2-9.37,22.15-22.58,42.15-39.3,59.52-3.15-27.72-15.54-53.5-35.47-73.43-23.39-23.4-54.5-36.28-87.59-36.28h-36.06c-33.09,0-64.19,12.89-87.59,36.28-19.93,19.93-32.32,45.71-35.47,73.43-16.72-17.36-29.93-37.37-39.3-59.52-10.21-24.13-15.38-49.77-15.38-76.2s5.17-52.07,15.38-76.2c9.86-23.31,23.98-44.25,41.96-62.23,17.98-17.98,38.92-32.1,62.23-41.96,24.13-10.21,49.77-15.38,76.2-15.38s52.07,5.17,76.2,15.38c23.31,9.86,44.25,23.98,62.23,41.96,17.98,17.98,32.1,38.92,41.96,62.23,10.21,24.13,15.38,49.77,15.38,76.2ZM131.33,399.88c0-55.5,45.15-100.64,100.64-100.64h36.06c55.49,0,100.64,45.15,100.64,100.64v5.85c-13.03,9.95-27.31,18.25-42.47,24.66-24.13,10.2-49.76,15.38-76.2,15.38s-52.07-5.17-76.2-15.38c-15.16-6.41-29.44-14.7-42.47-24.66v-5.85Z"/>
  <path class="cls-1" d="M250,107.89c-44.39,0-80.5,36.11-80.5,80.5s36.11,80.5,80.5,80.5,80.5-36.11,80.5-80.5-36.11-80.5-80.5-80.5ZM307.27,188.4c0,31.58-25.69,57.27-57.27,57.27s-57.27-25.69-57.27-57.27,25.69-57.27,57.27-57.27,57.27,25.69,57.27,57.27Z"/>
</svg>