<?xml version="1.0" encoding="UTF-8"?>
<svg id="Layer_1" data-name="Layer 1" xmlns="http://www.w3.org/2000/svg" viewBox="0 0 250 250">
  <defs>
    <style>
      .cls-1 {
        fill: #fff;
        stroke-width: 0px;
      }
    </style>
  </defs>
  <path class="cls-1" d="M13.66,237.22c.52-1.64.88-2.81,1.27-3.98,5.88-17.46,11.75-34.93,17.66-52.37.5-1.48.47-2.65-.35-4.07C-5.42,111.19,33,28.28,107.38,14.59c60.89-11.2,119.17,30.83,127.86,92.21,8.37,59.14-32.19,114.15-91.13,123.37-23.89,3.74-46.65-.06-68.11-11.27-1.43-.75-2.61-.8-4.1-.31-18.46,5.96-36.93,11.85-55.41,17.76-.78.25-1.57.48-2.84.86ZM41.96,209.31c1.15-.33,1.93-.54,2.69-.78,10.1-3.23,20.2-6.44,30.27-9.73,1.38-.45,2.41-.3,3.65.48,18.86,11.73,39.35,16.16,61.32,13.07,50.07-7.05,84.95-54.2,77.11-104.05-7.92-50.38-55.52-84.61-105.53-75.88C46.1,43.82,14.38,119.09,51.94,173.72c.91,1.33,1.14,2.43.6,3.99-3.33,9.62-6.54,19.29-9.79,28.94-.25.75-.46,1.53-.8,2.67Z"/>
  <path class="cls-1" d="M94.38,69.02c4.77-1.13,6.79,2.3,8.33,6.82,2.23,6.55,4.77,13,7.23,19.48.69,1.81.78,3.59-.39,5.15-2.2,2.91-4.42,5.84-6.87,8.54-2.61,2.87-2.84,3.63-.93,7.09,8.51,15.38,20.72,26.71,36.84,33.79,2.44,1.07,3.78.9,5.58-1.08,2.89-3.18,5.75-6.39,8.5-9.68,2.49-2.98,3.55-3.45,7.1-1.7,5.65,2.79,11.2,5.79,16.78,8.72,1.78.93,3.52,1.93,5.29,2.88,1.36.73,1.99,1.86,1.93,3.4-.31,7.95-2.64,14.76-9.95,19.16-8.39,5.05-17.01,6.54-26.61,3.68-25.71-7.67-45.92-22.61-60.5-45.07-4.02-6.2-7.83-12.6-11.01-19.26-3.58-7.49-4.37-15.55-2.23-23.74,1.73-6.61,5.52-11.89,10.65-16.25,2.4-2.04,4.48-2.38,10.26-1.93Z"/>
</svg>