<svg width="39" height="40" viewBox="0 0 39 40" fill="none" xmlns="http://www.w3.org/2000/svg">
<path d="M0.00502421 39.0954L2.8058 28.6351C1.2197 25.7741 0.381472 22.5618 0.381472 19.3093C0.381472 8.66332 9.04481 0 19.6908 0C30.3367 0 39 8.66332 39 19.3093C39 29.9552 30.3367 38.6185 19.6908 38.6185C16.4935 38.6185 13.3363 37.8104 10.5104 36.2795L0 39.0954H0.00502421ZM11.0374 32.3595L11.7 32.756C14.1293 34.2015 16.895 34.9695 19.6957 34.9695C28.3289 34.9695 35.356 27.9425 35.356 19.3093C35.356 10.6761 28.3289 3.64903 19.6957 3.64903C11.0625 3.64903 4.03554 10.671 4.03554 19.3093C4.03554 22.1602 4.82859 24.966 6.32434 27.4305L6.7309 28.0981L5.16488 33.9355L11.0374 32.3595Z" fill="white"/>
<path fill-rule="evenodd" clip-rule="evenodd" d="M26.8787 21.9943C26.0856 21.5175 25.0517 20.9905 24.1131 21.3719C23.3953 21.6681 22.9385 22.7924 22.4717 23.3646C22.2308 23.6608 21.9497 23.7059 21.5833 23.5553C18.888 22.4812 16.82 20.6793 15.3343 18.1997C15.0833 17.8133 15.1285 17.5121 15.4296 17.1507C15.8814 16.6237 16.4436 16.0214 16.564 15.3086C16.6845 14.5959 16.3532 13.7627 16.0571 13.1252C15.6806 12.3121 15.259 11.1577 14.4459 10.6959C13.698 10.2743 12.7142 10.5102 12.0466 11.0523C10.8972 11.9858 10.3451 13.4565 10.3602 14.9071C10.3602 15.3187 10.4154 15.7303 10.5107 16.1318C10.7416 17.0905 11.1833 17.9839 11.6853 18.8372C12.0617 19.4797 12.4683 20.1021 12.91 20.6994C14.3505 22.6569 16.1474 24.3635 18.2254 25.6333C19.2644 26.2708 20.3837 26.8279 21.5382 27.2094C22.8382 27.636 23.9926 28.0828 25.398 27.8167C26.8636 27.5357 28.3142 26.6272 28.8965 25.2167C29.0671 24.8001 29.1575 24.3333 29.0571 23.8866C28.8563 22.9731 27.6215 22.426 26.8787 21.9843V21.9943Z" fill="white"/>
</svg>
